<?xml version="1.0" encoding="UTF-8"?>
<svg version="1.1" xmlns="http://www.w3.org/2000/svg" width="256" height="256">
<path d="M0 0 C84.48 0 168.96 0 256 0 C256 84.48 256 168.96 256 256 C171.52 256 87.04 256 0 256 C0 171.52 0 87.04 0 0 Z " fill="#263C5B" transform="translate(0,0)"/>
<path d="M0 0 C98.29032258 0 98.29032258 0 117 10 C116.95359375 11.0621875 116.9071875 12.124375 116.859375 13.21875 C116.20714237 24.36089098 116.20714237 24.36089098 121 34 C125.92514135 39.00091276 130.26600048 40.37161321 137.25 40.4375 C141.2777906 40.28981434 145.06984835 39.89388787 149 39 C160.2242103 60.14074561 162.36614099 83.79361437 156 107 C149.89000975 126.73234484 137.14473542 143.09333716 119.19140625 153.35546875 C103.33615523 161.52567766 88.66838685 164.18283074 71 164.0625 C66.71 164.041875 62.42 164.02125 58 164 C58 148.16 58 132.32 58 116 C63.94 115.67 69.88 115.34 76 115 C87.68495956 112.68505518 95.61296362 109.81301659 103.125 100.3125 C108.5444896 90.73806837 109.65186507 80.24391282 106.75 69.625 C105.38405956 65.55985668 103.50569956 62.45613732 101 59 C101 58.34 101 57.68 101 57 C100.41992188 56.71125 99.83984375 56.4225 99.2421875 56.125 C97.84728871 55.42512047 96.4559409 54.71805844 95.0703125 54 C80.36129303 46.43873698 67.30540615 47.66559254 50 47 C50 85.94 50 124.88 50 165 C33.5 165 17 165 0 165 C0 110.55 0 56.1 0 0 Z " fill="#FDFDFD" transform="translate(52,47)"/>
<path d="M0 0 C5.29954084 5.15631 6.58548469 8.86821322 6.8125 16.1875 C6.6146172 22.01885864 6.13181564 26.69009684 2.3125 31.25 C-4.48024521 37.46871041 -9.92958789 38.72642602 -19.09375 38.66015625 C-25.15759394 37.9680871 -29.16099189 35.19288794 -33.0859375 30.62109375 C-37.5355968 24.32529921 -37.29420622 17.67116019 -36.6875 10.25 C-35.16112389 4.22227267 -31.63251568 0.92347804 -26.6875 -2.62109375 C-18.04055706 -7.50188772 -7.81840897 -5.09105701 0 0 Z " fill="#60BAC0" transform="translate(204.6875,49.75)"/>
</svg>
