<?xml version="1.0" encoding="UTF-8"?>
<svg version="1.1" xmlns="http://www.w3.org/2000/svg" width="512" height="512">
<path d="M0 0 C168.96 0 337.92 0 512 0 C512 168.96 512 337.92 512 512 C343.04 512 174.08 512 0 512 C0 343.04 0 174.08 0 0 Z " fill="#EA2E00" transform="translate(0,0)"/>
<path d="M0 0 C0.94586387 -0.00170885 1.89172774 -0.0034177 2.86625415 -0.00517833 C6.0493246 -0.00848387 9.23218626 0.00254801 12.41523743 0.01345825 C14.69151301 0.01402214 16.96778896 0.01370625 19.24406433 0.01257324 C25.43586963 0.01199784 31.62759793 0.0237825 37.81938529 0.03772116 C44.28564298 0.05019728 50.7519023 0.05139655 57.21817017 0.05377197 C68.07537838 0.05928814 78.93255492 0.07179286 89.78974915 0.08963013 C100.97334148 0.10798454 112.15692608 0.12212026 123.3405304 0.13064575 C124.3848892 0.13144974 124.3848892 0.13144974 125.45034617 0.13226998 C131.50650307 0.13689559 137.56266018 0.14120123 143.61881733 0.14547539 C169.70243258 0.16429907 195.78597278 0.20413867 221.86958313 0.24050903 C221.86958313 64.59050903 221.86958313 128.94050903 221.86958313 195.24050903 C186.88958313 195.24050903 151.90958313 195.24050903 115.86958313 195.24050903 C115.86958313 223.62050903 115.86958313 252.00050903 115.86958313 281.24050903 C112.06933008 280.29044577 109.7583483 279.15932574 106.43208313 277.17800903 C104.83880188 276.2305481 104.83880188 276.2305481 103.21333313 275.26394653 C97.74527189 271.95500293 92.30207058 268.60748576 86.86958313 265.24050903 C80.12535698 261.06984648 73.36589266 256.92970278 66.55708313 252.86550903 C61.39210005 249.78124407 56.27345165 246.63222446 51.18208313 243.42800903 C44.21330347 239.04428275 37.16748789 234.79741614 30.10151672 230.57254028 C23.32197877 226.5176859 16.57778001 222.41268026 9.86958313 218.24050903 C8.44259094 217.36845825 8.44259094 217.36845825 6.98677063 216.47879028 C0.5981364 212.51926071 -5.57862615 208.32889333 -11.13041687 203.24050903 C-12.15395767 202.41298126 -13.17749847 201.58545349 -14.23205566 200.73284912 C-19.32400035 194.65780407 -17.95260576 185.66449243 -17.89091492 178.17556763 C-17.89741185 176.32059197 -17.90647553 174.4656238 -17.91790771 172.610672 C-17.9409558 167.58378981 -17.9262903 162.55766842 -17.90343833 157.53081083 C-17.88450586 152.26806799 -17.89568297 147.00537566 -17.90234375 141.74261475 C-17.90868087 132.90748016 -17.89042996 124.07265005 -17.85771179 115.23757935 C-17.82019546 105.02233737 -17.82200719 94.80767153 -17.84475297 84.592399 C-17.86569621 74.76310179 -17.85843281 64.93401757 -17.83843422 55.10472488 C-17.83044667 50.92216537 -17.83244149 46.73978594 -17.84245872 42.5572319 C-17.85300398 37.63385055 -17.83889994 32.7111414 -17.80571556 27.78786659 C-17.79750319 25.98069016 -17.79779841 24.17345218 -17.80719376 22.36628151 C-17.81860802 19.90004983 -17.79926495 17.4359132 -17.77206421 14.96984863 C-17.7825357 14.25379845 -17.79300719 13.53774827 -17.80379599 12.79999959 C-17.72509444 8.97311028 -17.24146846 7.37542119 -14.77781391 4.38242531 C-9.68507984 0.26207244 -6.36237633 -0.04164298 0 0 Z " fill="#FEFEFE" transform="translate(154.1304168701172,122.75949096679688)"/>
<path d="M0 0 C0.33 0 0.66 0 1 0 C1 64.35 1 128.7 1 195 C-33.98 195 -68.96 195 -105 195 C-105 223.38 -105 251.76 -105 281 C-108.80025305 280.04993674 -111.11123483 278.91881671 -114.4375 276.9375 C-116.03078125 275.99003906 -116.03078125 275.99003906 -117.65625 275.0234375 C-123.12431124 271.7144939 -128.56751255 268.36697673 -134 265 C-140.74422615 260.82933745 -147.50369047 256.68919374 -154.3125 252.625 C-159.47748308 249.54073503 -164.59613148 246.39171543 -169.6875 243.1875 C-176.65627966 238.80377372 -183.70209524 234.5569071 -190.76806641 230.33203125 C-196.56607422 226.86423188 -202.34761995 223.37465414 -208.0859375 219.80859375 C-210.10286152 218.55680311 -212.12964822 217.32081644 -214.1640625 216.09765625 C-215.16179687 215.48792969 -216.15953125 214.87820313 -217.1875 214.25 C-218.06792969 213.71890625 -218.94835937 213.1878125 -219.85546875 212.640625 C-222.14715991 210.88741865 -222.95034356 209.64836393 -224 207 C-224.33 206.34 -224.66 205.68 -225 205 C-225.375 202.125 -225.375 202.125 -225 199 C-220.59617031 194.59617031 -217.03777983 193.88687224 -210.93319017 193.87091869 C-210.09759291 193.87383153 -209.26199566 193.87674437 -208.40107727 193.87974548 C-207.51238313 193.87889106 -206.623689 193.87803663 -205.70806473 193.87715632 C-202.71852355 193.87550405 -199.729038 193.88101878 -196.73950195 193.88647461 C-194.60115561 193.88675656 -192.46280917 193.88659859 -190.32446289 193.8860321 C-184.50870188 193.88574444 -178.69296137 193.89163614 -172.87720513 193.89860606 C-166.80332559 193.90484479 -160.72944561 193.90544381 -154.65556335 193.90663147 C-143.14901094 193.90974325 -131.64246799 193.91795458 -120.13591975 193.92798096 C-104.59050067 193.94123348 -89.04507902 193.94664324 -73.49965572 193.95248318 C-48.99976339 193.96189456 -24.49989103 193.98181451 0 194 C0 129.98 0 65.96 0 0 Z " fill="#FEB589" transform="translate(375,123)"/>
</svg>
