<?xml version="1.0" encoding="UTF-8"?>
<svg version="1.1" xmlns="http://www.w3.org/2000/svg" width="32" height="32">
<path d="M0 0 C10.56 0 21.12 0 32 0 C32 10.56 32 21.12 32 32 C21.44 32 10.88 32 0 32 C0 21.44 0 10.88 0 0 Z " fill="#B218F8" transform="translate(0,0)"/>
<path d="M0 0 C8.58 0 17.16 0 26 0 C21 5 21 5 18 6 C18 4.68 18 3.36 18 2 C17.01 2.495 17.01 2.495 16 3 C16.144375 4.03125 16.28875 5.0625 16.4375 6.125 C16 10 16 10 14.51171875 11.625 C13.25182673 12.62665328 11.97810639 13.61115035 10.69140625 14.578125 C8.50314907 16.41767607 7.72411304 18.26446183 7 21 C7.61875 20.505 8.2375 20.01 8.875 19.5 C11 18 11 18 13 18 C13.33 17.01 13.66 16.02 14 15 C13.58071383 19.89167203 11.55713565 21.76624032 8 25 C7.113125 25.928125 6.22625 26.85625 5.3125 27.8125 C3 30 3 30 1 30 C0.67 30.66 0.34 31.32 0 32 C0 21.44 0 10.88 0 0 Z " fill="#404BEA" transform="translate(0,0)"/>
<path d="M0 0 C0.66 0 1.32 0 2 0 C2 1.32 2 2.64 2 4 C2.66 4.33 3.32 4.66 4 5 C3.34 6.32 2.68 7.64 2 9 C3.98 9 5.96 9 8 9 C8.28875 9.7425 8.5775 10.485 8.875 11.25 C9.82302644 13.56739797 10.84845911 15.77917115 12 18 C11.2575 17.67 10.515 17.34 9.75 17 C6.86116688 15.77217129 6.86116688 15.77217129 3 16 C1.08816798 17.94172699 1.08816798 17.94172699 -0.5625 20.4375 C-3.69754768 24.89918256 -3.69754768 24.89918256 -7 26 C-6.29445932 22.33118845 -4.72264494 19.29549466 -3 16 C-3.61875 16.495 -4.2375 16.99 -4.875 17.5 C-7 19 -7 19 -9 19 C-8.02861852 14.82305964 -7.32659984 13.25474788 -3.875 10.5625 C-0.58511662 8.22235773 -0.58511662 8.22235773 -0.6875 4.25 C-0.790625 3.1775 -0.89375 2.105 -1 1 C-0.67 0.67 -0.34 0.34 0 0 Z " fill="#EDEEEA" transform="translate(16,2)"/>
<path d="M0 0 C0.99 0.33 1.98 0.66 3 1 C2.875 2.6875 2.875 2.6875 2 5 C1.030625 5.804375 0.06125 6.60875 -0.9375 7.4375 C-3.95969417 9.96627471 -4.94208408 11.29729429 -6 15 C-5.38125 14.505 -4.7625 14.01 -4.125 13.5 C-2 12 -2 12 0 12 C0.33 11.01 0.66 10.02 1 9 C0.58071383 13.89167203 -1.44286435 15.76624032 -5 19 C-5.886875 19.928125 -6.77375 20.85625 -7.6875 21.8125 C-10 24 -10 24 -12 24 C-12.33 24.66 -12.66 25.32 -13 26 C-14.06379855 15.86858527 -14.06379855 15.86858527 -11.65234375 11.6328125 C-9.8649303 9.61362456 -8.00561028 7.80144636 -6 6 C-4.84995658 4.83748322 -3.70371967 3.67118009 -2.5625 2.5 C-1.716875 1.675 -0.87125 0.85 0 0 Z " fill="#5546EC" transform="translate(13,6)"/>
<path d="M0 0 C0.42244894 3.44999969 0.62172957 6.00600025 -1.265625 9.0234375 C-2.77188571 10.81486407 -4.21807686 12.48121058 -6 14 C-6.66 14 -7.32 14 -8 14 C-8.33 13.34 -8.66 12.68 -9 12 C-11.52733235 11.34444881 -11.52733235 11.34444881 -14 11 C-13.49268371 6.60325886 -10.88085945 4.16191891 -8 1 C-5.29120665 -0.35439668 -2.99066732 -0.06501451 0 0 Z " fill="#7F2EF2" transform="translate(32,0)"/>
<path d="M0 0 C0.99 0.33 1.98 0.66 3 1 C2.46672287 5.02716175 0.48432021 6.85821443 -2.375 9.625 C-3.16648437 10.40101562 -3.95796875 11.17703125 -4.7734375 11.9765625 C-8.19468076 15.08569234 -10.11553114 16.25752084 -14.6875 16.125 C-15.89986328 16.09792969 -15.89986328 16.09792969 -17.13671875 16.0703125 C-17.75160156 16.04710938 -18.36648437 16.02390625 -19 16 C-19 15.34 -19 14.68 -19 14 C-17.55139313 12.74893043 -16.09723133 11.50300227 -14.6015625 10.30859375 C-12.59523412 8.66927666 -10.79585899 6.86493049 -9 5 C-9.57584432 7.38564077 -10.22227595 9.66682784 -11 12 C-7.00306959 9.11332804 -4.61967022 6.15533897 -2 2 C-1.34 1.34 -0.68 0.68 0 0 Z " fill="#942CF3" transform="translate(20,16)"/>
<path d="M0 0 C0.66 0 1.32 0 2 0 C2 1.32 2 2.64 2 4 C2.66 4.33 3.32 4.66 4 5 C3.34 6.32 2.68 7.64 2 9 C2.66 9.33 3.32 9.66 4 10 C3.34 11.32 2.68 12.64 2 14 C1.01 14 0.02 14 -1 14 C-1.33 14.66 -1.66 15.32 -2 16 C-6.5 19 -6.5 19 -9 19 C-8.02861852 14.82305964 -7.32659984 13.25474788 -3.875 10.5625 C-0.58511662 8.22235773 -0.58511662 8.22235773 -0.6875 4.25 C-0.790625 3.1775 -0.89375 2.105 -1 1 C-0.67 0.67 -0.34 0.34 0 0 Z " fill="#CDBEEC" transform="translate(16,2)"/>
<path d="M0 0 C3.96 0 7.92 0 12 0 C12 0.66 12 1.32 12 2 C10.3203125 3.62109375 10.3203125 3.62109375 8.125 5.4375 C5.53806278 7.58400884 3.88815626 9.16776562 2 12 C1.34 12 0.68 12 0 12 C0 8.04 0 4.08 0 0 Z " fill="#2658E7" transform="translate(0,0)"/>
<path d="M0 0 C0.33 1.32 0.66 2.64 1 4 C0.29875 4.515625 -0.4025 5.03125 -1.125 5.5625 C-4.0406482 8.0344626 -6.29677831 10.63130997 -8.66796875 13.609375 C-9.10753906 14.06828125 -9.54710937 14.5271875 -10 15 C-10.66 15 -11.32 15 -12 15 C-12.33 15.66 -12.66 16.32 -13 17 C-12.5645247 12.20977167 -10.36631922 8.37539286 -7 5 C-5.01953125 4.359375 -5.01953125 4.359375 -3 4 C-2.01 3.67 -1.02 3.34 0 3 C0 2.01 0 1.02 0 0 Z " fill="#7640EF" transform="translate(13,15)"/>
<path d="M0 0 C0.66 0.33 1.32 0.66 2 1 C2 3.64 2 6.28 2 9 C-0.97 9 -3.94 9 -7 9 C-7 8.34 -7 7.68 -7 7 C-5.01739574 5.31267723 -3.0167658 3.64633943 -1 2 C-0.67 1.34 -0.34 0.68 0 0 Z " fill="#D10BFC" transform="translate(30,23)"/>
<path d="M0 0 C0.99 0.33 1.98 0.66 3 1 C3 1.66 3 2.32 3 3 C1.390625 4.5859375 1.390625 4.5859375 -0.75 6.375 C-3.09532154 8.34870369 -5.19468988 10.21632208 -7.25 12.5 C-7.8275 12.995 -8.405 13.49 -9 14 C-11.109375 13.59375 -11.109375 13.59375 -13 13 C-12.31292969 12.39671875 -11.62585937 11.7934375 -10.91796875 11.171875 C-10.01691406 10.37265625 -9.11585937 9.5734375 -8.1875 8.75 C-6.84751953 7.56664062 -6.84751953 7.56664062 -5.48046875 6.359375 C-3.35871775 4.34120555 -1.65745577 2.40083295 0 0 Z " fill="#A220F6" transform="translate(23,18)"/>
<path d="M0 0 C0.33 0 0.66 0 1 0 C1 2.97 1 5.94 1 9 C-0.65 9.66 -2.3 10.32 -4 11 C-4.99 9.68 -5.98 8.36 -7 7 C-5.47005208 5.76302083 -3.94010417 4.52604167 -2.41015625 3.2890625 C-0.86733563 2.0333609 -0.86733563 2.0333609 0 0 Z " fill="#9724F5" transform="translate(31,7)"/>
<path d="M0 0 C0.99 0.33 1.98 0.66 3 1 C-1.62 5.62 -6.24 10.24 -11 15 C-11.33 14.01 -11.66 13.02 -12 12 C-11.34 12 -10.68 12 -10 12 C-9.79375 11.46375 -9.5875 10.9275 -9.375 10.375 C-7.46749574 7.08021991 -4.95180616 4.40636372 -2 2 C-1.34 2 -0.68 2 0 2 C0 1.34 0 0.68 0 0 Z " fill="#3451E8" transform="translate(12,0)"/>
<path d="M0 0 C1.65 0.33 3.3 0.66 5 1 C5 2.65 5 4.3 5 6 C0.25 7.125 0.25 7.125 -2 6 C-1.49396008 3.83125748 -1.00016187 2.00032373 0 0 Z " fill="#9A75ED" transform="translate(20,5)"/>
<path d="M0 0 C-0.99 0.495 -0.99 0.495 -2 1 C-2.309375 1.639375 -2.61875 2.27875 -2.9375 2.9375 C-4 5 -4 5 -7 7 C-8.32 6.01 -9.64 5.02 -11 4 C-7.26280719 0.48264206 -5.13496308 -0.47767098 0 0 Z " fill="#6C39F0" transform="translate(32,0)"/>
<path d="M0 0 C0.66 0 1.32 0 2 0 C1.42110619 3.28754511 0.45171589 4.93672495 -1.9375 7.25 C-2.46214844 7.77078125 -2.98679687 8.2915625 -3.52734375 8.828125 C-5 10 -5 10 -7 10 C-7 10.66 -7 11.32 -7 12 C-7.99 12 -8.98 12 -10 12 C-10 11.34 -10 10.68 -10 10 C-8.3203125 8.37890625 -8.3203125 8.37890625 -6.125 6.5625 C-3.53806278 4.41599116 -1.88815626 2.83223438 0 0 Z " fill="#C311FA" transform="translate(30,20)"/>
<path d="M0 0 C0.33 0.99 0.66 1.98 1 3 C-0.8125 6.1875 -0.8125 6.1875 -3 9 C-3.66 9 -4.32 9 -5 9 C-5 9.66 -5 10.32 -5 11 C-6.32 11 -7.64 11 -9 11 C-9 10.34 -9 9.68 -9 9 C-7.52460414 7.75411016 -6.04550456 6.51187361 -4.53515625 5.30859375 C-2.6952004 3.74018355 -1.33816421 2.00724632 0 0 Z " fill="#7C2EF2" transform="translate(10,21)"/>
<path d="M0 0 C1 3 1 3 0 6 C-3.44444444 9 -3.44444444 9 -6 9 C-4.83857315 4.64464931 -3.92300495 2.35380297 0 0 Z " fill="#E5E4EB" transform="translate(13,12)"/>
<path d="M0 0 C-4.625 4.875 -4.625 4.875 -8 6 C-8.33 4.35 -8.66 2.7 -9 1 C-6.04335481 -0.4783226 -3.25770263 -0.06032783 0 0 Z " fill="#5543ED" transform="translate(26,0)"/>
<path d="M0 0 C2.31 0 4.62 0 7 0 C6.02433888 1.16959987 5.044375 2.33561177 4.0625 3.5 C3.51722656 4.1496875 2.97195312 4.799375 2.41015625 5.46875 C1.94480469 5.9740625 1.47945313 6.479375 1 7 C0.67 7 0.34 7 0 7 C0 4.69 0 2.38 0 0 Z " fill="#1361E6" transform="translate(0,0)"/>
<path d="M0 0 C0.268125 0.598125 0.53625 1.19625 0.8125 1.8125 C1.8893979 4.04327908 1.8893979 4.04327908 3.625 5.625 C4.07875 6.07875 4.5325 6.5325 5 7 C5 7.66 5 8.32 5 9 C2.0280615 7.87548273 -0.33440687 6.77706209 -3 5 C-2 2 -2 2 0 0 Z " fill="#DBC4EC" transform="translate(23,11)"/>
<path d="M0 0 C0.99 0.33 1.98 0.66 3 1 C2.4409112 4.24271506 1.5867822 5.93057424 -1 8 C-1.66 8 -2.32 8 -3 8 C-2.37240135 5.07120629 -1.41377341 2.63904371 0 0 Z " fill="#E1DAEB" transform="translate(12,20)"/>
<path d="M0 0 C0.33 0.99 0.66 1.98 1 3 C-0.62339805 4.70884005 -2.29319053 6.37446717 -4 8 C-4.66 8 -5.32 8 -6 8 C-5.67 5.69 -5.34 3.38 -5 1 C-4.34 1.66 -3.68 2.32 -3 3 C-2.01 2.01 -1.02 1.02 0 0 Z " fill="#8D31F3" transform="translate(30,6)"/>
<path d="M0 0 C0.66 0 1.32 0 2 0 C2 1.32 2 2.64 2 4 C2.66 4.33 3.32 4.66 4 5 C3.01 5.99 2.02 6.98 1 8 C-1 5 -1 5 -0.625 2.3125 C-0.41875 1.549375 -0.2125 0.78625 0 0 Z " fill="#B7B1EB" transform="translate(16,2)"/>
<path d="M0 0 C-1.44253657 3.36591866 -3.33264727 5.51047079 -6 8 C-5.62403791 5.21788056 -5.32681541 3.4120716 -3.5625 1.1875 C-2 0 -2 0 0 0 Z " fill="#613DEE" transform="translate(6,20)"/>
<path d="M0 0 C0.66 0.33 1.32 0.66 2 1 C1 4 1 4 -1.0625 5.1875 C-1.701875 5.455625 -2.34125 5.72375 -3 6 C-3 3 -3 3 -1.5 1.3125 C-0.7575 0.6628125 -0.7575 0.6628125 0 0 Z " fill="#A41EF7" transform="translate(30,12)"/>
<path d="M0 0 C0.33 0 0.66 0 1 0 C1 2.64 1 5.28 1 8 C0.01 8 -0.98 8 -2 8 C-1.125 2.25 -1.125 2.25 0 0 Z " fill="#DE06FD" transform="translate(31,24)"/>
</svg>
