<?xml version="1.0" encoding="utf-8"?>
<svg version="1.1" id="Layer_1" xmlns="http://www.w3.org/2000/svg" xmlns:xlink="http://www.w3.org/1999/xlink" viewBox="0 0 512 512" style="enable-background:new 0 0 512 512;" xml:space="preserve">
  <style>
    .custom-svg {
      fill: currentColor;
      stroke: currentColor;
    }
    @media (prefers-color-scheme: dark) {
      .custom-svg {
        fill: white;
        stroke: white;
      }
    }
  </style>
  <g class="custom-svg">
    <path d="M256,0C114.8,0,0,114.8,0,256s114.8,256,256,256s256-114.8,256-256S397.2,0,256,0z M256,39.4
      c119.4,0,216.6,97.2,216.6,216.6S375.4,472.6,256,472.6S39.4,375.4,39.4,256S136.6,39.4,256,39.4z M253.8,79.2
      c-5.2,0.1-10.7,3-14,9.5l0.3-0.4c-4.2,9.9,4.2,48.9,19.2,75c-2.1,1.2-3.4,2.3-6.7,5.5c-18,8.1-46.8,50.2-46.8,50.2
      c-23.5,9-64.3,35.8-58.8,59.8c0.3,2.5,1.2,4.6,2.5,6.2c-2.3,1.8-4.6,4.2-6.9,6.9c-9.9,11.5-4.4,29.3,14.7,20.3
      c13.2-6,24.7-16.8,30.2-25.3c0,0-4.6-4.1-13.5-3.7c23.1-5.5,28.9-2.1,38.5-1c6.7,3.3,6.7-28.6,6.7-28.6c0-12.3-1.8-25.8-9.2-34.5
      c10.4,10.2,24.2,27.2,23.3,50.4c-0.7,15.2-12.7,19.2-12.7,19.2c-7.6,13.8-36,54.9-25.3,88.3c0,0-8.1-12.4-8.5-18.4
      c-14.5,16.1-38.7,43.5-20.5,53.7c22.2,12.3,90.6-73.8,105.1-118.5c28.8-17.3,46.1-39.4,53.2-54.1c18.3,36.3,82.9,73.6,87.7,44.1
      c2.1-13.4-16.8-13.8-21-21.4c-11.3-20.1-26.6-25.6-49-20.2c9.7-6.7,19.6-5.1,19.6-5.1c0.3-5.3,0-10.8-7.8-20.7
      c3.3-10.4,0.2-18.7,0.2-18.7c12.9-7.2,22.3-20.3,24.2-36c3-25.8-15.6-49.3-41.5-52.3c-18.4-2.1-36.4,6.4-45.2,21.4
      c-19.3,33.4,1.2,59.1,18.7,67.8c-12-1.2-28.5-9.9-33.4-28.6c-4.8-18.5,0.4-36,5.2-46.6c0,0-10.7-8.9-13.7-11.5c0,0-11.5,0-20.5,4.4
      c9.9-12.7,21-12,21-12c0-5.3-0.5-12.4-3-18C264,81.8,259.1,79.1,253.8,79.2z M324.3,123.9c8.2,0.9,16.2,6.2,24.1,13.7
      c9.9,9.4,24.4,20.7,14.3,40.1c-10.4,19.6-37.5,27.7-54.2,15.9c-16.6-12-28.2-36-9.9-56.7C307.6,126.6,316.1,123,324.3,123.9z
      M342.2,154.2c-6.2,0.8-11.7,10.1-6.8,15.9c6.1,7.5,26.7,2,12.9-13.4C346.4,154.5,344.3,153.9,342.2,154.2z M279.2,205
      c2.5,0,5,0.9,7,2.8l8.8,9c3.7,3.7,3.7,9.9,0,13.5l-8.1,8.1c-3.7,3.9-9.9,3.9-13.8,0l-8.7-8.7c-3.7-3.9-3.7-9.9,0-13.8l8.1-8.1
      C274.3,205.9,276.7,205,279.2,205z"/>
  </g>
</svg>