<?xml version="1.0" encoding="UTF-8"?>
<svg version="1.1" xmlns="http://www.w3.org/2000/svg" width="474" height="474">
<path d="M0 0 C156.42 0 312.84 0 474 0 C474 156.42 474 312.84 474 474 C317.58 474 161.16 474 0 474 C0 317.58 0 161.16 0 0 Z " fill="#FDFDFD" transform="translate(0,0)"/>
<path d="M0 0 C0.79481018 -0.00297112 1.58962036 -0.00594224 2.40851569 -0.0090034 C5.04503952 -0.01760518 7.6815175 -0.01919134 10.3180542 -0.02069092 C12.21944778 -0.02532506 14.12084045 -0.03035052 16.02223206 -0.03573608 C21.16910171 -0.04880283 26.31595835 -0.05529357 31.46284199 -0.05974674 C34.68370295 -0.06268616 37.90456042 -0.06679253 41.12541962 -0.07125092 C51.21840721 -0.08490947 61.31138675 -0.0945847 71.40438294 -0.09845281 C83.02673805 -0.10293255 94.64897549 -0.12048355 106.27129483 -0.1494534 C115.27542904 -0.17111285 124.27953024 -0.18115933 133.28369021 -0.18249393 C138.65238147 -0.1835387 144.02096188 -0.1893769 149.38962555 -0.20731354 C154.44253995 -0.22386857 159.49526102 -0.22591383 164.54819298 -0.21717453 C166.39396116 -0.21640818 168.23974007 -0.22069331 170.08548164 -0.23063278 C183.84435609 -0.3003324 196.10168178 0.87894452 208.60223389 7.14044189 C209.4130542 7.51040283 210.22387451 7.88036377 211.05926514 8.26153564 C217.25487697 11.16424165 222.36617858 14.76084173 227.60223389 19.14044189 C228.25449951 19.65864502 228.90676514 20.17684814 229.57879639 20.71075439 C233.41930453 23.83218867 236.15042959 26.82526634 238.60223389 31.14044189 C238.60223389 31.80044189 238.60223389 32.46044189 238.60223389 33.14044189 C239.26223389 33.14044189 239.92223389 33.14044189 240.60223389 33.14044189 C248.68315315 47.14957651 253.76230966 60.02216608 253.74267578 76.36653137 C253.74713246 77.54922298 253.74713246 77.54922298 253.75167918 78.75580734 C253.76029575 81.3769498 253.76186842 83.99804621 253.7633667 86.61920166 C253.76799992 88.50735063 253.77302526 90.39549866 253.77841187 92.28364563 C253.79149056 97.39971803 253.79797212 102.51577734 253.80242252 107.63186383 C253.80536099 110.83414143 253.80946727 114.03641551 253.8139267 117.23869133 C253.82759061 127.27508926 253.83726229 137.31147908 253.84112859 147.34788567 C253.84560469 158.90118053 253.86313651 170.4543568 253.89212918 182.00761563 C253.91380653 190.95910746 253.92383612 199.91056607 253.92516971 208.86208385 C253.92621354 214.19843709 253.93203083 219.5346787 253.94998932 224.8710041 C253.96657467 229.89682614 253.96857516 234.92245388 253.95985031 239.94829369 C253.95908547 241.78193307 253.96334873 243.61558337 253.97330856 245.44919586 C254.07980815 266.29628452 251.26872791 287.27318228 236.60223389 303.14044189 C236.01313232 303.84555908 235.42403076 304.55067627 234.81707764 305.27716064 C229.31738459 311.8542423 223.04333739 317.81421893 215.60223389 322.14044189 C214.61223389 322.14044189 213.62223389 322.14044189 212.60223389 322.14044189 C212.60223389 322.80044189 212.60223389 323.46044189 212.60223389 324.14044189 C208.60223389 325.47377523 204.60223389 326.80710856 200.60223389 328.14044189 C199.16750732 328.63930908 199.16750732 328.63930908 197.70379639 329.14825439 C191.06048664 331.27344416 185.24877017 332.4371557 178.3069458 332.40113831 C177.11306189 332.40687663 177.11306189 332.40687663 175.89505911 332.41273087 C173.24855388 332.42298576 170.60226867 332.41908301 167.95574951 332.4151001 C166.04951783 332.41945095 164.1432879 332.42463534 162.23706055 332.43058777 C157.07131569 332.44395442 151.90564411 332.44455862 146.73988533 332.44202447 C142.41651497 332.44095236 138.09315929 332.44584469 133.76979208 332.45062989 C123.55898021 332.46171878 113.34820512 332.46216711 103.13739014 332.45611572 C92.63561681 332.45008701 82.13397783 332.46236034 71.63222742 332.48368579 C62.59239176 332.50136154 53.55259862 332.50729344 44.51274633 332.50404805 C39.1243916 332.50224325 33.73613253 332.50478984 28.34779358 332.51876259 C23.27188989 332.53143241 18.19619354 332.52931113 13.12029266 332.5163517 C11.26933977 332.51400549 9.41837187 332.51664936 7.56743622 332.52497482 C-6.82683668 332.58499018 -21.44025793 332.14129338 -34.39776611 325.14044189 C-35.7010083 324.49268799 -35.7010083 324.49268799 -37.03057861 323.83184814 C-48.051222 318.16803559 -56.06809159 311.09390291 -63.39776611 301.14044189 C-63.96624268 300.42372314 -64.53471924 299.70700439 -65.12042236 298.96856689 C-66.39776611 297.14044189 -66.39776611 297.14044189 -66.39776611 295.14044189 C-67.05776611 295.14044189 -67.71776611 295.14044189 -68.39776611 295.14044189 C-76.78285547 279.26229396 -79.15259392 262.91623049 -78.99713135 245.18170166 C-78.99900129 243.26735619 -79.00305053 241.35301182 -79.00907898 239.43867493 C-79.01894495 234.30257958 -78.99806732 229.16704767 -78.97059894 224.03103375 C-78.94654281 218.62618555 -78.94971218 213.22134422 -78.94929504 207.81645203 C-78.94468703 198.7528851 -78.92117519 189.68953016 -78.88482666 180.6260376 C-78.84301652 170.17338971 -78.82550549 159.72093194 -78.82220691 149.26820523 C-78.81859862 138.08989889 -78.79972389 126.91166001 -78.77508664 115.73338199 C-78.76888284 112.53120887 -78.76523115 109.32904089 -78.76205254 106.12686348 C-78.75612023 101.08612676 -78.73971977 96.04552347 -78.71544838 91.00484276 C-78.70805675 89.16349953 -78.7039396 87.32213956 -78.70346832 85.48078156 C-78.69715945 72.95780676 -78.33716252 60.89727959 -73.71026611 49.07794189 C-73.44971436 48.40239258 -73.1891626 47.72684326 -72.92071533 47.03082275 C-65.97700509 29.71270726 -52.06370563 14.86838115 -35.03057861 7.05450439 C-23.40811149 2.23896506 -12.55472256 -0.01503271 0 0 Z " fill="#0082C6" transform="translate(149.39776611328125,70.85955810546875)"/>
<path d="M0 0 C0.99 0.33 1.98 0.66 3 1 C3 1.66 3 2.32 3 3 C3.73605469 3.27585938 4.47210938 3.55171875 5.23046875 3.8359375 C17.58240066 9.02758166 26.68445171 19.44164009 33 31 C34.05043004 34.07749957 34.56804427 36.76033205 35 40 C36.94330045 38.13443157 38.79735658 36.24674199 40.5078125 34.1640625 C47.22114556 26.01438841 55.04951011 21.31682996 65 18 C80.56050793 17.08155912 91.53118573 19.65985795 103.6875 29.75 C107.95800963 33.66034617 110.70481092 37.70598723 113 43 C113.38297241 43.87301758 113.38297241 43.87301758 113.77368164 44.76367188 C117.4719914 53.76440422 118.06984505 64.3961243 114.3828125 73.515625 C108.29212095 86.5981291 99.62068457 95.60155794 86 101 C75.40915407 103.64336385 62.74304161 102.65525437 53.078125 97.390625 C46.21765443 92.79978379 40.51580666 87.51104151 37 80 C35.03671387 82.9449292 33.48847187 85.91435372 31.875 89.0625 C27.98014763 96.35516292 23.2549573 103.4829871 17 109 C16.34 109 15.68 109 15 109 C15 109.66 15 110.32 15 111 C-1.28090621 123.43718468 -18.96081192 126.00948252 -39 124 C-46.91943864 122.59407374 -54.29136408 119.41788219 -61 115 C-61 114.34 -61 113.68 -61 113 C-61.70125 112.773125 -62.4025 112.54625 -63.125 112.3125 C-70.28270245 109.04485323 -74.47410278 103.20789325 -79 97 C-79.721875 96.01 -80.44375 95.02 -81.1875 94 C-87 84.37931034 -87 84.37931034 -87 79 C-89.54121562 81.38578958 -91.49986003 84.00920434 -93.5625 86.8125 C-97.74109333 92.050992 -101.98822257 95.12441139 -108 98 C-108.83144531 98.4125 -109.66289062 98.825 -110.51953125 99.25 C-120.24644535 103.44992693 -131.4611962 103.76392808 -141.375 100 C-153.06421162 94.3377903 -161.30426206 85.80485961 -166.4375 73.875 C-169.6980678 63.96680907 -169.44576496 51.49851629 -165 42 C-163.21693424 38.82852037 -161.38840655 35.75431841 -159 33 C-158.34 33 -157.68 33 -157 33 C-156.7421875 32.401875 -156.484375 31.80375 -156.21875 31.1875 C-152.43460578 24.39544627 -144.03379285 21.28478645 -137 19 C-125.190822 15.91934487 -113.82474582 18.11677433 -103.25390625 23.65234375 C-100.30844002 25.41349773 -98.2312309 27.39689728 -96 30 C-95.49726563 30.58265625 -94.99453125 31.1653125 -94.4765625 31.765625 C-93.45290531 32.95406603 -92.43650585 34.14882274 -91.4296875 35.3515625 C-90.01874648 36.9783852 -88.54035336 38.49610471 -87 40 C-86.91621094 39.14792969 -86.83242187 38.29585937 -86.74609375 37.41796875 C-85.86908796 33.40027206 -84.28001885 30.76509264 -82.0625 27.3125 C-81.52206055 26.46075195 -81.52206055 26.46075195 -80.97070312 25.59179688 C-79.345914 23.03941176 -77.67831423 20.51747134 -76 18 C-75.34 18 -74.68 18 -74 18 C-73.505 16.515 -73.505 16.515 -73 15 C-72.34 15 -71.68 15 -71 15 C-70.79375 14.4225 -70.5875 13.845 -70.375 13.25 C-68.48374778 10.15522364 -66.09964063 8.8081237 -63 7 C-62.34 7 -61.68 7 -61 7 C-61 6.34 -61 5.68 -61 5 C-45.16005958 -9.63048684 -18.36305787 -6.34284558 0 0 Z " fill="#FAFCFB" transform="translate(263,177)"/>
<path d="M0 0 C8.26641288 5.76241208 15.77453065 14.04616485 18.34375 23.9609375 C19.70444183 32.92624348 19.86209675 42.51408775 15.76171875 50.71484375 C15.36984375 51.68421875 14.97796875 52.65359375 14.57421875 53.65234375 C9.31495902 62.53867916 1.56433733 70.46250228 -8.42578125 73.58984375 C-19.80799609 76.25779702 -31.48279917 75.69902646 -41.67578125 69.83984375 C-50.23435167 64.07394328 -57.61818891 55.84586745 -60.23828125 45.71484375 C-62.72045475 32.5248999 -60.82012857 23.08856472 -54.42578125 11.40234375 C-51.43554149 7.72862061 -48.06596373 4.51518288 -44.23828125 1.71484375 C-43.57828125 1.71484375 -42.91828125 1.71484375 -42.23828125 1.71484375 C-42.23828125 1.05484375 -42.23828125 0.39484375 -42.23828125 -0.28515625 C-28.20812919 -6.90984862 -13.87648271 -7.96747437 0 0 Z " fill="#0181C6" transform="translate(258.23828125,202.28515625)"/>
<path d="M0 0 C7.11102314 -0.53332674 12.54840783 -0.69810919 18.4453125 3.6328125 C21.84504058 6.62252312 23.73961255 9.41615534 24.203125 14.015625 C24.32642381 19.89286825 23.80527682 24.96684355 19.60546875 29.5078125 C14.87583245 33.69862947 10.51354455 34.43080214 4.37890625 34.33984375 C-0.50364574 33.64233632 -4.09122112 31.07008414 -7.38671875 27.49609375 C-10.82890472 22.48378787 -10.74605414 16.86835266 -10 11 C-8.30610636 6.80984204 -5.69357696 4.55709174 -2 2 C-1.34 2 -0.68 2 0 2 C0 1.34 0 0.68 0 0 Z " fill="#0382C7" transform="translate(330,220)"/>
<path d="M0 0 C3.95681505 2.74649515 6.15007885 5.13773654 7.6875 9.75 C8.07362745 15.04802777 8.24653682 19.95180597 5.6875 24.75 C5.0275 24.75 4.3675 24.75 3.6875 24.75 C3.501875 25.348125 3.31625 25.94625 3.125 26.5625 C1.01158228 29.77857045 -1.72277998 30.79456121 -5.3125 31.75 C-11.24035916 32.72735312 -15.66474555 31.85349418 -20.58203125 28.359375 C-24.83287705 24.40599245 -26.50852204 19.86251629 -26.75 14.125 C-26.47437992 8.78715784 -24.85564231 5.25143576 -21 1.5 C-14.26608301 -2.88487618 -7.02515791 -4.18931435 0 0 Z " fill="#0282C9" transform="translate(146.3125,222.25)"/>
<path d="M0 0 C0.88852764 2.48787739 1.17660068 3.58372698 0.125 6.0625 C-0.24625 6.701875 -0.6175 7.34125 -1 8 C-1.33 8.99 -1.66 9.98 -2 11 C-2.66 11 -3.32 11 -4 11 C-9.18514972 32.9827611 -8.55935518 55.0810085 -8.47143888 77.5185492 C-8.45366042 83.02234534 -8.45739664 88.526134 -8.4581604 94.029953 C-8.45629961 103.24260222 -8.43908462 112.45511796 -8.41162109 121.66772461 C-8.37998666 132.31889754 -8.36963228 142.96992571 -8.3710922 153.62114221 C-8.37244072 164.99712859 -8.35859531 176.37305932 -8.34019899 187.74902892 C-8.33593669 191.02015058 -8.33451682 194.29126328 -8.33372116 197.56238747 C-8.33171755 202.6835894 -8.31955139 207.80466919 -8.29938889 212.92583084 C-8.29353507 214.80643784 -8.29108892 216.68705888 -8.29224396 218.56767464 C-8.29322148 221.12722275 -8.28195393 223.68642576 -8.26742554 226.2459259 C-8.27052274 226.99511522 -8.27361995 227.74430453 -8.276811 228.51619655 C-8.24182301 232.22918504 -8.11590432 233.82614351 -6 237 C-5.796875 239.09375 -5.796875 239.09375 -5.75 241.5 C-5.33077331 247.00638128 -3.23400342 250.8042781 -0.375 255.45703125 C1.01144054 258.02115849 1.58793023 260.13096422 2 263 C1.34 262.67 0.68 262.34 0 262 C0 261.34 0 260.68 0 260 C-0.66 260 -1.32 260 -2 260 C-10.38508936 244.12185207 -12.7548278 227.7757886 -12.59936523 210.04125977 C-12.60123518 208.12691429 -12.60528442 206.21256993 -12.61131287 204.29823303 C-12.62117883 199.16213768 -12.6003012 194.02660578 -12.57283282 188.89059186 C-12.54877669 183.48574366 -12.55194607 178.08090233 -12.55152893 172.67601013 C-12.54692092 163.6124432 -12.52340908 154.54908826 -12.48706055 145.4855957 C-12.44525041 135.03294782 -12.42773938 124.58049004 -12.4244408 114.12776333 C-12.42083251 102.949457 -12.40195778 91.77121811 -12.37732053 80.59294009 C-12.37111673 77.39076697 -12.36746503 74.188599 -12.36428642 70.98642159 C-12.35835412 65.94568486 -12.34195366 60.90508157 -12.31768227 55.86440086 C-12.31029063 54.02305764 -12.30617349 52.18169766 -12.30570221 50.34033966 C-12.29930384 37.63972912 -11.85786967 25.59066536 -7.125 13.625 C-6.88136719 12.96628906 -6.63773437 12.30757812 -6.38671875 11.62890625 C-4.7350407 7.32427382 -2.68190919 3.75002887 0 0 Z " fill="#2282AE" transform="translate(83,106)"/>
<path d="M0 0 C0.79481018 -0.00297112 1.58962036 -0.00594224 2.40851569 -0.0090034 C5.04503952 -0.01760518 7.6815175 -0.01919134 10.3180542 -0.02069092 C12.21944778 -0.02532506 14.12084045 -0.03035052 16.02223206 -0.03573608 C21.16910171 -0.04880283 26.31595835 -0.05529357 31.46284199 -0.05974674 C34.68370295 -0.06268616 37.90456042 -0.06679253 41.12541962 -0.07125092 C51.21840721 -0.08490947 61.31138675 -0.0945847 71.40438294 -0.09845281 C83.02673805 -0.10293255 94.64897549 -0.12048355 106.27129483 -0.1494534 C115.27542904 -0.17111285 124.27953024 -0.18115933 133.28369021 -0.18249393 C138.65238147 -0.1835387 144.02096188 -0.1893769 149.38962555 -0.20731354 C154.44253995 -0.22386857 159.49526102 -0.22591383 164.54819298 -0.21717453 C166.39396116 -0.21640818 168.23974007 -0.22069331 170.08548164 -0.23063278 C183.82088312 -0.30021349 196.13579396 0.8411454 208.60223389 7.14044189 C209.51746826 7.59161377 210.43270264 8.04278564 211.37567139 8.50762939 C213.79149329 9.70538984 216.19957696 10.9165415 218.60223389 12.14044189 C218.60223389 12.47044189 218.60223389 12.80044189 218.60223389 13.14044189 C214.68465597 12.82703566 212.18115399 12.56774006 208.97723389 10.20294189 C204.56184729 7.50465009 200.51882859 7.20188742 195.43035889 6.63262939 C192.60223389 6.14044189 192.60223389 6.14044189 190.60223389 4.14044189 C187.99208907 3.94286248 185.48795846 3.87117439 182.87661743 3.88647461 C182.06948716 3.88335463 181.26235689 3.88023465 180.43076813 3.87702012 C177.71034384 3.86900615 174.99014054 3.87537726 172.26971436 3.88165283 C170.32496001 3.87894418 168.38020669 3.87538396 166.43545532 3.87103271 C161.13712237 3.86188304 155.83886697 3.86546579 150.54053259 3.87179089 C144.99063244 3.87684764 139.44073903 3.8721594 133.89083862 3.86901855 C124.55422779 3.86537371 115.21764852 3.87018712 105.88104248 3.87969971 C95.1169876 3.89054069 84.35300874 3.88709261 73.58895576 3.8760469 C64.33693066 3.86693535 55.08492831 3.86570891 45.83290017 3.87092423 C40.31257709 3.8740285 34.79228957 3.8744969 29.27196884 3.86785126 C24.06649654 3.8620237 18.86112073 3.86617252 13.65565872 3.87763977 C11.75633656 3.8802596 9.85700612 3.87956776 7.95768738 3.87511444 C-14.33487288 3.66297177 -14.33487288 3.66297177 -35.39776611 10.14044189 C-36.05776611 9.48044189 -36.71776611 8.82044189 -37.39776611 8.14044189 C-24.86205564 2.88611218 -13.60675095 -0.01629238 0 0 Z " fill="#167BB7" transform="translate(149.39776611328125,70.85955810546875)"/>
<path d="M0 0 C2.54405787 0.59522494 5.0848917 1.20082769 7.625 1.8125 C8.69427734 2.0609668 8.69427734 2.0609668 9.78515625 2.31445312 C14.19716375 3.38709715 17.99058318 4.79292355 22 7 C22 7.66 22 8.32 22 9 C23.03060547 8.98259766 23.03060547 8.98259766 24.08203125 8.96484375 C24.98308594 8.95582031 25.88414062 8.94679688 26.8125 8.9375 C27.70582031 8.92589844 28.59914062 8.91429687 29.51953125 8.90234375 C32 9 32 9 35 10 C37.64692952 10.1055614 40.26820305 10.15483601 42.91557312 10.15821838 C44.13835841 10.16562535 44.13835841 10.16562535 45.38584644 10.17318195 C48.12661363 10.18858129 50.86735736 10.19692417 53.6081543 10.20532227 C55.56916512 10.21489887 57.53017386 10.22490883 59.49118042 10.23532104 C64.8234641 10.2623997 70.15575666 10.28339324 75.4880712 10.30332303 C81.05747843 10.32516432 86.6268582 10.35256209 92.19624329 10.37937927 C102.74654503 10.42933129 113.29686199 10.47426081 123.84719354 10.51740164 C135.85672627 10.56675257 147.86623145 10.62167865 159.87573755 10.67708123 C184.58379934 10.7909398 209.29188755 10.8977704 234 11 C230.24575447 13.44314354 226.50832715 13.28277095 222.18572998 13.26069641 C221.39322507 13.26452196 220.60072016 13.26834751 219.78419995 13.27228898 C217.12527179 13.28261755 214.46655964 13.27862694 211.80761719 13.2746582 C209.9019755 13.27900513 207.99633557 13.28418821 206.09069824 13.29014587 C200.90818827 13.30355888 195.72575115 13.30411128 190.5432272 13.30158257 C186.21011622 13.300513 181.87701999 13.30539664 177.54391217 13.310188 C167.30823495 13.32129418 157.0725944 13.32171636 146.83691406 13.31567383 C136.30568632 13.30965173 125.77459278 13.3218975 115.24338794 13.3432439 C106.18664794 13.36092134 97.12995038 13.36685104 88.07319379 13.36360615 C82.67136572 13.36180066 77.26963308 13.36435443 71.86782074 13.37832069 C66.77555478 13.39099214 61.68349547 13.38886771 56.5912323 13.37590981 C54.73383257 13.37356345 52.87641789 13.37620802 51.01903534 13.38453293 C36.65718897 13.44419943 21.90463185 13.07035385 9 6 C8.16210938 5.54882812 7.32421875 5.09765625 6.4609375 4.6328125 C4.29306745 3.44484656 2.14124218 2.23513733 0 1 C0 0.67 0 0.34 0 0 Z " fill="#2883AF" transform="translate(106,390)"/>
<path d="M0 0 C0.33 0 0.66 0 1 0 C0.99723462 1.55051937 0.99723462 1.55051937 0.99441338 3.13236237 C0.95000825 28.28759667 0.91714559 53.4428259 0.89637566 78.59809113 C0.88606443 90.7629994 0.87200698 102.92788178 0.84912109 115.09277344 C0.82918258 125.69606083 0.81628245 136.29932947 0.81182301 146.9026351 C0.80921643 152.51664139 0.80309291 158.13059403 0.78853989 163.74458313 C0.77494874 169.03042437 0.77078049 174.31618992 0.77378464 179.60204697 C0.77323516 181.54020982 0.76926688 183.47837525 0.76158905 185.41652298 C0.75160385 188.06752854 0.75404416 190.71825024 0.75949097 193.3692627 C0.75366528 194.13193152 0.7478396 194.89460034 0.74183738 195.68038034 C0.7699885 200.76735418 1.69552968 205.08579043 3 210 C3 211.32 3 212.64 3 214 C2.01 214 1.02 214 0 214 C-2.2642807 203.66085686 -2.27783694 193.5663067 -2.24291992 183.04785156 C-2.24399471 181.15760737 -2.24593631 179.26736349 -2.24867249 177.37712097 C-2.2534912 172.27618442 -2.2459033 167.1753363 -2.23571944 162.07441044 C-2.22689285 156.72235793 -2.22869726 151.37030782 -2.2290802 146.01824951 C-2.22814582 137.03737928 -2.21949101 128.05654299 -2.20581055 119.07568359 C-2.19006833 108.70322386 -2.18481325 98.33080121 -2.1855461 87.95833039 C-2.1862222 76.89322029 -2.17927974 65.82812441 -2.1700995 54.76301861 C-2.16797177 51.58263533 -2.16725882 48.40225435 -2.16686058 45.22187042 C-2.1658539 40.22150638 -2.15973071 35.22117329 -2.14969444 30.22081947 C-2.14678156 28.38908134 -2.14554161 26.55733965 -2.14612198 24.72559929 C-2.14661536 22.21980462 -2.14093087 19.71409567 -2.13371277 17.20831299 C-2.13526137 16.48884814 -2.13680997 15.76938328 -2.1384055 15.02811646 C-2.07706807 2.07706807 -2.07706807 2.07706807 0 0 Z " fill="#DAFEFE" transform="translate(71,134)"/>
<path d="M0 0 C7.11102314 -0.53332674 12.54840783 -0.69810919 18.4453125 3.6328125 C21.84504058 6.62252312 23.73961255 9.41615534 24.203125 14.015625 C24.32642381 19.89286825 23.80527682 24.96684355 19.60546875 29.5078125 C14.87583245 33.69862947 10.51354455 34.43080214 4.37890625 34.33984375 C-0.50364574 33.64233632 -4.09122112 31.07008414 -7.38671875 27.49609375 C-10.82890472 22.48378787 -10.74605414 16.86835266 -10 11 C-8.30610636 6.80984204 -5.69357696 4.55709174 -2 2 C-1.34 2 -0.68 2 0 2 C0 1.34 0 0.68 0 0 Z M-4 5 C-4.33 5.99 -4.66 6.98 -5 8 C-5.99 8.33 -6.98 8.66 -8 9 C-8 12.63 -8 16.26 -8 20 C-7.34 20 -6.68 20 -6 20 C-5.67 22.97 -5.34 25.94 -5 29 C0.5522888 31.8352113 4.80112515 32.37952295 11 32 C11 31.34 11 30.68 11 30 C12.32 30 13.64 30 15 30 C15.027193 28.41676312 15.04648306 26.83338938 15.0625 25.25 C15.07410156 24.36828125 15.08570313 23.4865625 15.09765625 22.578125 C15.00826198 20.2181162 14.66912821 18.25501476 14 16 C13.01 16 12.02 16 11 16 C10.80083984 14.95199219 10.80083984 14.95199219 10.59765625 13.8828125 C10.42105469 12.97273437 10.24445313 12.06265625 10.0625 11.125 C9.88847656 10.22007812 9.71445312 9.31515625 9.53515625 8.3828125 C9.10036299 6.00043683 9.10036299 6.00043683 8 4 C8.99 3.67 9.98 3.34 11 3 C5.16073473 1.92297996 1.12402988 1.41317908 -4 5 Z " fill="#0481C5" transform="translate(330,220)"/>
<path d="M0 0 C0.79481018 -0.00297112 1.58962036 -0.00594224 2.40851569 -0.0090034 C5.04503952 -0.01760518 7.6815175 -0.01919134 10.3180542 -0.02069092 C12.21944778 -0.02532506 14.12084045 -0.03035052 16.02223206 -0.03573608 C21.16910171 -0.04880283 26.31595835 -0.05529357 31.46284199 -0.05974674 C34.68370295 -0.06268616 37.90456042 -0.06679253 41.12541962 -0.07125092 C51.21840721 -0.08490947 61.31138675 -0.0945847 71.40438294 -0.09845281 C83.02673805 -0.10293255 94.64897549 -0.12048355 106.27129483 -0.1494534 C115.27542904 -0.17111285 124.27953024 -0.18115933 133.28369021 -0.18249393 C138.65238147 -0.1835387 144.02096188 -0.1893769 149.38962555 -0.20731354 C154.44253995 -0.22386857 159.49526102 -0.22591383 164.54819298 -0.21717453 C166.39396116 -0.21640818 168.23974007 -0.22069331 170.08548164 -0.23063278 C183.82088312 -0.30021349 196.13579396 0.8411454 208.60223389 7.14044189 C209.51746826 7.59161377 210.43270264 8.04278564 211.37567139 8.50762939 C213.79149329 9.70538984 216.19957696 10.9165415 218.60223389 12.14044189 C218.60223389 12.47044189 218.60223389 12.80044189 218.60223389 13.14044189 C214.68465597 12.82703566 212.18115399 12.56774006 208.97723389 10.20294189 C204.60502329 7.53103542 200.66817112 7.25334214 195.62567139 6.73028564 C192.37376328 6.09586946 191.17995376 5.1017505 188.60223389 3.14044189 C183.98851564 2.11348741 179.45682686 1.99874337 174.75263977 2.01345825 C173.98066079 2.01189826 173.2086818 2.01033827 172.41330951 2.00873101 C169.83637209 2.00475452 167.25949398 2.00789766 164.68255615 2.01104736 C162.83098313 2.00969183 160.97941038 2.00791103 159.12783813 2.0057373 C154.10514961 2.00118082 149.08248164 2.0029453 144.05979276 2.00611639 C138.80065941 2.00864957 133.54152782 2.00629974 128.28239441 2.00473022 C119.44979537 2.00291117 110.6172047 2.00530775 101.78460693 2.0100708 C91.57812122 2.01551123 81.37165548 2.01375129 71.16517025 2.0082444 C62.39813172 2.00370374 53.6310992 2.00306744 44.86405987 2.00568306 C39.62969729 2.0072408 34.3953441 2.00745339 29.16098213 2.00414658 C24.23867866 2.00125411 19.31640089 2.00326887 14.39410019 2.00904083 C12.58935908 2.01036112 10.7846158 2.00998674 8.97987556 2.00777817 C6.51282522 2.00503786 4.0458568 2.00848298 1.57881165 2.01345825 C0.86790503 2.01122753 0.15699841 2.00899681 -0.57545084 2.00669849 C-4.93481032 2.02370137 -9.09526837 2.46077822 -13.39776611 3.14044189 C-16.07716092 3.24796175 -18.7140866 3.18752399 -21.39776611 3.14044189 C-14.91486536 -0.45026935 -7.24608658 -0.00867628 0 0 Z " fill="#478BAF" transform="translate(149.39776611328125,70.85955810546875)"/>
<path d="M0 0 C2.0625 0.4375 2.0625 0.4375 4 1 C-0.5167684 5.5167684 -7.40886435 6.33687459 -13.57310498 6.39190602 C-14.35143181 6.38384962 -15.12975865 6.37579321 -15.93167114 6.36749268 C-16.7838009 6.37076152 -17.63593065 6.37403036 -18.51388252 6.37739825 C-21.3442393 6.3846302 -24.17407005 6.37056896 -27.00439453 6.35644531 C-29.04360034 6.35723687 -31.08280599 6.35933622 -33.12200928 6.36264038 C-38.64250391 6.3677606 -44.16281114 6.35426684 -49.6832757 6.33711338 C-55.46689544 6.32204313 -61.25051309 6.32325061 -67.03414917 6.32244873 C-76.74333889 6.31876008 -86.45245774 6.30381225 -96.16162109 6.28125 C-108.61838736 6.25236153 -121.07509665 6.24202423 -133.53189278 6.2375679 C-144.25118247 6.2335855 -154.97045983 6.22108571 -165.68974066 6.20722103 C-169.13123515 6.20312688 -172.57272922 6.20019883 -176.01422501 6.19742584 C-181.42329591 6.19252422 -186.8323325 6.18230624 -192.24138641 6.16798782 C-194.2251212 6.16347455 -196.2088606 6.16062846 -198.19260025 6.15958023 C-200.90253308 6.15782722 -203.61238089 6.14992528 -206.32229614 6.14044189 C-207.49647856 6.14174162 -207.49647856 6.14174162 -208.69438183 6.1430676 C-213.20299135 6.11943895 -217.57729057 5.97377198 -222 5 C-222.66 4.01 -223.32 3.02 -224 2 C-223.21415811 2.14118854 -222.42831621 2.28237707 -221.61866093 2.42784405 C-211.236434 4.1187254 -201.1188672 4.2906076 -190.62475586 4.2746582 C-188.71277163 4.27901482 -186.80078915 4.2842011 -184.8888092 4.29014587 C-179.73601718 4.30344165 -174.58329893 4.30412537 -169.43049312 4.30158257 C-165.11399491 4.30050692 -160.79751128 4.30541108 -156.48101622 4.310188 C-146.29324108 4.32124952 -136.10550283 4.32173884 -125.91772461 4.31567383 C-115.43621583 4.30962966 -104.95484115 4.32196406 -94.47335523 4.3432439 C-85.44363649 4.36089666 -76.4139603 4.36685566 -67.38422495 4.36360615 C-62.00443877 4.3617998 -56.62474837 4.36436496 -51.24497795 4.37832069 C-46.18623999 4.39095524 -41.12771045 4.388902 -36.06897545 4.37590981 C-34.22159503 4.3735571 -32.37419966 4.3762314 -30.5268364 4.38453293 C-20.3294983 4.42702461 -10.79971731 4.20549981 -1 1 C-0.67 0.67 -0.34 0.34 0 0 Z " fill="#D3FCFE" transform="translate(350,398)"/>
<path d="M0 0 C3 2 3 2 3.67830181 4.58610439 C4.05703401 8.60525102 4.14810942 12.5894633 4.14717102 16.62232971 C4.15084771 17.47739088 4.1545244 18.33245204 4.1583125 19.21342415 C4.16930378 22.07140676 4.17318531 24.92935297 4.17700195 27.78735352 C4.18326971 29.83921422 4.18991679 31.89107379 4.19691467 33.94293213 C4.21790842 40.6715822 4.22830802 47.40023238 4.23828125 54.12890625 C4.24232961 56.44614105 4.24644655 58.76337572 4.25063133 61.08061028 C4.26966732 71.9606112 4.28390553 82.84060537 4.2922433 93.72061974 C4.30203067 106.28435153 4.32839599 118.84790784 4.36874419 131.41157776 C4.39886439 141.12295069 4.41370801 150.83427316 4.41702431 160.54569191 C4.41937813 166.34680503 4.42838279 172.14773033 4.45348549 177.94879341 C4.47670154 183.4013943 4.48102552 188.85368276 4.47072411 194.30632019 C4.47022717 196.30864435 4.4765938 198.31098358 4.49028015 200.31326103 C4.50790466 203.0441031 4.50093989 205.77381219 4.48774719 208.50465393 C4.50420106 209.69648083 4.50420106 209.69648083 4.52098733 210.91238505 C4.46269389 215.90067574 3.53540309 218.46544944 0 222 C0.14262412 220.4372038 0.28925511 218.87477304 0.4375 217.3125 C0.51871094 216.44238281 0.59992188 215.57226562 0.68359375 214.67578125 C1 212 1 212 1.51141834 209.82518768 C2.13007474 206.24785232 2.14137249 202.73893736 2.13371277 199.12121582 C2.13597833 198.33390689 2.13824388 197.54659797 2.14057809 196.73543119 C2.14690219 194.10029854 2.14608973 191.46521753 2.14526367 188.83007812 C2.14825629 186.93912693 2.15165905 185.04817634 2.15544128 183.15722656 C2.16427835 178.02044669 2.16661937 172.88368348 2.16725707 167.74689674 C2.16796812 164.53409782 2.17010356 161.32130312 2.17275429 158.10850525 C2.18200906 146.88939139 2.1860893 135.67028942 2.18530273 124.45117188 C2.18470297 114.01248436 2.19523462 103.57384868 2.2110464 93.13517427 C2.22415295 84.16084441 2.22948527 75.18653141 2.22884732 66.21219206 C2.22859311 60.85800066 2.23140148 55.50385528 2.24202538 50.14967346 C2.25175801 45.10669124 2.25175033 40.0637985 2.24450874 35.02081299 C2.24346906 33.17827726 2.24578879 31.33573582 2.2518692 29.49320984 C2.28286171 19.44385228 1.95721692 9.89455031 0 0 Z " fill="#D6FEFE" transform="translate(400,126)"/>
<path d="M0 0 C0.92876953 -0.020625 1.85753906 -0.04125 2.81445312 -0.0625 C8.14443226 -0.09284864 11.98562797 0.18386784 16.5625 3.25 C17.0575 4.24 17.0575 4.24 17.5625 5.25 C22.34905805 4.96110084 22.34905805 4.96110084 26.375 2.6875 C26.766875 2.213125 27.15875 1.73875 27.5625 1.25 C28.2225 1.25 28.8825 1.25 29.5625 1.25 C28.89583333 4.58333333 28.22916667 7.91666667 27.5625 11.25 C28.5525 11.745 28.5525 11.745 29.5625 12.25 C29.5625 12.91 29.5625 13.57 29.5625 14.25 C30.5525 14.58 31.5425 14.91 32.5625 15.25 C34.09360158 17.27000017 35.42936835 19.22568989 36.75 21.375 C37.11802734 21.931875 37.48605469 22.48875 37.86523438 23.0625 C40.47258744 27.26135429 40.9415156 30.36629075 40.5625 35.25 C39.50666538 33.16699596 38.48519569 31.07975681 37.51953125 28.953125 C31.92207992 16.9558573 24.16440688 9.76159886 11.89453125 5.046875 C3.52741713 2.18776063 -8.41316079 1.36603918 -16.58203125 5.20703125 C-17.19433594 5.55121094 -17.80664062 5.89539063 -18.4375 6.25 C-19.24574219 6.68699219 -20.05398438 7.12398437 -20.88671875 7.57421875 C-26.26470705 10.63701926 -30.87180688 14.08132368 -35.4375 18.25 C-35.4375 16.93 -35.4375 15.61 -35.4375 14.25 C-34.7775 14.25 -34.1175 14.25 -33.4375 14.25 C-33.1075 12.6 -32.7775 10.95 -32.4375 9.25 C-31.1175 9.58 -29.7975 9.91 -28.4375 10.25 C-28.4375 9.59 -28.4375 8.93 -28.4375 8.25 C-27.4475 8.25 -26.4575 8.25 -25.4375 8.25 C-25.1075 7.26 -24.7775 6.27 -24.4375 5.25 C-22.546875 4.1171875 -22.546875 4.1171875 -20.1875 3.125 C-19.41921875 2.79242188 -18.6509375 2.45984375 -17.859375 2.1171875 C-11.96757451 0.00754281 -6.18458263 0.03419258 0 0 Z " fill="#1E82BB" transform="translate(338.4375,192.75)"/>
<path d="M0 0 C3.95681505 2.74649515 6.15007885 5.13773654 7.6875 9.75 C8.07362745 15.04802777 8.24653682 19.95180597 5.6875 24.75 C5.0275 24.75 4.3675 24.75 3.6875 24.75 C3.501875 25.348125 3.31625 25.94625 3.125 26.5625 C1.01158228 29.77857045 -1.72277998 30.79456121 -5.3125 31.75 C-11.24035916 32.72735312 -15.66474555 31.85349418 -20.58203125 28.359375 C-24.83287705 24.40599245 -26.50852204 19.86251629 -26.75 14.125 C-26.47437992 8.78715784 -24.85564231 5.25143576 -21 1.5 C-14.26608301 -2.88487618 -7.02515791 -4.18931435 0 0 Z M-21.3125 2.75 C-24.21953157 6.77670097 -25.67903469 10.51659701 -25.25 15.5 C-24.40746141 20.23741739 -24.40746141 20.23741739 -21.3125 23.75 C-17.68686186 24.08380814 -17.68686186 24.08380814 -14.3125 23.75 C-15.3025 26.225 -15.3025 26.225 -16.3125 28.75 C-13.66791621 30.07229189 -11.63488699 29.84677194 -8.6875 29.8125 C-7.68460938 29.80347656 -6.68171875 29.79445313 -5.6484375 29.78515625 C-4.49214844 29.76775391 -4.49214844 29.76775391 -3.3125 29.75 C-2.9825 29.09 -2.6525 28.43 -2.3125 27.75 C-1.6525 27.75 -0.9925 27.75 -0.3125 27.75 C3.13677806 25.13176562 5.38727252 22.29749606 6.21875 18.01171875 C6.3668676 13.45093085 6.25994385 10.63636467 3.75 6.75 C2.7290625 5.76 2.7290625 5.76 1.6875 4.75 C1.3575 3.76 1.0275 2.77 0.6875 1.75 C-5.93284577 -1.84390199 -14.71564059 -0.54842971 -21.3125 2.75 Z " fill="#2582B6" transform="translate(146.3125,222.25)"/>
<path d="M0 0 C0 0.33 0 0.66 0 1 C-1.13260254 0.99214478 -1.13260254 0.99214478 -2.28808594 0.98413086 C-5.77538184 0.96308775 -9.26266431 0.9502541 -12.75 0.9375 C-13.93722656 0.92912109 -15.12445313 0.92074219 -16.34765625 0.91210938 C-31.60552544 0.19350509 -31.60552544 0.19350509 -45 6 C-46.32676508 6.35858516 -47.65835921 6.7018576 -49 7 C-49.33 7.66 -49.66 8.32 -50 9 C-50.969375 9.433125 -51.93875 9.86625 -52.9375 10.3125 C-56.17522659 11.72400184 -56.17522659 11.72400184 -57.375 14.6875 C-57.58125 15.450625 -57.7875 16.21375 -58 17 C-60.31 16.67 -62.62 16.34 -65 16 C-61.87378374 12.60582235 -59.43458973 10.3937282 -55 9 C-55 8.34 -55 7.68 -55 7 C-41.83922495 -5.15588828 -15.84649728 -5.64027869 0 0 Z " fill="#C9ECF7" transform="translate(257,175)"/>
<path d="M0 0 C0.66 0 1.32 0 2 0 C2.04125 0.556875 2.0825 1.11375 2.125 1.6875 C3.43742507 5.15605198 6.16739671 6.69850982 9 9 C9.33 9.99 9.66 10.98 10 12 C12.31 12.33 14.62 12.66 17 13 C17.144375 13.7425 17.28875 14.485 17.4375 15.25 C19.83433854 19.46843583 23.47960483 20.56953312 28 22 C31.38015275 22.45671451 34.65850921 22.42969938 38.0625 22.3125 C38.90876953 22.30283203 39.75503906 22.29316406 40.62695312 22.28320312 C45.8166195 22.19117357 50.86265434 21.73051274 56 21 C55 23 55 23 52.953125 23.8515625 C41.94730573 27.00062639 29.89158638 27.78842773 19.35546875 22.73046875 C11.66046295 18.3071857 5.88546574 12.3784606 1 5 C0.2265625 2.1328125 0.2265625 2.1328125 0 0 Z " fill="#1D80B6" transform="translate(200,251)"/>
<path d="M0 0 C2 1 2 1 3.5625 4.0625 C7.64683384 11.44163103 15.08705508 17.20458581 23 20 C29.54982314 21.78042968 36.25075267 22.45431617 43 23 C43 23.33 43 23.66 43 24 C33.73177261 24.46600026 21.74765664 24.49096453 13.5625 19.51953125 C13.046875 19.01808594 12.53125 18.51664062 12 18 C12 17.34 12 16.68 12 16 C11.4225 15.731875 10.845 15.46375 10.25 15.1875 C7.90365177 13.94914955 5.94792248 12.80878516 4 11 C4 9.68 4 8.36 4 7 C2.35 6.67 0.7 6.34 -1 6 C-0.72382467 7.94074861 -0.72382467 7.94074861 0 10 C0.99 10.66 1.98 11.32 3 12 C2.67 13.65 2.34 15.3 2 17 C0.68 16.67 -0.64 16.34 -2 16 C-2 15.01 -2 14.02 -2 13 C-2.45375 13.495 -2.9075 13.99 -3.375 14.5 C-5 16 -5 16 -7 16 C-5.35433477 10.31497465 -2.70967216 5.23318364 0 0 Z " fill="#2F87B9" transform="translate(299,256)"/>
<path d="M0 0 C3.00097623 1.50048811 3.51090421 4.02180843 5 7 C5.87591139 8.26403979 6.77224626 9.5141489 7.6875 10.75 C10 14 10 14 10 16 C10.99 16.33 11.98 16.66 13 17 C14.66666667 18.66666667 16.33333333 20.33333333 18 22 C19.6396875 23.0828125 19.6396875 23.0828125 21.3125 24.1875 C22.199375 24.785625 23.08625 25.38375 24 26 C24 26.66 24 27.32 24 28 C27.8448735 29.54513608 31.69959755 31.06299557 35.5625 32.5625 C36.67753906 32.99691406 37.79257813 33.43132812 38.94140625 33.87890625 C43.30025875 35.47659548 46.99183758 36.1433131 51.640625 36.31640625 C52.71054688 36.35830078 53.78046875 36.40019531 54.8828125 36.44335938 C56.54957031 36.50233398 56.54957031 36.50233398 58.25 36.5625 C59.93996094 36.62727539 59.93996094 36.62727539 61.6640625 36.69335938 C64.44258954 36.79932015 67.22120391 36.90139142 70 37 C70 37.33 70 37.66 70 38 C60.1 38 50.2 38 40 38 C40 37.34 40 36.68 40 36 C38.68 36 37.36 36 36 36 C36 35.34 36 34.68 36 34 C35.01 34.1546875 35.01 34.1546875 34 34.3125 C30.76309264 33.97532215 29.7386248 33.30512997 27.125 31.5 C23.14868175 28.81636316 20.72524161 28.50778733 16 29 C16 26 16 26 17 23 C16.0925 22.814375 15.185 22.62875 14.25 22.4375 C9.78463646 20.46243536 9.18214598 18.28635817 7 14 C6.34 13.67 5.68 13.34 5 13 C4.5 11 4.5 11 4 9 C3.34 8.67 2.68 8.34 2 8 C1.3671875 6.15234375 1.3671875 6.15234375 0.875 3.9375 C0.70742187 3.20402344 0.53984375 2.47054688 0.3671875 1.71484375 C0.24601563 1.14894531 0.12484375 0.58304687 0 0 Z " fill="#2683B8" transform="translate(178,264)"/>
<path d="M0 0 C0.7734375 0.09023437 1.546875 0.18046875 2.34375 0.2734375 C4.5 0.625 4.5 0.625 7.5 1.625 C7.5 2.945 7.5 4.265 7.5 5.625 C6.2625 5.13 6.2625 5.13 5 4.625 C-1.36879905 2.80534313 -6.68079909 3.12566033 -12.73828125 5.63671875 C-16.49674039 7.74512266 -18.17500446 10.65001337 -19.5 14.625 C-19.97683858 20.34706293 -19.34371027 25.2091011 -17.5 30.625 C-18.49 30.295 -19.48 29.965 -20.5 29.625 C-20.5 28.635 -20.5 27.645 -20.5 26.625 C-21.16 26.625 -21.82 26.625 -22.5 26.625 C-22.56058594 26.01011719 -22.62117188 25.39523438 -22.68359375 24.76171875 C-22.76738281 23.95347656 -22.85117188 23.14523438 -22.9375 22.3125 C-23.01871094 21.51199219 -23.09992188 20.71148437 -23.18359375 19.88671875 C-23.45265693 17.46412821 -23.45265693 17.46412821 -24.5 14.625 C-23.4375 12.375 -23.4375 12.375 -21.5 9.625 C-21.08492188 9.00496094 -20.66984375 8.38492188 -20.2421875 7.74609375 C-16.62681786 2.85645448 -16.62681786 2.85645448 -13.33203125 2.1796875 C-11.125 2.1875 -11.125 2.1875 -7.5 2.625 C-7.5 1.965 -7.5 1.305 -7.5 0.625 C-4.46268644 -0.38743785 -3.09613977 -0.38185724 0 0 Z " fill="#D1F2FB" transform="translate(140.5,217.375)"/>
<path d="M0 0 C6.70919208 4.90916494 13.24008615 12.10574683 14.7890625 20.5390625 C15.56504592 29.59220243 16.29764591 38.73529632 12 47 C11.34 47.66 10.68 48.32 10 49 C9.95745644 47.00045254 9.95919217 44.99958364 10 43 C10.495 42.505 10.495 42.505 11 42 C12.31814171 30.08666863 11.27717735 19.77928358 6 9 C5.67 8.01 5.34 7.02 5 6 C4.01 5.67 3.02 5.34 2 5 C2 4.34 2 3.68 2 3 C1.34 3 0.68 3 0 3 C0 2.01 0 1.02 0 0 Z " fill="#2B86B6" transform="translate(262,206)"/>
<path d="M0 0 C0 0.66 0 1.32 0 2 C1.32 2.33 2.64 2.66 4 3 C4 4.32 4 5.64 4 7 C2.88625 6.5359375 2.88625 6.5359375 1.75 6.0625 C-3.44702225 4.59001036 -8.62487263 4.33050945 -14 4 C-14 4.66 -14 5.32 -14 6 C-14.928125 6.598125 -15.85625 7.19625 -16.8125 7.8125 C-20.22990519 10.15777807 -21.52985922 11.16129908 -23 15 C-23.95215206 22.4761569 -22.87214512 27.58675964 -19 34 C-21.16874252 33.49396008 -22.99967627 33.00016187 -25 32 C-25.05410136 28.93726169 -25.09372225 25.87548548 -25.125 22.8125 C-25.15013672 21.51602539 -25.15013672 21.51602539 -25.17578125 20.19335938 C-25.21038233 15.67791897 -25.15567916 12.09918517 -23 8 C-22.34 8 -21.68 8 -21 8 C-20.67 6.68 -20.34 5.36 -20 4 C-20 4.66 -20 5.32 -20 6 C-19.34 6 -18.68 6 -18 6 C-18 5.01 -18 4.02 -18 3 C-15.101018 1.550509 -12.20360214 1.3806212 -9 0.9375 C-7.741875 0.76089844 -6.48375 0.58429688 -5.1875 0.40234375 C-2 0 -2 0 0 0 Z " fill="#D8F3FB" transform="translate(344,216)"/>
<path d="M0 0 C7.10274378 -0.53270578 12.55266555 -0.70725291 18.4375 3.6328125 C20.33821802 5.29594076 21.86239648 6.72479297 23 9 C22.67 9.99 22.34 10.98 22 12 C21.67 11.34 21.34 10.68 21 10 C20.01 9.67 19.02 9.34 18 9 C17.67 7.35 17.34 5.7 17 4 C15.35 4 13.7 4 12 4 C12 3.34 12 2.68 12 2 C3.15702944 2.6265519 3.15702944 2.6265519 -4.8125 6.0625 C-7.4878295 9.65508534 -7.48589983 11.66450198 -7.11328125 16.01171875 C-7 18 -7 18 -8 20 C-7.34 20 -6.68 20 -6 20 C-5.34 22.64 -4.68 25.28 -4 28 C-4.99 28 -5.98 28 -7 28 C-10.56273211 22.50745466 -10.70748165 17.33826028 -10 11 C-8.30610636 6.80984204 -5.69357696 4.55709174 -2 2 C-1.34 2 -0.68 2 0 2 C0 1.34 0 0.68 0 0 Z " fill="#3189B4" transform="translate(330,220)"/>
<path d="M0 0 C0 0.66 0 1.32 0 2 C-0.99 2.33 -1.98 2.66 -3 3 C-4.16953416 5.42383077 -4.16953416 5.42383077 -5 8 C-5.33 8.66 -5.66 9.32 -6 10 C-8.64 10 -11.28 10 -14 10 C-13.67 11.98 -13.34 13.96 -13 16 C-14.98 16.99 -14.98 16.99 -17 18 C-16.67 19.65 -16.34 21.3 -16 23 C-16.99 23 -17.98 23 -19 23 C-19 22.34 -19 21.68 -19 21 C-20.32 21 -21.64 21 -23 21 C-23 21.99 -23 22.98 -23 24 C-24.65 24.66 -26.3 25.32 -28 26 C-24.95153445 17.29663086 -10.11338025 0 0 0 Z " fill="#0A80BD" transform="translate(112,80)"/>
<path d="M0 0 C9.00178391 2.86420397 13.55609909 7.16701567 19.5703125 14.3515625 C20.98125352 15.9783852 22.45964664 17.49610471 24 19 C24.0825 18.113125 24.165 17.22625 24.25 16.3125 C25.0934086 12.58744536 26.45552764 10.79071162 29 8 C28.8864371 9.64666203 28.75882619 11.29236082 28.625 12.9375 C28.55539063 13.85402344 28.48578125 14.77054688 28.4140625 15.71484375 C28.27742188 16.46894531 28.14078125 17.22304687 28 18 C27.34 18.33 26.68 18.66 26 19 C25.67 19.99 25.34 20.98 25 22 C23.68 22 22.36 22 21 22 C21 21.01 21 20.02 21 19 C20.01 19 19.02 19 18 19 C14 13.85714286 14 13.85714286 14 10 C12.824375 9.9071875 12.824375 9.9071875 11.625 9.8125 C10.75875 9.544375 9.8925 9.27625 9 9 C8.690625 8.175 8.38125 7.35 8.0625 6.5 C7.711875 5.675 7.36125 4.85 7 4 C3.94727535 3.10169161 3.94727535 3.10169161 1 3 C0.67 2.01 0.34 1.02 0 0 Z " fill="#C7E9F7" transform="translate(152,198)"/>
<path d="M0 0 C2.97 0 5.94 0 9 0 C7.26523713 3.46952573 3.6342031 4.08261297 0.11132812 5.29833984 C-15.30185081 9.90469857 -33.44008378 8.72735403 -48 2 C-44.53110711 0.84096233 -41.94327972 1.14404868 -38.375 1.8125 C-36.93253906 2.06966797 -36.93253906 2.06966797 -35.4609375 2.33203125 C-33 3 -33 3 -31 5 C-28.6754661 5.37051993 -28.6754661 5.37051993 -25.9921875 5.4140625 C-24.51298828 5.47207031 -24.51298828 5.47207031 -23.00390625 5.53125 C-21.97136719 5.5621875 -20.93882812 5.593125 -19.875 5.625 C-18.83472656 5.66367187 -17.79445312 5.70234375 -16.72265625 5.7421875 C-14.14861689 5.83664766 -11.57458845 5.92221214 -9 6 C-9 5.34 -9 4.68 -9 4 C-6.36 3.67 -3.72 3.34 -1 3 C-0.67 2.01 -0.34 1.02 0 0 Z " fill="#D3F6FC" transform="translate(257,294)"/>
<path d="M0 0 C-0.58007812 0.30292969 -1.16015625 0.60585937 -1.7578125 0.91796875 C-10.08496308 5.12217924 -10.08496308 5.12217924 -16 12 C-16.66 12 -17.32 12 -18 12 C-18.2475 12.515625 -18.495 13.03125 -18.75 13.5625 C-20 16 -20 16 -22 19.25 C-26.53179439 27.25223916 -26.52030245 36.0119827 -27 45 C-27.33 45 -27.66 45 -28 45 C-28 38.73 -28 32.46 -28 26 C-27.34 26 -26.68 26 -26 26 C-25.95875 25.030625 -25.9175 24.06125 -25.875 23.0625 C-25.1685709 17.98244368 -22.30326858 13.82916209 -19 10 C-18.01 9.67 -17.02 9.34 -16 9 C-16 8.34 -16 7.68 -16 7 C-15.34 7 -14.68 7 -14 7 C-13.67 6.01 -13.34 5.02 -13 4 C-12.01 4 -11.02 4 -10 4 C-10 3.01 -10 2.02 -10 1 C-6.16112237 -0.48320272 -3.93795909 -1.22419163 0 0 Z " fill="#2685B7" transform="translate(122,198)"/>
<path d="M0 0 C-0.33 1.32 -0.66 2.64 -1 4 C-1.66 4 -2.32 4 -3 4 C-3.2578125 4.53882813 -3.515625 5.07765625 -3.78125 5.6328125 C-5.77674672 9.50868112 -8.09173402 13.19859323 -10.34375 16.9296875 C-11.95056341 19.90835575 -13.03390608 22.76358536 -14 26 C-17.44405216 24.85198261 -17.88503211 24.08639917 -19.875 21.1875 C-22.26557074 17.84667739 -24.72448952 15.50480213 -28 13 C-28 12.34 -28 11.68 -28 11 C-28.66 10.67 -29.32 10.34 -30 10 C-27.525 10.495 -27.525 10.495 -25 11 C-25 11.66 -25 12.32 -25 13 C-24.01 13.33 -23.02 13.66 -22 14 C-22 14.66 -22 15.32 -22 16 C-21.38125 16.0825 -20.7625 16.165 -20.125 16.25 C-18 17 -18 17 -16.75 19.0625 C-16.5025 19.701875 -16.255 20.34125 -16 21 C-12.95950199 17.35140239 -11.03481238 13.2555467 -9 9 C-8.34 9 -7.68 9 -7 9 C-7 7.68 -7 6.36 -7 5 C-2.68181818 0 -2.68181818 0 0 0 Z " fill="#2180B1" transform="translate(190,191)"/>
<path d="M0 0 C1.1015625 1.64453125 1.1015625 1.64453125 2 4 C1.1692449 8.15979547 -0.47530345 12.04782604 -2 16 C-2.268125 16.76828125 -2.53625 17.5365625 -2.8125 18.328125 C-5.69870781 25.82116451 -10.99796768 31.8238265 -16 38 C-16.6328125 36.17578125 -16.6328125 36.17578125 -17 34 C-14.875 31.1875 -14.875 31.1875 -13.46875 29.63671875 C-7.07695244 22.51394434 -3.61766919 15.5845219 -3 6 C-2.01 6 -1.02 6 0 6 C0 4.02 0 2.04 0 0 Z " fill="#2A82B5" transform="translate(399,340)"/>
<path d="M0 0 C0.33 0 0.66 0 1 0 C1.03738281 1.07378906 1.07476562 2.14757812 1.11328125 3.25390625 C1.17899112 4.6901362 1.24543668 6.12633262 1.3125 7.5625 C1.33505859 8.26697266 1.35761719 8.97144531 1.38085938 9.69726562 C1.56753215 13.37981038 1.98935054 16.35611532 3.5234375 19.73046875 C4.90389688 22.78720024 5.29558325 24.47942912 5.3125 27.75 C5.68355112 33.1508552 7.82404069 36.8987393 10.625 41.45703125 C12.01144054 44.02115849 12.58793023 46.13096422 13 49 C12.34 48.67 11.68 48.34 11 48 C11 47.34 11 46.68 11 46 C10.34 46 9.68 46 9 46 C1.19563628 30.32730236 -0.64259894 17.26613915 0 0 Z " fill="#247FB4" transform="translate(72,320)"/>
<path d="M0 0 C2.54405787 0.59522494 5.0848917 1.20082769 7.625 1.8125 C8.69427734 2.0609668 8.69427734 2.0609668 9.78515625 2.31445312 C14.19716375 3.38709715 17.99058318 4.79292355 22 7 C22 7.66 22 8.32 22 9 C22.69867188 8.96519531 23.39734375 8.93039062 24.1171875 8.89453125 C25.48230469 8.85392578 25.48230469 8.85392578 26.875 8.8125 C27.77992188 8.77769531 28.68484375 8.74289062 29.6171875 8.70703125 C30.79667969 8.85205078 30.79667969 8.85205078 32 9 C32.66 9.99 33.32 10.98 34 12 C28.11921497 12.23681014 23.44715448 11.58591217 17.875 9.75 C17.19824219 9.54503906 16.52148438 9.34007812 15.82421875 9.12890625 C11.35023057 7.70103768 7.84607289 5.7601229 4 3 C2.6808418 2.30570621 1.35350594 1.62469505 0 1 C0 0.67 0 0.34 0 0 Z " fill="#2786B7" transform="translate(106,390)"/>
<path d="M0 0 C5.74268319 4.92229988 9.43326312 11.58388394 11 19 C11.21280729 22.03938882 11.18509387 25.07884246 11.1875 28.125 C11.19974609 28.94871094 11.21199219 29.77242187 11.22460938 30.62109375 C11.22983265 32.74870714 11.1226232 34.87591677 11 37 C10.34 37.66 9.68 38.32 9 39 C8.67 31.08 8.34 23.16 8 15 C7.34 15 6.68 15 6 15 C5.67 14.01 5.34 13.02 5 12 C4.34 12 3.68 12 3 12 C3 9.69 3 7.38 3 5 C2.34 5 1.68 5 1 5 C0.67 3.35 0.34 1.7 0 0 Z " fill="#B1E1F4" transform="translate(368,209)"/>
<path d="M0 0 C0 2.62113708 -0.31292445 4.50935112 -1 7 C-1.66 7 -2.32 7 -3 7 C-2.938125 8.175625 -2.938125 8.175625 -2.875 9.375 C-3 12 -3 12 -5 14 C-5.6425235 16.06874034 -5.6425235 16.06874034 -6 18 C-6.66 18 -7.32 18 -8 18 C-7.89171875 19.12535156 -7.89171875 19.12535156 -7.78125 20.2734375 C-7.18281132 26.87288627 -6.86807783 33.37457568 -7 40 C-10.62881694 36.37118306 -10.21420178 30.81026851 -10.375 25.875 C-10.3120395 16.69326069 -6.632037 6.632037 0 0 Z " fill="#4192C1" transform="translate(207,210)"/>
<path d="M0 0 C1.32 0.33 2.64 0.66 4 1 C2.90241493 1.84198307 1.79664683 2.67330671 0.6875 3.5 C0.07261719 3.9640625 -0.54226563 4.428125 -1.17578125 4.90625 C-3 6 -3 6 -6 6 C-6 6.66 -6 7.32 -6 8 C-10 9.33333333 -14 10.66666667 -18 12 C-19.0725 12.391875 -20.145 12.78375 -21.25 13.1875 C-24 14 -24 14 -26.375 13.125 C-26.91125 12.75375 -27.4475 12.3825 -28 12 C-27.030625 11.71125 -26.06125 11.4225 -25.0625 11.125 C-21.89335797 10.35785318 -21.89335797 10.35785318 -21 8 C-19.25 7.76171875 -19.25 7.76171875 -17 7.6875 C-12.19371841 7.28825616 -8.98069348 5.61144229 -4.9453125 3.05859375 C-3 2 -3 2 0 2 C0 1.34 0 0.68 0 0 Z " fill="#2780B1" transform="translate(368,387)"/>
<path d="M0 0 C2 2 2 2 2 5 C2.66 5 3.32 5 4 5 C5.2890625 6.75 5.2890625 6.75 6.625 9 C7.07101563 9.7425 7.51703125 10.485 7.9765625 11.25 C8.31429687 11.8275 8.65203125 12.405 9 13 C8.04578192 14.14926266 7.08647955 15.29430541 6.125 16.4375 C5.59132813 17.07558594 5.05765625 17.71367187 4.5078125 18.37109375 C3 20 3 20 1 21 C1.01160156 19.92878906 1.02320312 18.85757812 1.03515625 17.75390625 C1.04453299 16.35677257 1.05363331 14.95963701 1.0625 13.5625 C1.07087891 12.85544922 1.07925781 12.14839844 1.08789062 11.41992188 C1.09653588 9.61306441 1.05220011 7.80612397 1 6 C0.67 5.67 0.34 5.34 0 5 C-0.04063832 3.33382885 -0.042721 1.66611905 0 0 Z " fill="#F4FAF5" transform="translate(79,361)"/>
<path d="M0 0 C0.33 0 0.66 0 1 0 C1.37031063 6.04840703 1.11427681 10.6019202 -2 16 C-5.5783905 19.86907208 -8.92572166 21.65336233 -14.11328125 22.23828125 C-19.9699035 22.43592925 -23.15864277 21.29624322 -28 18 C-25 17 -25 17 -23.109375 17.8984375 C-22.41328125 18.26195312 -21.7171875 18.62546875 -21 19 C-18.64435404 19.44811137 -18.64435404 19.44811137 -16.25 19.625 C-15.45078125 19.69976562 -14.6515625 19.77453125 -13.828125 19.8515625 C-13.22484375 19.90054688 -12.6215625 19.94953125 -12 20 C-12 19.34 -12 18.68 -12 18 C-11.05125 17.731875 -10.1025 17.46375 -9.125 17.1875 C-5.74732727 16.25013412 -5.74732727 16.25013412 -4 13 C-3.34 13 -2.68 13 -2 13 C-1.34 8.71 -0.68 4.42 0 0 Z " fill="#2D83B3" transform="translate(353,232)"/>
<path d="M0 0 C5.75 1.75 5.75 1.75 8 4 C10.06874034 4.6425235 10.06874034 4.6425235 12 5 C12 6.32 12 7.64 12 9 C16.29 9.99 20.58 10.98 25 12 C25 12.99 25 13.98 25 15 C14.24713837 14.1039282 7.47230889 8.54886943 0 1 C0 0.67 0 0.34 0 0 Z " fill="#C8EDF7" transform="translate(304,263)"/>
<path d="M0 0 C0.33 0.66 0.66 1.32 1 2 C3.8139349 3.01960616 6.66097788 3.86000507 9.53125 4.70703125 C12 6 12 6 12.84375 8.63671875 C12.8953125 9.41660156 12.946875 10.19648438 13 11 C12.39414062 10.60167969 11.78828125 10.20335937 11.1640625 9.79296875 C0.95371664 3.33688852 -7.9941799 1.5457191 -20 1 C-13.69769803 -3.20153465 -6.99717935 -2.0383606 0 0 Z " fill="#DBFAFD" transform="translate(251,196)"/>
<path d="M0 0 C1.08667969 0.52400391 1.08667969 0.52400391 2.1953125 1.05859375 C3.64550781 1.74115234 3.64550781 1.74115234 5.125 2.4375 C6.55199219 3.11619141 6.55199219 3.11619141 8.0078125 3.80859375 C13.90679522 6.15740541 19.62755711 6.13132776 25.875 6.0625 C27.050625 6.05573242 27.050625 6.05573242 28.25 6.04882812 C30.16670014 6.03714093 32.08336048 6.01920908 34 6 C33.34 6.33 32.68 6.66 32 7 C32 7.66 32 8.32 32 9 C29.27132267 9.22262638 26.54308042 9.42852324 23.8125 9.625 C23.04357422 9.68945312 22.27464844 9.75390625 21.48242188 9.8203125 C17.11875319 10.11996357 13.98914662 10.09450183 10 8 C10 7.34 10 6.68 10 6 C8.35 6 6.7 6 5 6 C5 5.34 5 4.68 5 4 C4.360625 3.896875 3.72125 3.79375 3.0625 3.6875 C2.381875 3.460625 1.70125 3.23375 1 3 C0.67 2.01 0.34 1.02 0 0 Z " fill="#D6F7FD" transform="translate(214,270)"/>
<path d="M0 0 C0.66 0 1.32 0 2 0 C2.66 2.31 3.32 4.62 4 7 C3.34 7.66 2.68 8.32 2 9 C1.67 8.01 1.34 7.02 1 6 C0.34 6 -0.32 6 -1 6 C-0.814375 6.598125 -0.62875 7.19625 -0.4375 7.8125 C0 10 0 10 -1 13 C-3.31 13 -5.62 13 -8 13 C-8.33 13.99 -8.66 14.98 -9 16 C-9.99 15.34 -10.98 14.68 -12 14 C-11.319375 13.54625 -10.63875 13.0925 -9.9375 12.625 C-6.41584699 9.47799093 -4.11859628 5.98684839 -1.55078125 2.046875 C-1.03902344 1.37140625 -0.52726563 0.6959375 0 0 Z " fill="#067FBA" transform="translate(174,256)"/>
<path d="M0 0 C1 3 1 3 0 6 C-0.639375 6.144375 -1.27875 6.28875 -1.9375 6.4375 C-2.9584375 6.7159375 -2.9584375 6.7159375 -4 7 C-4.70151152 8.3153341 -5.36525925 9.65117592 -6 11 C-10.26704366 15.10900501 -15.67582224 16.11480234 -21.4375 16.125 C-22.613125 16.08375 -23.78875 16.0425 -25 16 C-25 15.67 -25 15.34 -25 15 C-24.45472656 14.84144531 -23.90945313 14.68289063 -23.34765625 14.51953125 C-14.60167379 11.81350933 -5.23121035 7.84681552 0 0 Z " fill="#2B89BE" transform="translate(369,263)"/>
<path d="M0 0 C1.32 0 2.64 0 4 0 C4 0.99 4 1.98 4 3 C3.01 3.33 2.02 3.66 1 4 C1.33 6.64 1.66 9.28 2 12 C2.66 12 3.32 12 4 12 C4.99 14.31 5.98 16.62 7 19 C7.99 19 8.98 19 10 19 C9.67 20.65 9.34 22.3 9 24 C8.01 24.33 7.02 24.66 6 25 C5.79246094 24.32195312 5.58492188 23.64390625 5.37109375 22.9453125 C2.97240571 15.69906663 -0.34448913 10.02862503 -5 4 C-4.360625 3.71125 -3.72125 3.4225 -3.0625 3.125 C-0.84793921 2.17176549 -0.84793921 2.17176549 0 0 Z " fill="#2983AF" transform="translate(292,192)"/>
<path d="M0 0 C0.66 0.99 1.32 1.98 2 3 C-0.3125 5.5 -0.3125 5.5 -3 8 C-3.99 8 -4.98 8 -6 8 C-6.33 8.99 -6.66 9.98 -7 11 C-10.10523354 10.91911825 -13.20850333 10.8062811 -16.3125 10.6875 C-17.63411133 10.65366211 -17.63411133 10.65366211 -18.98242188 10.61914062 C-19.82998047 10.58369141 -20.67753906 10.54824219 -21.55078125 10.51171875 C-22.72120972 10.47244263 -22.72120972 10.47244263 -23.9152832 10.43237305 C-26.48457303 9.89949891 -27.4394628 9.08272305 -29 7 C-28.6875 4.8125 -28.6875 4.8125 -28 3 C-27.52691406 3.3609375 -27.05382812 3.721875 -26.56640625 4.09375 C-21.33689209 7.7635845 -17.35803399 9.05967233 -11 8 C-6.89159751 6.83621298 -4.44074682 5.66112023 -2 2 C-1.34 2 -0.68 2 0 2 C0 1.34 0 0.68 0 0 Z " fill="#B3DEEF" transform="translate(152,245)"/>
<path d="M0 0 C1.32 0.33 2.64 0.66 4 1 C4 2.32 4 3.64 4 5 C4.66 5 5.32 5 6 5 C9.94044206 14.38603151 11.32436742 22.958534 8.0703125 32.81640625 C7 35 7 35 5 36 C5.15984375 35.33484375 5.3196875 34.6696875 5.484375 33.984375 C7.60511212 21.70980563 5.8734992 10.90792708 0 0 Z " fill="#D1F6FD" transform="translate(270,214)"/>
<path d="M0 0 C0.66 0 1.32 0 2 0 C2.33 7.92 2.66 15.84 3 24 C1.68 24 0.36 24 -1 24 C-1.02901394 20.5625177 -1.04680335 17.12506688 -1.0625 13.6875 C-1.07087891 12.71103516 -1.07925781 11.73457031 -1.08789062 10.72851562 C-1.09111328 9.79072266 -1.09433594 8.85292969 -1.09765625 7.88671875 C-1.10551147 6.59060669 -1.10551147 6.59060669 -1.11352539 5.26831055 C-1 3 -1 3 0 0 Z " fill="#0A7DB9" transform="translate(92,224)"/>
<path d="M0 0 C2.39361974 2.94599352 4.69416934 5.93933181 6.9375 9 C9.40062787 12.3092405 11.99854697 15.17510303 15 18 C13.68 18 12.36 18 11 18 C11 17.34 11 16.68 11 16 C9.35 15.67 7.7 15.34 6 15 C5.67 15.66 5.34 16.32 5 17 C4.34 16.01 3.68 15.02 3 14 C3.875 11.3125 3.875 11.3125 5 9 C3.68 8.67 2.36 8.34 1 8 C1 8.66 1 9.32 1 10 C0.01 10 -0.98 10 -2 10 C-1.34 6.7 -0.68 3.4 0 0 Z " fill="#2284BC" transform="translate(98,254)"/>
<path d="M0 0 C1 3 1 3 -0.0390625 5.70703125 C-4.93707615 15.29796931 -9.39543037 21.67880425 -19 27 C-19.66 27 -20.32 27 -21 27 C-20.505 25.515 -20.505 25.515 -20 24 C-18.68 24 -17.36 24 -16 24 C-16 23.01 -16 22.02 -16 21 C-14.35 20.67 -12.7 20.34 -11 20 C-11.33 19.01 -11.66 18.02 -12 17 C-11.01 17 -10.02 17 -9 17 C-8.87625 16.360625 -8.7525 15.72125 -8.625 15.0625 C-8.41875 14.381875 -8.2125 13.70125 -8 13 C-7.34 12.67 -6.68 12.34 -6 12 C-5.67 11.01 -5.34 10.02 -5 9 C-4.34 9 -3.68 9 -3 9 C-2.87625 8.071875 -2.7525 7.14375 -2.625 6.1875 C-2 3 -2 3 0 0 Z " fill="#D5F7FC" transform="translate(376,247)"/>
<path d="M0 0 C0.66 0 1.32 0 2 0 C1.29445932 3.66881155 -0.27735506 6.70450534 -2 10 C-2.66 10 -3.32 10 -4 10 C-4.226875 10.556875 -4.45375 11.11375 -4.6875 11.6875 C-6.92538376 15.63043806 -9.38810145 18.53434042 -13.8125 19.8125 C-14.534375 19.874375 -15.25625 19.93625 -16 20 C-15.175 19.05125 -14.35 18.1025 -13.5 17.125 C-8.77601659 11.61368602 -4.0289739 6.04346085 0 0 Z " fill="#C9EDF8" transform="translate(391,366)"/>
<path d="M0 0 C1.88428711 0.01353516 1.88428711 0.01353516 3.80664062 0.02734375 C6.89212522 0.05080751 9.97721205 0.08363799 13.0625 0.125 C13.0625 0.785 13.0625 1.445 13.0625 2.125 C15.0425 2.125 17.0225 2.125 19.0625 2.125 C19.5575 3.115 19.5575 3.115 20.0625 4.125 C18.60369891 3.98392253 17.14546449 3.83697585 15.6875 3.6875 C14.46933594 3.56568359 14.46933594 3.56568359 13.2265625 3.44140625 C11.0625 3.125 11.0625 3.125 9.0625 2.125 C6.54890461 1.99873294 4.0764642 1.93520728 1.5625 1.9375 C0.84288086 1.93685547 0.12326172 1.93621094 -0.61816406 1.93554688 C-5.54434841 1.98412422 -10.1287742 2.48084525 -14.921875 3.6875 C-16.9375 4.125 -16.9375 4.125 -20.9375 4.125 C-20.9375 3.465 -20.9375 2.805 -20.9375 2.125 C-14.0612526 -0.4701959 -7.26933682 -0.09910999 0 0 Z " fill="#2986BC" transform="translate(236.9375,170.875)"/>
<path d="M0 0 C2.0625 0.4375 2.0625 0.4375 4 1 C-0.98990691 5.98990691 -7.96960862 6.2608618 -14.66015625 6.29296875 C-17.46163586 6.28404856 -20.26151521 6.23833399 -23.0625 6.1875 C-24.51496005 6.17242256 -25.96743527 6.15873958 -27.41992188 6.14648438 C-30.94693457 6.11372861 -34.47336785 6.06211664 -38 6 C-38 5.67 -38 5.34 -38 5 C-37.01157104 4.97812622 -37.01157104 4.97812622 -36.00317383 4.95581055 C-16.99929577 5.88166106 -16.99929577 5.88166106 0 0 Z " fill="#D5FAFE" transform="translate(350,398)"/>
<path d="M0 0 C1.32 0.33 2.64 0.66 4 1 C3.01 1.33 2.02 1.66 1 2 C1.27617533 3.94074861 1.27617533 3.94074861 2 6 C2.99 6.66 3.98 7.32 5 8 C4.67 9.65 4.34 11.3 4 13 C2.68 12.67 1.36 12.34 0 12 C0 11.01 0 10.02 0 9 C-0.45375 9.495 -0.9075 9.99 -1.375 10.5 C-3 12 -3 12 -5 12 C-3.68938409 7.76570244 -2.05643741 3.92592596 0 0 Z " fill="#0983BA" transform="translate(297,260)"/>
<path d="M0 0 C0.969375 0.495 1.93875 0.99 2.9375 1.5 C9.70329222 4.38400436 16.23066517 3.30445441 23 1 C22.67 2.32 22.34 3.64 22 5 C15.840691 7.01120294 10.76002044 8.20437256 4.5625 5.5 C3.716875 5.005 2.87125 4.51 2 4 C2 3.34 2 2.68 2 2 C1.34 2 0.68 2 0 2 C0 1.34 0 0.68 0 0 Z " fill="#BFE5F1" transform="translate(325,250)"/>
<path d="M0 0 C0.33 0 0.66 0 1 0 C1 5.28 1 10.56 1 16 C0.34 16 -0.32 16 -1 16 C-1.17015625 16.81984375 -1.3403125 17.6396875 -1.515625 18.484375 C-1.75796875 19.56203125 -2.0003125 20.6396875 -2.25 21.75 C-2.48203125 22.81734375 -2.7140625 23.8846875 -2.953125 24.984375 C-4.09308628 28.26814405 -5.38117228 29.77074995 -8 32 C-9.16775826 28.53561886 -9.05599127 28.12009721 -7.3828125 24.53125 C-6.63575671 23.18440749 -5.88284439 21.84080162 -5.125 20.5 C-1.4521881 13.66831916 0.23854353 7.87193658 0 0 Z " fill="#3287B6" transform="translate(379,234)"/>
<path d="M0 0 C1.65 0 3.3 0 5 0 C4.67566492 5.35152885 1.50295176 8.28280043 -2 12 C-2.28875 11.38125 -2.5775 10.7625 -2.875 10.125 C-3.93720042 7.86674235 -3.93720042 7.86674235 -6 6 C-6 5.01 -6 4.02 -6 3 C-3.23723823 3.52268466 -0.6739124 4.10869587 2 5 C2 4.01 2 3.02 2 2 C1.34 2 0.68 2 0 2 C0 1.34 0 0.68 0 0 Z " fill="#1484B9" transform="translate(265,256)"/>
<path d="M0 0 C0.66 0 1.32 0 2 0 C2 0.66 2 1.32 2 2 C2.66 2 3.32 2 4 2 C5.27138384 7.44034013 5.3703321 12.55945528 4 18 C2.17421264 20.36845194 0.58930328 21.40234478 -2 23 C-2.66 22.67 -3.32 22.34 -4 22 C-3.54625 21.62875 -3.0925 21.2575 -2.625 20.875 C1.12463086 16.54850286 1.21584577 11.60641769 1.16796875 6.1484375 C0.99991698 3.99893816 0.58578115 2.07132216 0 0 Z " fill="#D5F3FA" transform="translate(352,228)"/>
<path d="M0 0 C0 0.66 0 1.32 0 2 C-0.99 2.33 -1.98 2.66 -3 3 C-4.16953416 5.42383077 -4.16953416 5.42383077 -5 8 C-5.33 8.66 -5.66 9.32 -6 10 C-8.64 10 -11.28 10 -14 10 C-14.061875 10.61875 -14.12375 11.2375 -14.1875 11.875 C-15 14 -15 14 -17.5625 15.25 C-18.366875 15.4975 -19.17125 15.745 -20 16 C-17.66368044 10.1851602 -6.6648432 0 0 0 Z " fill="#358EC3" transform="translate(112,80)"/>
<path d="M0 0 C11.06343493 0.74980403 18.61738315 3.08246425 28 9 C28 9.33 28 9.66 28 10 C24.08242208 9.68659377 21.5789201 9.42729817 18.375 7.0625 C13.95594609 4.36196705 9.92545475 4.10772314 4.828125 3.58984375 C2 3 2 3 0 0 Z " fill="#217FB2" transform="translate(340,74)"/>
<path d="M0 0 C0.66 0 1.32 0 2 0 C2.25652344 0.59683594 2.51304688 1.19367188 2.77734375 1.80859375 C4.11100184 4.19895218 5.42051394 5.38557981 7.5625 7.0625 C10.19437653 9.12532214 10.90432539 9.71297618 12 13 C14.50447516 14.21869929 14.50447516 14.21869929 17 15 C17 15.66 17 16.32 17 17 C18.65 17.33 20.3 17.66 22 18 C20.02 18.99 20.02 18.99 18 20 C10.93802117 14.81928602 4.88255466 9.3374704 0 2 C0 1.34 0 0.68 0 0 Z " fill="#3B8DBF" transform="translate(86,370)"/>
<path d="M0 0 C1.5 1.375 1.5 1.375 3 3 C3 3.66 3 4.32 3 5 C3.66 5 4.32 5 5 5 C11.45578531 16.48262209 11.45578531 16.48262209 13 20 C12.67 20.66 12.34 21.32 12 22 C8.77477676 19.84985117 8.26937837 18.93845623 6.8125 15.5 C6.46832031 14.7059375 6.12414062 13.911875 5.76953125 13.09375 C5 11 5 11 5 9 C4.360625 8.814375 3.72125 8.62875 3.0625 8.4375 C1 7 1 7 0.25 3.375 C0.1675 2.26125 0.085 1.1475 0 0 Z " fill="#2283BA" transform="translate(385,99)"/>
<path d="M0 0 C0.66 0 1.32 0 2 0 C2 0.66 2 1.32 2 2 C2.66 2 3.32 2 4 2 C4 2.66 4 3.32 4 4 C4.99 4.33 5.98 4.66 7 5 C8.0625 6.63671875 8.0625 6.63671875 9 8.6875 C10.18196689 11.23782088 11.37325074 13.66651918 12.75 16.125 C14.13587131 19.31250402 14.24562482 21.56125246 14 25 C10.91466825 21.91466825 9.8922112 17.96633202 8.31640625 13.9453125 C7.11902235 11.26629927 5.77391708 9.30660938 4 7 C4 6.34 4 5.68 4 5 C3.34 5 2.68 5 2 5 C1.34 3.35 0.68 1.7 0 0 Z " fill="#C6EDFA" transform="translate(386,99)"/>
<path d="M0 0 C-3.58015332 1.19338444 -5.29478704 0.61753549 -9 0 C-14.65727199 -0.47143933 -18.80237983 0.10280564 -24.00390625 2.33203125 C-27.36674677 3.45736536 -30.48465179 3.18832223 -34 3 C-25.08008233 -4.39947715 -10.46812983 -3.22096303 0 0 Z " fill="#B1E4F4" transform="translate(152,197)"/>
<path d="M0 0 C-0.33 1.32 -0.66 2.64 -1 4 C0.65 4 2.3 4 4 4 C3.67 4.66 3.34 5.32 3 6 C2.10861328 5.94779297 2.10861328 5.94779297 1.19921875 5.89453125 C-4.85011518 5.69696358 -9.80560814 6.55577526 -15.5546875 8.44140625 C-18.14411157 9.03292006 -19.5237696 8.86955998 -22 8 C-20.97519531 7.67386719 -19.95039063 7.34773438 -18.89453125 7.01171875 C-17.53374877 6.57063753 -16.17307751 6.12921307 -14.8125 5.6875 C-14.13896484 5.47416016 -13.46542969 5.26082031 -12.77148438 5.04101562 C-8.67235123 3.70129894 -4.06419986 0 0 0 Z " fill="#308BC7" transform="translate(272,292)"/>
<path d="M0 0 C1.98 0 3.96 0 6 0 C6 0.66 6 1.32 6 2 C7.11375 1.938125 8.2275 1.87625 9.375 1.8125 C11.169375 1.9053125 11.169375 1.9053125 13 2 C13.99 3.485 13.99 3.485 15 5 C17.609621 5.38411275 20.0058074 5.60293197 22.625 5.6875 C23.33140625 5.72166016 24.0378125 5.75582031 24.765625 5.79101562 C26.50985688 5.87351308 28.25490395 5.93843335 30 6 C30 6.33 30 6.66 30 7 C19.63293387 7.59202789 11.31271121 7.31694585 2 2 C1.34 1.34 0.68 0.68 0 0 Z " fill="#B6E6F4" transform="translate(114,272)"/>
<path d="M0 0 C0.66 0.33 1.32 0.66 2 1 C0.64044944 6.56179775 0.64044944 6.56179775 -2.375 8.625 C-3.24125 9.07875 -4.1075 9.5325 -5 10 C-6.36984198 11.29579647 -7.7151049 12.61992749 -9 14 C-9.99 13.67 -10.98 13.34 -12 13 C-11.484375 12.505 -10.96875 12.01 -10.4375 11.5 C-7.67126047 8.66283125 -5.0823999 5.70109967 -2.48828125 2.70703125 C-1.68284459 1.7832102 -0.86665262 0.86665262 0 0 Z " fill="#D6F6FC" transform="translate(310,204)"/>
<path d="M0 0 C0.66 0.33 1.32 0.66 2 1 C-2.17902247 6.82572338 -5.69234682 9.86615215 -12.66796875 11.72265625 C-15.09088867 12.0108092 -16.69851964 11.7565786 -19 11 C-15.91190305 9.23537317 -14.76687864 9 -11 9 C-11 8.34 -11 7.68 -11 7 C-10.37351562 6.66226562 -9.74703125 6.32453125 -9.1015625 5.9765625 C-8.28429687 5.53054688 -7.46703125 5.08453125 -6.625 4.625 C-5.81289063 4.18414062 -5.00078125 3.74328125 -4.1640625 3.2890625 C-1.89185698 2.0556107 -1.89185698 2.0556107 0 0 Z " fill="#C0E6F3" transform="translate(373,386)"/>
<path d="M0 0 C0.66 1.32 1.32 2.64 2 4 C1.01 4.495 1.01 4.495 0 5 C-0.2475 5.7425 -0.495 6.485 -0.75 7.25 C-2.40956996 10.9010539 -4.88919263 12.52405128 -8 15 C-9.8126505 17.16220617 -9.8126505 17.16220617 -11 19 C-12.32 18.67 -13.64 18.34 -15 18 C-14.46890625 17.55269531 -13.9378125 17.10539062 -13.390625 16.64453125 C-7.5205483 11.62068823 -3.29558172 7.0855007 0 0 Z " fill="#C4E9F7" transform="translate(274,252)"/>
<path d="M0 0 C1.98 0.66 3.96 1.32 6 2 C6 2.66 6 3.32 6 4 C6.99 4.33 7.98 4.66 9 5 C10.53110158 7.02000017 11.86686835 8.97568989 13.1875 11.125 C13.55552734 11.681875 13.92355469 12.23875 14.30273438 12.8125 C16.91008744 17.01135429 17.3790156 20.11629075 17 25 C15.94416538 22.91699596 14.92269569 20.82975681 13.95703125 18.703125 C10.46508895 11.21868894 5.82071138 5.76779583 0 0 Z " fill="#227CAF" transform="translate(362,203)"/>
<path d="M0 0 C3.74942331 -0.28841718 6.49457421 0.10266486 9.9375 1.46875 C15.75154345 3.47316327 21.46026776 3.55876092 27.5625 3.6875 C29.21862305 3.73874023 29.21862305 3.73874023 30.90820312 3.79101562 C33.60536703 3.87274786 36.30223643 3.94213826 39 4 C39 4.33 39 4.66 39 5 C29.1 5 19.2 5 9 5 C9 4.34 9 3.68 9 3 C7.68 3 6.36 3 5 3 C5 2.34 5 1.68 5 1 C3.35 1 1.7 1 0 1 C0 0.67 0 0.34 0 0 Z " fill="#4698BE" transform="translate(209,297)"/>
<path d="M0 0 C0.99 0.33 1.98 0.66 3 1 C2.54262451 1.41677002 2.08524902 1.83354004 1.61401367 2.26293945 C-0.06172003 4.06642536 -0.86848901 5.53888918 -1.82421875 7.79296875 C-2.13037109 8.50517578 -2.43652344 9.21738281 -2.75195312 9.95117188 C-3.21504883 11.0581543 -3.21504883 11.0581543 -3.6875 12.1875 C-4.00783203 12.93708984 -4.32816406 13.68667969 -4.65820312 14.45898438 C-5.44524741 16.30325232 -6.22349144 18.1512714 -7 20 C-7.33 20 -7.66 20 -8 20 C-8 17.03 -8 14.06 -8 11 C-7.01 10.67 -6.02 10.34 -5 10 C-4.9175 9.05125 -4.835 8.1025 -4.75 7.125 C-4 4 -4 4 -1.9375 2.625 C-0.9784375 2.315625 -0.9784375 2.315625 0 2 C0 1.34 0 0.68 0 0 Z " fill="#D5F4FD" transform="translate(205,209)"/>
<path d="M0 0 C0.33 0 0.66 0 1 0 C2.125 7.75 2.125 7.75 1 10 C1.66 10 2.32 10 3 10 C3.66 12.64 4.32 15.28 5 18 C4.01 18 3.02 18 2 18 C-1.55003267 12.52703297 -1.55980145 7.31929712 -1 1 C-0.67 0.67 -0.34 0.34 0 0 Z " fill="#2785BA" transform="translate(321,230)"/>
<path d="M0 0 C-0.33 0.99 -0.66 1.98 -1 3 C-1.99 3 -2.98 3 -4 3 C-4 3.99 -4 4.98 -4 6 C-4.99 6.33 -5.98 6.66 -7 7 C-7.33 7.66 -7.66 8.32 -8 9 C-9.32 9 -10.64 9 -12 9 C-12 7.35 -12 5.7 -12 4 C-10.56570999 3.32645501 -9.12742943 2.66140299 -7.6875 2 C-6.88699219 1.62875 -6.08648437 1.2575 -5.26171875 0.875 C-3 0 -3 0 0 0 Z " fill="#0381D3" transform="translate(116,196)"/>
<path d="M0 0 C1.31871094 -0.01417969 2.63742188 -0.02835938 3.99609375 -0.04296875 C7.2175867 0.16521097 8.90170999 0.46581234 11.5625 2.1875 C3.58759872 3.51665021 -4.37936719 3.27551359 -12.4375 3.1875 C-8.82644193 -0.42355807 -4.80216774 0.00460419 0 0 Z " fill="#3C8EBE" transform="translate(236.4375,196.8125)"/>
<path d="M0 0 C3.3 0 6.6 0 10 0 C2.81441884 5.38918587 -2.17191146 6.44746803 -10.9375 6.1875 C-11.81212891 6.17396484 -12.68675781 6.16042969 -13.58789062 6.14648438 C-15.72553086 6.11144109 -17.86284984 6.05764541 -20 6 C-20 5.67 -20 5.34 -20 5 C-18.99839844 4.95101563 -17.99679688 4.90203125 -16.96484375 4.8515625 C-15.62237241 4.77645921 -14.2799257 4.70091474 -12.9375 4.625 C-11.62652344 4.55539062 -10.31554687 4.48578125 -8.96484375 4.4140625 C-5.01863043 4.00194564 -1.75882927 3.20243433 2 2 C1.34 1.34 0.68 0.68 0 0 Z " fill="#E3F8FA" transform="translate(149,272)"/>
<path d="M0 0 C-1.76997474 0.81436868 -3.54101152 1.6264294 -5.3125 2.4375 C-6.29863281 2.88996094 -7.28476563 3.34242188 -8.30078125 3.80859375 C-11 5 -11 5 -14 6 C-14 6.66 -14 7.32 -14 8 C-16.31 9.32 -18.62 10.64 -21 12 C-21 9 -21 9 -20 7 C-18.68 7 -17.36 7 -16 7 C-16 6.34 -16 5.68 -16 5 C-13.04518508 2.25624329 -12.22528092 2 -8 2 C-8 1.34 -8 0.68 -8 0 C-4.90645403 -0.99435406 -3.09720845 -0.87840996 0 0 Z " fill="#217FB5" transform="translate(216,176)"/>
<path d="M0 0 C1.98 0.66 3.96 1.32 6 2 C4.68 2.33 3.36 2.66 2 3 C1.67 4.32 1.34 5.64 1 7 C-1.31 7 -3.62 7 -6 7 C-5.67 5.35 -5.34 3.7 -5 2 C-3.35 2 -1.7 2 0 2 C0 1.34 0 0.68 0 0 Z " fill="#0C7DBD" transform="translate(202,294)"/>
<path d="M0 0 C-1.24891614 0.48198463 -2.49918808 0.96045677 -3.75 1.4375 C-4.79414063 1.83775391 -4.79414063 1.83775391 -5.859375 2.24609375 C-15.01275126 5.46981933 -24.77407506 4.50194575 -34 2 C-30.26400979 0.92689643 -27.84930682 1.35844886 -24 2 C-18.19080775 2.34060411 -13.48240055 2.11820021 -8 0 C-2.37837838 -1.18918919 -2.37837838 -1.18918919 0 0 Z " fill="#4F9BC1" transform="translate(256,273)"/>
<path d="M0 0 C7.6211934 2.42492517 12.17341727 4.94856476 16.875 11.6875 C17.431875 12.8321875 17.431875 12.8321875 18 14 C17.67 14.66 17.34 15.32 17 16 C15.5 14.6875 15.5 14.6875 14 13 C14 12.01 14 11.02 14 10 C12.824375 9.9071875 12.824375 9.9071875 11.625 9.8125 C10.75875 9.544375 9.8925 9.27625 9 9 C8.690625 8.175 8.38125 7.35 8.0625 6.5 C7.711875 5.675 7.36125 4.85 7 4 C3.94727535 3.10169161 3.94727535 3.10169161 1 3 C0.67 2.01 0.34 1.02 0 0 Z " fill="#C7F0F9" transform="translate(152,198)"/>
<path d="M0 0 C1.10546875 1.62890625 1.10546875 1.62890625 2 4 C1.42578125 6.83984375 1.42578125 6.83984375 0.3125 9.9375 C-0.04199219 10.95714844 -0.39648438 11.97679687 -0.76171875 13.02734375 C-1.95118374 15.88281017 -3.33668635 18.39717778 -5 21 C-6.24703266 17.25890201 -5.45460854 16.55570977 -4 13 C-3.6186926 10.67402489 -3.27539746 8.34087842 -3 6 C-2.01 6 -1.02 6 0 6 C0 4.02 0 2.04 0 0 Z " fill="#1C84BC" transform="translate(399,340)"/>
<path d="M0 0 C-0.33 0.66 -0.66 1.32 -1 2 C-4.41596155 3.13865385 -6.82462209 3.02524163 -10.41796875 2.87890625 C-12.29838867 2.80639648 -12.29838867 2.80639648 -14.21679688 2.73242188 C-15.52712891 2.67634766 -16.83746094 2.62027344 -18.1875 2.5625 C-19.5227663 2.50925765 -20.85805272 2.4565174 -22.19335938 2.40429688 C-25.46247144 2.27447654 -28.73128919 2.13950464 -32 2 C-32 1.67 -32 1.34 -32 1 C-27.6042236 0.8318091 -23.20837046 0.6657129 -18.8125 0.5 C-17.56662109 0.45230469 -16.32074219 0.40460938 -15.03710938 0.35546875 C-13.83505859 0.31035156 -12.63300781 0.26523437 -11.39453125 0.21875 C-10.28956299 0.17685547 -9.18459473 0.13496094 -8.04614258 0.09179688 C-5.36141261 0.01089133 -2.68565859 -0.01748191 0 0 Z " fill="#127EB5" transform="translate(253,301)"/>
<path d="M0 0 C1.62818946 0.22830701 3.2526349 0.48343576 4.875 0.75 C6.23238281 0.95882812 6.23238281 0.95882812 7.6171875 1.171875 C10 2 10 2 11.1875 3.9375 C11.455625 4.618125 11.72375 5.29875 12 6 C13.29470975 7.37086915 14.62150897 8.71340837 16 10 C15.34 10.66 14.68 11.32 14 12 C13.40832031 11.45730469 12.81664062 10.91460937 12.20703125 10.35546875 C11.41683594 9.64003906 10.62664062 8.92460937 9.8125 8.1875 C9.03519531 7.47980469 8.25789063 6.77210938 7.45703125 6.04296875 C5.08274223 4.06879839 2.65098348 2.56798845 0 1 C0 0.67 0 0.34 0 0 Z " fill="#298AB5" transform="translate(270,181)"/>
<path d="M0 0 C0.33 0 0.66 0 1 0 C1.4375 3.1875 1.4375 3.1875 1 7 C-1.01357045 9.23549622 -3.21365766 10.85443741 -6 12 C-6.99 11.67 -7.98 11.34 -9 11 C-7.52444734 9.16375669 -6.04446569 7.3310715 -4.5625 5.5 C-3.73878906 4.4790625 -2.91507812 3.458125 -2.06640625 2.40625 C-1.38449219 1.6121875 -0.70257813 0.818125 0 0 Z " fill="#2986B9" transform="translate(291,272)"/>
<path d="M0 0 C0.69802734 -0.00773438 1.39605469 -0.01546875 2.11523438 -0.0234375 C5.84002063 -0.00926134 8.6511783 0.19146494 11.8125 2.25 C10.54535156 2.20359375 9.27820313 2.1571875 7.97265625 2.109375 C-3.73024066 1.51266715 -3.73024066 1.51266715 -14.49609375 5.47265625 C-16.72820521 6.49849962 -17.92115232 6.04197644 -20.1875 5.25 C-13.78620424 0.98246949 -7.51387736 -0.08466341 0 0 Z " fill="#A4DDF4" transform="translate(336.1875,194.75)"/>
<path d="M0 0 C1.89666526 0.08772455 3.79238993 0.19591301 5.6875 0.3125 C7.27111328 0.39951172 7.27111328 0.39951172 8.88671875 0.48828125 C12.25847907 1.04248527 14.16188159 2.15905833 17 4 C20.19395026 4.71401232 20.19395026 4.71401232 23 5 C23 5.33 23 5.66 23 6 C14.73056456 6.84381994 7.6490873 3.78872975 0 1 C0 0.67 0 0.34 0 0 Z " fill="#C0E8F3" transform="translate(209,295)"/>
<path d="M0 0 C4.75 0.875 4.75 0.875 7 2 C7 2.66 7 3.32 7 4 C7.7425 4.268125 8.485 4.53625 9.25 4.8125 C11.86636554 5.94229421 13.80187111 7.20893202 16 9 C10.45925926 8.37037037 10.45925926 8.37037037 8.0625 6.4375 C5.07769619 4.35718219 2.54050526 4.79574008 -1 5 C-1 2 -1 2 0 0 Z " fill="#2184B9" transform="translate(195,288)"/>
<path d="M0 0 C0.66 1.32 1.32 2.64 2 4 C1.38125 4.4125 0.7625 4.825 0.125 5.25 C-2.06768281 7.05573879 -2.92788417 8.4090534 -4 11 C-8 5.25 -8 5.25 -8 3 C-6.0085944 2.61866701 -4.00720923 2.28674418 -2 2 C-1.67 2.33 -1.34 2.66 -1 3 C-0.67 2.01 -0.34 1.02 0 0 Z " fill="#E3F7FB" transform="translate(109,254)"/>
<path d="M0 0 C0.99 0.33 1.98 0.66 3 1 C2.360625 1.268125 1.72125 1.53625 1.0625 1.8125 C-1.33131686 2.88667752 -1.33131686 2.88667752 -2 6 C-5.08703669 9.34428975 -8.39972332 12.2226437 -12 15 C-12 14.01 -12 13.02 -12 12 C-11.34 12 -10.68 12 -10 12 C-10 11.34 -10 10.68 -10 10 C-9.34 10 -8.68 10 -8 10 C-8 8.68 -8 7.36 -8 6 C-7.34 6 -6.68 6 -6 6 C-6 5.34 -6 4.68 -6 4 C-4.68 4 -3.36 4 -2 4 C-2 3.34 -2 2.68 -2 2 C-1.34 2 -0.68 2 0 2 C0 1.34 0 0.68 0 0 Z " fill="#CCF1F9" transform="translate(98,86)"/>
<path d="M0 0 C4.13621084 3.3810038 7.81316569 6.66590534 11 11 C10.34 11.66 9.68 12.32 9 13 C9 12.34 9 11.68 9 11 C8.360625 10.731875 7.72125 10.46375 7.0625 10.1875 C5 9 5 9 4 6 C2.68352881 5.30062468 1.34977849 4.63270867 0 4 C-0.33 3.34 -0.66 2.68 -1 2 C-0.67 1.34 -0.34 0.68 0 0 Z " fill="#D2EFF8" transform="translate(278,187)"/>
<path d="M0 0 C1.66193932 0.94967961 3.32368341 1.89970269 4.984375 2.8515625 C6.30345368 3.60313058 7.62626097 4.3482011 8.953125 5.0859375 C11.58494751 6.55666185 13.85696635 7.85696635 16 10 C9.60030835 9.7276727 4.75765913 7.33691377 0 3 C0 2.01 0 1.02 0 0 Z " fill="#CEF1FB" transform="translate(96,384)"/>
<path d="M0 0 C0.66 0 1.32 0 2 0 C2.24234375 0.65226562 2.4846875 1.30453125 2.734375 1.9765625 C5.00208553 7.94905195 5.00208553 7.94905195 8.3125 13.375 C10 16 10 16 9.75 18.375 C9.5025 18.91125 9.255 19.4475 9 20 C8.67 19.01 8.34 18.02 8 17 C7.34 17 6.68 17 6 17 C0.44419134 5.47835991 0.44419134 5.47835991 0 0 Z " fill="#3184B2" transform="translate(75,349)"/>
<path d="M0 0 C0.88852764 2.48787739 1.17660068 3.58372698 0.125 6.0625 C-0.24625 6.701875 -0.6175 7.34125 -1 8 C-1.33 8.99 -1.66 9.98 -2 11 C-2.66 11 -3.32 11 -4 11 C-4.33 12.32 -4.66 13.64 -5 15 C-5.66 15 -6.32 15 -7 15 C-5.34292168 9.35086937 -3.52237988 4.73699363 0 0 Z " fill="#3591C1" transform="translate(83,106)"/>
<path d="M0 0 C2.9719385 1.12451727 5.33440687 2.22293791 8 4 C8 4.99 8 5.98 8 7 C4.7 7 1.4 7 -2 7 C-1.34 4.69 -0.68 2.38 0 0 Z " fill="#0681D1" transform="translate(370,89)"/>
<path d="M0 0 C2.475 0.495 2.475 0.495 5 1 C5.33 2.98 5.66 4.96 6 7 C6.66 7 7.32 7 8 7 C7.67 11.95 7.34 16.9 7 22 C6.34 21.67 5.68 21.34 5 21 C5.03480469 20.20335937 5.06960937 19.40671875 5.10546875 18.5859375 C5.34269267 10.37752664 5.34269267 10.37752664 2 3 C1.34 2.01 0.68 1.02 0 0 Z " fill="#C0E9F8" transform="translate(148,223)"/>
<path d="M0 0 C0.79921875 0.00902344 1.5984375 0.01804688 2.421875 0.02734375 C3.02515625 0.03894531 3.6284375 0.05054688 4.25 0.0625 C4.58 0.7225 4.91 1.3825 5.25 2.0625 C3.6 2.0625 1.95 2.0625 0.25 2.0625 C0.25 2.7225 0.25 3.3825 0.25 4.0625 C-3.5 5.1875 -3.5 5.1875 -5.75 4.0625 C-5.75 3.4025 -5.75 2.7425 -5.75 2.0625 C-6.74 1.7325 -7.73 1.4025 -8.75 1.0625 C-5.75519083 0.1901588 -3.11424089 -0.04579766 0 0 Z " fill="#1684C3" transform="translate(271.75,175.9375)"/>
<path d="M0 0 C5.27112904 2.79692561 9.59398317 5.98235547 14 10 C13.01 10.495 13.01 10.495 12 11 C11.38511719 10.57847656 10.77023437 10.15695313 10.13671875 9.72265625 C8.92435547 8.90087891 8.92435547 8.90087891 7.6875 8.0625 C6.88699219 7.51722656 6.08648437 6.97195312 5.26171875 6.41015625 C2.9741857 4.86162674 2.9741857 4.86162674 0 4 C0 2.68 0 1.36 0 0 Z " fill="#3084B8" transform="translate(368,84)"/>
<path d="M0 0 C-1.375 1.5 -1.375 1.5 -3 3 C-3.66 3 -4.32 3 -5 3 C-5.144375 3.639375 -5.28875 4.27875 -5.4375 4.9375 C-6 7 -6 7 -7 8 C-7.23287008 9.68183948 -7.41264166 11.3712416 -7.5625 13.0625 C-7.68818359 14.44115234 -7.68818359 14.44115234 -7.81640625 15.84765625 C-7.87699219 16.55792969 -7.93757813 17.26820313 -8 18 C-10.29541031 13.94093467 -10.02690567 11.58157916 -9 7 C-6.86018957 1.59952607 -6.86018957 1.59952607 -3.9375 -0.4375 C-2 -1 -2 -1 0 0 Z " fill="#0C7DBB" transform="translate(131,224)"/>
<path d="M0 0 C0.66 0 1.32 0 2 0 C2.66 0.66 3.32 1.32 4 2 C3.75558954 4.52557477 3.17639341 5.7852602 1.5625 7.75 C0 9 0 9 -2 9 C-2 8.34 -2 7.68 -2 7 C-2.66 6.67 -3.32 6.34 -4 6 C-3.01 5.67 -2.02 5.34 -1 5 C-0.67 3.35 -0.34 1.7 0 0 Z " fill="#087EBE" transform="translate(298,197)"/>
<path d="M0 0 C0.33 0.99 0.66 1.98 1 3 C-0.36125 3.6496875 -0.36125 3.6496875 -1.75 4.3125 C-4.43218449 5.70517271 -6.66139605 7.11112757 -9 9 C-9 8.34 -9 7.68 -9 7 C-10.32 6.67 -11.64 6.34 -13 6 C-8.71 4.02 -4.42 2.04 0 0 Z " fill="#3A93C6" transform="translate(161,271)"/>
<path d="M0 0 C0.7734375 0.09925781 1.546875 0.19851562 2.34375 0.30078125 C4.5 0.6875 4.5 0.6875 7.5 1.6875 C7.5 3.0075 7.5 4.3275 7.5 5.6875 C1.625 3.8125 1.625 3.8125 0.5 2.6875 C-0.84747084 2.45674918 -2.20377565 2.27596937 -3.5625 2.125 C-4.861875 1.980625 -6.16125 1.83625 -7.5 1.6875 C-4.19720869 -0.51436088 -3.70802649 -0.51294366 0 0 Z " fill="#D6F4FA" transform="translate(140.5,217.3125)"/>
<path d="M0 0 C5.59297089 0.49061148 10.08637777 1.19221587 15 4 C15.69140625 6.609375 15.69140625 6.609375 16 9 C15.34773438 8.59007812 14.69546875 8.18015625 14.0234375 7.7578125 C9.45293149 4.94000791 5.24280337 2.3796851 0 1 C0 0.67 0 0.34 0 0 Z " fill="#CAEFF9" transform="translate(248,198)"/>
<path d="M0 0 C0 0.33 0 0.66 0 1 C-1.65 1 -3.3 1 -5 1 C-5.33 2.32 -5.66 3.64 -6 5 C-9.375 5.625 -9.375 5.625 -13 6 C-13.66 5.34 -14.32 4.68 -15 4 C-14.030625 3.71125 -13.06125 3.4225 -12.0625 3.125 C-8.89335797 2.35785318 -8.89335797 2.35785318 -8 0 C-4.71023192 -1.09658936 -3.28696233 -0.79953138 0 0 Z " fill="#1982BB" transform="translate(355,395)"/>
<path d="M0 0 C0.66 0 1.32 0 2 0 C2.125 3.375 2.125 3.375 2 7 C1.34 7.66 0.68 8.32 0 9 C-0.99 9 -1.98 9 -3 9 C-3 7.02 -3 5.04 -3 3 C-2.34 3 -1.68 3 -1 3 C-0.67 2.01 -0.34 1.02 0 0 Z " fill="#0284D7" transform="translate(295,269)"/>
<path d="M0 0 C0.66 0 1.32 0 2 0 C2.66 2.31 3.32 4.62 4 7 C3.34 7.66 2.68 8.32 2 9 C1.67 8.01 1.34 7.02 1 6 C-0.65 6.33 -2.3 6.66 -4 7 C-2.68 4.69 -1.36 2.38 0 0 Z " fill="#348CBD" transform="translate(174,256)"/>
<path d="M0 0 C0 0.33 0 0.66 0 1 C-0.71285156 1.09796875 -1.42570312 1.1959375 -2.16015625 1.296875 C-8.31847723 2.25833561 -12.80736161 3.53824107 -18 7 C-17.125 2.125 -17.125 2.125 -16 1 C-10.6038493 0.1479762 -5.45742292 -0.09745398 0 0 Z " fill="#B6E1EF" transform="translate(141,219)"/>
<path d="M0 0 C0 0.66 0 1.32 0 2 C-1.32 2.33 -2.64 2.66 -4 3 C-4 3.66 -4 4.32 -4 5 C-4.66 5 -5.32 5 -6 5 C-6 5.66 -6 6.32 -6 7 C-7.96466413 8.06775224 -9.96855359 9.06553465 -12 10 C-12.66 9.67 -13.32 9.34 -14 9 C-8.25 4 -8.25 4 -6 4 C-6 3.34 -6 2.68 -6 2 C-2.25 0 -2.25 0 0 0 Z " fill="#3A91BD" transform="translate(222,200)"/>
<path d="M0 0 C0.33 0.66 0.66 1.32 1 2 C1.84304687 1.96519531 2.68609375 1.93039062 3.5546875 1.89453125 C4.65039062 1.86746094 5.74609375 1.84039062 6.875 1.8125 C8.51082031 1.76029297 8.51082031 1.76029297 10.1796875 1.70703125 C11.11039063 1.80371094 12.04109375 1.90039062 13 2 C13.99 3.485 13.99 3.485 15 5 C8.42684522 5.36517527 3.20514474 4.13619737 -3 2 C-2.01 1.34 -1.02 0.68 0 0 Z " fill="#3694C2" transform="translate(125,397)"/>
<path d="M0 0 C0.66 0 1.32 0 2 0 C1.2885206 3.6996929 -0.00939343 6.80081088 -2 10 C-4.6875 10.875 -4.6875 10.875 -7 11 C-2.3627685 2.6849642 -2.3627685 2.6849642 0 0 Z " fill="#BCE3F2" transform="translate(391,366)"/>
<path d="M0 0 C0 0.99 0 1.98 0 3 C-1.11375 2.5359375 -1.11375 2.5359375 -2.25 2.0625 C-7.44702225 0.59001036 -12.62487263 0.33050945 -18 0 C-18 0.66 -18 1.32 -18 2 C-18.66 1.67 -19.32 1.34 -20 1 C-19.67 0.34 -19.34 -0.32 -19 -1 C-12.365159 -2.29766606 -6.31660334 -2.44050584 0 0 Z " fill="#B8E5F3" transform="translate(348,220)"/>
<path d="M0 0 C1.32 0 2.64 0 4 0 C2.44499019 3.81684226 -0.03595495 6.19195732 -3 9 C-2.25 2.25 -2.25 2.25 0 0 Z " fill="#DCF6F9" transform="translate(285,274)"/>
<path d="M0 0 C-4.87058675 2.51926901 -8.49053291 3.10395221 -14 3 C-13.67 2.01 -13.34 1.02 -13 0 C-11.20909747 -0.19466332 -9.41723495 -0.38051213 -7.625 -0.5625 C-6.12839844 -0.71912109 -6.12839844 -0.71912109 -4.6015625 -0.87890625 C-2 -1 -2 -1 0 0 Z " fill="#FAF9EC" transform="translate(346,274)"/>
<path d="M0 0 C0.66 0 1.32 0 2 0 C0.53967505 5.31027254 -1.98320986 9.46330032 -5 14 C-6.0448029 10.86559131 -6.15317663 9.97903963 -5 7 C-4.01 6.34 -3.02 5.68 -2 5 C-0.79549696 2.44816596 -0.79549696 2.44816596 0 0 Z " fill="#DDF7FB" transform="translate(295,260)"/>
<path d="M0 0 C1.9296875 0.71484375 1.9296875 0.71484375 4 2 C4.7578125 4.12890625 4.7578125 4.12890625 5.125 6.5625 C5.46228659 8.94252126 5.46228659 8.94252126 6 11 C6.66 11.33 7.32 11.66 8 12 C7.67 12.99 7.34 13.98 7 15 C4.47138427 12.73946101 3.16143472 10.60099936 1.8125 7.5 C1.46832031 6.7265625 1.12414062 5.953125 0.76953125 5.15625 C0 3 0 3 0 0 Z " fill="#D0EFF9" transform="translate(176,256)"/>
<path d="M0 0 C1.66926454 0.97473126 3.33535642 1.95489789 5 2.9375 C6.3921875 3.75541016 6.3921875 3.75541016 7.8125 4.58984375 C8.534375 5.05519531 9.25625 5.52054688 10 6 C10 6.33 10 6.66 10 7 C3.56461405 7.36426713 3.56461405 7.36426713 1.0625 5.75 C0 4 0 4 0 0 Z " fill="#CCF0FB" transform="translate(123,248)"/>
<path d="M0 0 C0.86882812 0.07863281 1.73765625 0.15726563 2.6328125 0.23828125 C4.875 0.6875 4.875 0.6875 6.875 2.6875 C5.62783203 2.65269531 5.62783203 2.65269531 4.35546875 2.6171875 C3.26878906 2.59914062 2.18210938 2.58109375 1.0625 2.5625 C-0.01644531 2.53929687 -1.09539062 2.51609375 -2.20703125 2.4921875 C-5.31902868 2.45726283 -5.31902868 2.45726283 -8.125 4.6875 C-8.455 3.3675 -8.785 2.0475 -9.125 0.6875 C-5.92357356 -0.30270864 -3.32514399 -0.3325144 0 0 Z " fill="#1C84BC" transform="translate(249.125,199.3125)"/>
<path d="M0 0 C0.66 0 1.32 0 2 0 C1.45144652 4.571279 0.58255197 8.67435795 -1 13 C-1.33 13 -1.66 13 -2 13 C-2.05447047 11.58376784 -2.09300508 10.16691809 -2.125 8.75 C-2.14820312 7.96109375 -2.17140625 7.1721875 -2.1953125 6.359375 C-1.9828378 3.79268059 -1.28654105 2.2083933 0 0 Z " fill="#1883BA" transform="translate(76,121)"/>
<path d="M0 0 C0.33 0.99 0.66 1.98 1 3 C0.01 3.33 -0.98 3.66 -2 4 C-2.73323796 6.01508358 -2.73323796 6.01508358 -3 8 C-4.98 8 -6.96 8 -9 8 C-7.71034824 6.62437146 -6.37310707 5.29233607 -5 4 C-4.34 4 -3.68 4 -3 4 C-3 3.34 -3 2.68 -3 2 C-2.01 1.34 -1.02 0.68 0 0 Z " fill="#3587B9" transform="translate(281,284)"/>
<path d="M0 0 C1.32 0 2.64 0 4 0 C4 0.99 4 1.98 4 3 C3.01 3.33 2.02 3.66 1 4 C0.67 4.99 0.34 5.98 0 7 C-1.9375 6.6875 -1.9375 6.6875 -4 6 C-4.33 5.01 -4.66 4.02 -5 3 C-4.360625 2.87625 -3.72125 2.7525 -3.0625 2.625 C-2.0415625 2.315625 -2.0415625 2.315625 -1 2 C-0.67 1.34 -0.34 0.68 0 0 Z " fill="#167FB5" transform="translate(292,192)"/>
<path d="M0 0 C0.66 0.33 1.32 0.66 2 1 C1.67 1.99 1.34 2.98 1 4 C-3.76017293 5.80886571 -7.93676791 6.20666253 -13 6 C-13 5.67 -13 5.34 -13 5 C-10.36 4.67 -7.72 4.34 -5 4 C-5 3.34 -5 2.68 -5 2 C-2.625 0.9375 -2.625 0.9375 0 0 Z " fill="#D8F1F8" transform="translate(346,251)"/>
<path d="M0 0 C3.01781947 1.50890974 3.52251548 3.9903093 5 7 C6.61791292 9.69813621 8.30017566 12.35284272 10 15 C7.5625 14.25 7.5625 14.25 5 13 C4.3125 10.9375 4.3125 10.9375 4 9 C3.34 8.67 2.68 8.34 2 8 C1.3671875 6.15234375 1.3671875 6.15234375 0.875 3.9375 C0.70742187 3.20402344 0.53984375 2.47054688 0.3671875 1.71484375 C0.24601563 1.14894531 0.12484375 0.58304687 0 0 Z " fill="#3E94BB" transform="translate(178,264)"/>
<path d="M0 0 C1.59273572 3.18547144 0.76164121 5.60190847 0 9 C-2.0625 11.4375 -2.0625 11.4375 -4 13 C-5.0169313 10.34501768 -5.13022151 9.30844625 -4.00390625 6.640625 C-3.52824219 5.85171875 -3.05257813 5.0628125 -2.5625 4.25 C-2.08941406 3.45078125 -1.61632812 2.6515625 -1.12890625 1.828125 C-0.75636719 1.22484375 -0.38382812 0.6215625 0 0 Z " fill="#3B94BF" transform="translate(375,253)"/>
<path d="M0 0 C1.32 0.33 2.64 0.66 4 1 C2.90220176 2.15193623 1.79650554 3.29634937 0.6875 4.4375 C0.07261719 5.07558594 -0.54226563 5.71367187 -1.17578125 6.37109375 C-3 8 -3 8 -6 9 C-6 8.01 -6 7.02 -6 6 C-4.68 5.67 -3.36 5.34 -2 5 C-2 4.01 -2 3.02 -2 2 C-1.34 2 -0.68 2 0 2 C0 1.34 0 0.68 0 0 Z " fill="#2681B0" transform="translate(378,378)"/>
<path d="M0 0 C3.28788824 3.11016455 5.83735988 6.01618925 8 10 C5.34122043 9.63327178 4.20164528 9.20911362 2.3125 7.25 C0.88788531 4.80780338 0.38687339 2.7854884 0 0 Z " fill="#C5EDF8" transform="translate(201,256)"/>
<path d="M0 0 C2.42130331 2.42130331 2.52840504 3.80111377 3.125 7.125 C3.29257813 8.03507813 3.46015625 8.94515625 3.6328125 9.8828125 C3.81457031 10.93082031 3.81457031 10.93082031 4 12 C2.68 11.67 1.36 11.34 0 11 C0 7.37 0 3.74 0 0 Z " fill="#CFF4FA" transform="translate(196,240)"/>
<path d="M0 0 C2.46301423 2.46301423 2.76766521 4.27360036 3.625 7.625 C3.88539062 8.62789063 4.14578125 9.63078125 4.4140625 10.6640625 C4.60742188 11.43492187 4.80078125 12.20578125 5 13 C4.01 13 3.02 13 2 13 C1.66127487 11.58461283 1.32925376 10.16762037 1 8.75 C0.814375 7.96109375 0.62875 7.1721875 0.4375 6.359375 C0 4 0 4 0 0 Z " fill="#BEE3F2" transform="translate(74,348)"/>
<path d="M0 0 C0.33 0 0.66 0 1 0 C1.125 7.75 1.125 7.75 0 10 C-0.66 10 -1.32 10 -2 10 C-2 10.66 -2 11.32 -2 12 C-2.66 12 -3.32 12 -4 12 C-3.52309796 10.37433394 -3.04340334 8.74948689 -2.5625 7.125 C-2.29566406 6.22007812 -2.02882813 5.31515625 -1.75390625 4.3828125 C-1 2 -1 2 0 0 Z " fill="#AFDFF2" transform="translate(399,348)"/>
<path d="M0 0 C1.98 0.99 1.98 0.99 4 2 C4 3.98 4 5.96 4 8 C3.34 8 2.68 8 2 8 C1.01 8.495 1.01 8.495 0 9 C0 6.03 0 3.06 0 0 Z " fill="#0386D1" transform="translate(184,279)"/>
<path d="M0 0 C4.0042343 3.49087093 5.62671065 5.64951939 6 11 C5.01 11.33 4.02 11.66 3 12 C3 9.69 3 7.38 3 5 C2.34 5 1.68 5 1 5 C0.67 3.35 0.34 1.7 0 0 Z " fill="#CBEFF8" transform="translate(368,209)"/>
<path d="M0 0 C2.475 0.495 2.475 0.495 5 1 C5 1.66 5 2.32 5 3 C5.99 3.33 6.98 3.66 8 4 C8 4.66 8 5.32 8 6 C8.99 6.33 9.98 6.66 11 7 C10.34 7.66 9.68 8.32 9 9 C7.8274869 8.04882866 6.66212985 7.08882991 5.5 6.125 C4.8503125 5.59132812 4.200625 5.05765625 3.53125 4.5078125 C3.0259375 4.01023438 2.520625 3.51265625 2 3 C2 2.34 2 1.68 2 1 C1.34 0.67 0.68 0.34 0 0 Z " fill="#2F85B4" transform="translate(160,201)"/>
<path d="M0 0 C1.33804688 0.04060547 1.33804688 0.04060547 2.703125 0.08203125 C3.37859375 0.11683594 4.0540625 0.15164062 4.75 0.1875 C-0.49749603 2.81124802 -3.33847633 3.28284716 -9.25 3.1875 C-6.10408067 0.38704377 -4.182936 -0.16511589 0 0 Z " fill="#D0F2F9" transform="translate(127.25,196.8125)"/>
<path d="M0 0 C3.51716303 3.51716303 3.54676163 5.19567333 4 10 C3.01 10 2.02 10 1 10 C0.67 6.7 0.34 3.4 0 0 Z " fill="#D3F1F9" transform="translate(70,338)"/>
<path d="M0 0 C0.66 0.66 1.32 1.32 2 2 C-1.465 4.97 -1.465 4.97 -5 8 C-5.33 6.68 -5.66 5.36 -6 4 C-5.01 3.67 -4.02 3.34 -3 3 C-2.67 2.34 -2.34 1.68 -2 1 C-1.34 1.33 -0.68 1.66 0 2 C0 1.34 0 0.68 0 0 Z " fill="#D0EEF9" transform="translate(166,264)"/>
<path d="M0 0 C7.50769231 -0.36923077 7.50769231 -0.36923077 10 1.5 C10.495 2.2425 10.495 2.2425 11 3 C3.57142857 3.14285714 3.57142857 3.14285714 0 2 C0 1.34 0 0.68 0 0 Z " fill="#CFF4FB" transform="translate(344,197)"/>
<path d="M0 0 C6.46326465 -0.45356243 9.60931587 0.40621058 15 4 C14.67 4.66 14.34 5.32 14 6 C13.49210938 5.72285156 12.98421875 5.44570312 12.4609375 5.16015625 C8.2922702 2.9665317 4.75868447 1.47586845 0 1 C0 0.67 0 0.34 0 0 Z " fill="#3689B7" transform="translate(144,195)"/>
<path d="M0 0 C2.97 1.65 5.94 3.3 9 5 C9 5.99 9 6.98 9 8 C8.67 7.34 8.34 6.68 8 6 C6.5459375 5.8453125 6.5459375 5.8453125 5.0625 5.6875 C4.051875 5.460625 3.04125 5.23375 2 5 C0.625 2.4375 0.625 2.4375 0 0 Z " fill="#D3F6FB" transform="translate(267,180)"/>
<path d="M0 0 C-3.13269705 3.13269705 -5.97328423 3.05494397 -10.25 3.0625 C-12.10625 3.0315625 -12.10625 3.0315625 -14 3 C-4.91666667 -1.89102564 -4.91666667 -1.89102564 0 0 Z " fill="#ADE2F2" transform="translate(354,399)"/>
<path d="M0 0 C2 2 2 2 2 5 C2.66 5 3.32 5 4 5 C5.625 7 5.625 7 7 9 C6.67 9.66 6.34 10.32 6 11 C3 10 3 10 1.3125 7.75 C-0.06511203 4.8635748 -0.26985151 3.14826764 0 0 Z " fill="#C3E8F7" transform="translate(79,361)"/>
<path d="M0 0 C0.33 0 0.66 0 1 0 C2.61050328 9.01531729 2.61050328 9.01531729 0.0625 13.125 C-0.618125 13.74375 -1.29875 14.3625 -2 15 C-1.03644647 4.44191344 -1.03644647 4.44191344 0 0 Z " fill="#A2DCEC" transform="translate(402,333)"/>
<path d="M0 0 C1.58467728 0.28427417 3.1677057 0.57774818 4.75 0.875 C6.07257813 1.11863281 6.07257813 1.11863281 7.421875 1.3671875 C9.86947744 1.96796264 11.80599857 2.77997117 14 4 C14 4.33 14 4.66 14 5 C12.02 5 10.04 5 8 5 C8 4.34 8 3.68 8 3 C5.36 2.67 2.72 2.34 0 2 C0 1.34 0 0.68 0 0 Z " fill="#0286D5" transform="translate(312,277)"/>
<path d="M0 0 C0.66 0 1.32 0 2 0 C2.0825 0.5775 2.165 1.155 2.25 1.75 C2.8695627 4.1677051 2.8695627 4.1677051 5 6 C7.0819403 8.0819403 7.59208304 9.14458129 8 12 C2.00704225 6.16901408 2.00704225 6.16901408 0 3 C0 2.01 0 1.02 0 0 Z " fill="#3D8CB3" transform="translate(200,251)"/>
<path d="M0 0 C0.33 0.99 0.66 1.98 1 3 C0.319375 4.0828125 0.319375 4.0828125 -0.375 5.1875 C-2.50728728 8.87799721 -2.64177132 11.77290158 -3 16 C-3.33 16 -3.66 16 -4 16 C-4.34963286 10.17278563 -4.19639756 6.11423609 -1 1 C-0.67 0.67 -0.34 0.34 0 0 Z " fill="#3C8AB1" transform="translate(124,225)"/>
<path d="M0 0 C0 3.80845564 -0.97798569 5.79266696 -3 9 C-5.6875 9.875 -5.6875 9.875 -8 10 C-7.04367001 8.70684939 -6.08486149 7.41553147 -5.125 6.125 C-4.59132813 5.40570313 -4.05765625 4.68640625 -3.5078125 3.9453125 C-2 2 -2 2 0 0 Z " fill="#B9E2EE" transform="translate(306,208)"/>
<path d="M0 0 C3.12290635 0.48578543 5.99580359 0.9986012 9 2 C9 2.66 9 3.32 9 4 C6.36 4 3.72 4 1 4 C0.67 2.68 0.34 1.36 0 0 Z " fill="#C3E9F5" transform="translate(257,176)"/>
<path d="M0 0 C1.09570312 0.00902344 2.19140625 0.01804688 3.3203125 0.02734375 C4.16335937 0.03894531 5.00640625 0.05054688 5.875 0.0625 C5.875 0.3925 5.875 0.7225 5.875 1.0625 C4.2926994 1.40070166 2.70910625 1.73285939 1.125 2.0625 C-0.19757813 2.3409375 -0.19757813 2.3409375 -1.546875 2.625 C-4.125 3.0625 -4.125 3.0625 -8.125 3.0625 C-8.125 2.4025 -8.125 1.7425 -8.125 1.0625 C-5.36047967 -0.31976016 -3.0788637 -0.03275387 0 0 Z " fill="#2E80AF" transform="translate(224.125,171.9375)"/>
<path d="M0 0 C1.32 0.33 2.64 0.66 4 1 C4 1.66 4 2.32 4 3 C5.65 3.33 7.3 3.66 9 4 C7.02 4.99 7.02 4.99 5 6 C3.2925002 4.71937515 1.62626404 3.38232443 0 2 C0 1.34 0 0.68 0 0 Z " fill="#2D89BB" transform="translate(99,384)"/>
<path d="M0 0 C-0.66 0 -1.32 0 -2 0 C-2.33 0.99 -2.66 1.98 -3 3 C-4.98 3.33 -6.96 3.66 -9 4 C-8.1875 2.0625 -8.1875 2.0625 -7 0 C-3.86650268 -1.04449911 -3.01031744 -0.93423645 0 0 Z " fill="#0182D6" transform="translate(269,298)"/>
<path d="M0 0 C2.12508244 3.18762365 2.5020163 5.26512223 3 9 C2.34 9 1.68 9 1 9 C1 9.66 1 10.32 1 11 C0.34 11 -0.32 11 -1 11 C-1.125 6.25 -1.125 6.25 0 4 C0 2.68 0 1.36 0 0 Z " fill="#0980BC" transform="translate(177,263)"/>
<path d="M0 0 C1 3 1 3 0 6 C-2.9375 7.75 -2.9375 7.75 -6 9 C-6.66 8.67 -7.32 8.34 -8 8 C-6.50260417 6.79557292 -5.00520833 5.59114583 -3.5078125 4.38671875 C-1.74707893 2.87729455 -1.74707893 2.87729455 0 0 Z " fill="#3C8FB8" transform="translate(369,263)"/>
<path d="M0 0 C2.39256506 1.19628253 2.79843378 2.12565265 4.0625 4.4375 C4.40410156 5.05496094 4.74570312 5.67242187 5.09765625 6.30859375 C5.74921553 7.52991482 6.38094352 8.76188703 7 10 C6.01 9.67 5.02 9.34 4 9 C4 8.34 4 7.68 4 7 C3.34 7 2.68 7 2 7 C-0.13324818 4.86675182 -0.53238345 3.8992226 -1 1 C-0.67 0.67 -0.34 0.34 0 0 Z " fill="#3D88B3" transform="translate(299,256)"/>
<path d="M0 0 C0.33 0.66 0.66 1.32 1 2 C2.64363134 2.72159424 4.31050386 3.39351421 6 4 C6 5.65 6 7.3 6 9 C5.01 9 4.02 9 3 9 C2.896875 8.236875 2.79375 7.47375 2.6875 6.6875 C1.95635961 3.82940576 1.23048087 2.84257115 -1 1 C-0.67 0.67 -0.34 0.34 0 0 Z " fill="#0A84C1" transform="translate(282,185)"/>
<path d="M0 0 C2.97 0 5.94 0 9 0 C9 0.66 9 1.32 9 2 C4.545 2.495 4.545 2.495 0 3 C0 2.01 0 1.02 0 0 Z " fill="#0083D5" transform="translate(216,168)"/>
<path d="M0 0 C0.33 0 0.66 0 1 0 C0.5317879 4.77576339 -0.24331998 8.04476345 -3 12 C-4.41573582 7.75279253 -2.76329613 5.5689976 -0.875 1.6875 C-0.58625 1.130625 -0.2975 0.57375 0 0 Z " fill="#1E78AB" transform="translate(397,349)"/>
<path d="M0 0 C2.31 0.33 4.62 0.66 7 1 C7.33 2.98 7.66 4.96 8 7 C6.66382648 6.02471263 5.3311249 5.04466681 4 4.0625 C3.2575 3.51722656 2.515 2.97195313 1.75 2.41015625 C1.1725 1.94480469 0.595 1.47945313 0 1 C0 0.67 0 0.34 0 0 Z " fill="#C8EDF5" transform="translate(106,265)"/>
<path d="M0 0 C1.33333333 1.33333333 2.66666667 2.66666667 4 4 C4.5775 4.53625 5.155 5.0725 5.75 5.625 C7 7 7 7 7 9 C5.02 8.34 3.04 7.68 1 7 C0.67 4.69 0.34 2.38 0 0 Z " fill="#B3E3F2" transform="translate(169,210)"/>
<path d="M0 0 C1.32 0 2.64 0 4 0 C3.67 2.31 3.34 4.62 3 7 C1.5 5.75 1.5 5.75 0 4 C0 2.68 0 1.36 0 0 Z " fill="#0086D7" transform="translate(292,196)"/>
<path d="M0 0 C0.66 0.33 1.32 0.66 2 1 C-1.0657052 5.65987191 -3.58657319 6.85485202 -9 8 C-7.625 6.5 -7.625 6.5 -6 5 C-5.34 5 -4.68 5 -4 5 C-4 4.34 -4 3.68 -4 3 C-2 1.375 -2 1.375 0 0 Z " fill="#BBE1F1" transform="translate(206,179)"/>
<path d="M0 0 C1.32 0 2.64 0 4 0 C3.67 1.98 3.34 3.96 3 6 C2.01 6 1.02 6 0 6 C-0.33 6.66 -0.66 7.32 -1 8 C-1 5 -1 5 0 4 C-0.33 3.34 -0.66 2.68 -1 2 C-0.67 1.34 -0.34 0.68 0 0 Z " fill="#FAF8F1" transform="translate(73,112)"/>
<path d="M0 0 C2.67455183 1.33727591 2.98881385 2.73288323 4.1875 5.4375 C4.55230469 6.24058594 4.91710937 7.04367188 5.29296875 7.87109375 C6 10 6 10 5 12 C2 10 2 10 1.26953125 7.6171875 C1.11871094 6.71226563 0.96789062 5.80734375 0.8125 4.875 C0.65394531 3.96492188 0.49539063 3.05484375 0.33203125 2.1171875 C0.22246094 1.41851562 0.11289062 0.71984375 0 0 Z " fill="#4294C0" transform="translate(392,109)"/>
<path d="M0 0 C2.97 0.495 2.97 0.495 6 1 C6.33 2.32 6.66 3.64 7 5 C2.25 3.125 2.25 3.125 0 2 C0 1.34 0 0.68 0 0 Z " fill="#C7ECF5" transform="translate(202,290)"/>
<path d="M0 0 C5.94 2.475 5.94 2.475 12 5 C12 5.33 12 5.66 12 6 C6.73628638 6.50130606 4.0909066 5.31168629 0 2 C0 1.34 0 0.68 0 0 Z " fill="#2582BF" transform="translate(113,272)"/>
<path d="M0 0 C4.43458973 1.3937282 6.87378374 3.60582235 10 7 C5.61537866 6.49890042 3.1999003 5.01704885 0 2 C0 1.34 0 0.68 0 0 Z " fill="#1C82B5" transform="translate(303,265)"/>
<path d="M0 0 C0.99 0.33 1.98 0.66 3 1 C-0.75 6.875 -0.75 6.875 -3 8 C-3 6.35 -3 4.7 -3 3 C-2.01 3 -1.02 3 0 3 C0 2.01 0 1.02 0 0 Z " fill="#D4F6FE" transform="translate(171,256)"/>
<path d="M0 0 C3.32604248 1.66302124 3.80042476 4.62976481 5 8 C4.6875 10.4375 4.6875 10.4375 4 12 C3.67 10.68 3.34 9.36 3 8 C2.34 8 1.68 8 1 8 C0.67 5.36 0.34 2.72 0 0 Z " fill="#ABD8EC" transform="translate(373,216)"/>
<path d="M0 0 C1.32 0.66 2.64 1.32 4 2 C-1.75 5.875 -1.75 5.875 -4 7 C-3.67 5.35 -3.34 3.7 -3 2 C-2.01 2 -1.02 2 0 2 C0 1.34 0 0.68 0 0 Z " fill="#CDF2FB" transform="translate(212,202)"/>
<path d="M0 0 C2 1 2 1 3.125 3.1875 C4.08328236 6.26769331 4.14915816 8.79309948 4 12 C1.49484216 9.49484216 0.94900914 7.38931835 0 4 C0 2.68 0 1.36 0 0 Z " fill="#D2F8FD" transform="translate(396,112)"/>
<path d="M0 0 C1 2 1 2 0.875 4 C0 6 0 6 -2.5625 7.25 C-3.366875 7.4975 -4.17125 7.745 -5 8 C-3.8141763 4.62496331 -2.72426311 2.35277269 0 0 Z " fill="#3991BE" transform="translate(89,98)"/>
<path d="M0 0 C0.66 0.33 1.32 0.66 2 1 C0.25 7.75 0.25 7.75 -2 10 C-2.17942163 6.05272412 -2.09350689 3.4019487 0 0 Z " fill="#2E85B9" transform="translate(274,245)"/>
<path d="M0 0 C0.66 0.99 1.32 1.98 2 3 C0.35 4.65 -1.3 6.3 -3 8 C-3.66 7.67 -4.32 7.34 -5 7 C-3.625 4.5 -3.625 4.5 -2 2 C-1.34 2 -0.68 2 0 2 C0 1.34 0 0.68 0 0 Z " fill="#CAEEF8" transform="translate(152,245)"/>
<path d="M0 0 C1.9451 2.91765 2.45276317 4.62537285 3 8 C2.01 8 1.02 8 0 8 C-1.125 2.25 -1.125 2.25 0 0 Z " fill="#1B81B7" transform="translate(323,240)"/>
<path d="M0 0 C0.33 0 0.66 0 1 0 C1.05399736 1.45792884 1.09279177 2.91642712 1.125 4.375 C1.14820313 5.18710938 1.17140625 5.99921875 1.1953125 6.8359375 C1 9 1 9 -1 11 C-2.0257259 6.58937864 -2.03684712 4.07369424 0 0 Z " fill="#107ABB" transform="translate(352,231)"/>
<path d="M0 0 C0.33 0 0.66 0 1 0 C1.1875 2.375 1.1875 2.375 1 5 C0.01 5.66 -0.98 6.32 -2 7 C-2.99 6.67 -3.98 6.34 -5 6 C-3.35830472 3.97945196 -1.69088222 1.97956942 0 0 Z " fill="#3986C1" transform="translate(287,277)"/>
<path d="M0 0 C0 3.51716303 -0.82445585 4.37121748 -3 7 C-4.32 6.67 -5.64 6.34 -7 6 C-4.69 4.02 -2.38 2.04 0 0 Z " fill="#B7E8F4" transform="translate(266,264)"/>
<path d="M0 0 C0.33 1.32 0.66 2.64 1 4 C-1.97 6.475 -1.97 6.475 -5 9 C-5.66 8.34 -6.32 7.68 -7 7 C-6.21625 6.401875 -5.4325 5.80375 -4.625 5.1875 C-1.85425677 3.08914751 -1.85425677 3.08914751 0 0 Z " fill="#358FB8" transform="translate(169,263)"/>
<path d="M0 0 C0.6875 1.625 0.6875 1.625 1 4 C-0.4375 7.25 -0.4375 7.25 -2 10 C-2.66 10 -3.32 10 -4 10 C-2.8905928 6.51329166 -1.73662334 3.22515763 0 0 Z " fill="#4296C7" transform="translate(296,262)"/>
<path d="M0 0 C0.33 0 0.66 0 1 0 C1.25 2.75 1.25 2.75 1 6 C-1 8.375 -1 8.375 -3 10 C-3.3648363 5.74357648 -2.47460354 3.46444495 0 0 Z " fill="#E5FCFE" transform="translate(278,245)"/>
<path d="M0 0 C1.98 0.99 1.98 0.99 4 2 C4 3.65 4 5.3 4 7 C2 5.75 2 5.75 0 4 C0 2.68 0 1.36 0 0 Z " fill="#DCF7FA" transform="translate(348,220)"/>
<path d="M0 0 C2.27521866 2.16687491 4.15794162 4.45620509 6 7 C5.67 7.66 5.34 8.32 5 9 C2.5 6.75 2.5 6.75 0 4 C0 2.68 0 1.36 0 0 Z " fill="#BFE6F3" transform="translate(289,199)"/>
<path d="M0 0 C-3.42346555 3.14958831 -6.44262737 3.56179109 -11 4 C-7.26280719 0.48264206 -5.13496308 -0.47767098 0 0 Z " fill="#B8E8F6" transform="translate(327,197)"/>
<path d="M0 0 C1.5625 1.75 1.5625 1.75 3 4 C2.6875 6.25 2.6875 6.25 2 8 C1.01 7.34 0.02 6.68 -1 6 C-0.67 4.02 -0.34 2.04 0 0 Z " fill="#137DAF" transform="translate(395,117)"/>
<path d="M0 0 C1.65 0 3.3 0 5 0 C5.33 1.65 5.66 3.3 6 5 C1.125 2.25 1.125 2.25 0 0 Z " fill="#C2ECF7" transform="translate(191,282)"/>
<path d="M0 0 C0.66 0 1.32 0 2 0 C2 0.66 2 1.32 2 2 C2.66 2 3.32 2 4 2 C3.67 5.63 3.34 9.26 3 13 C2.67 13 2.34 13 2 13 C1.34 8.71 0.68 4.42 0 0 Z " fill="#BBE6F9" transform="translate(352,228)"/>
<path d="M0 0 C0.99 0 1.98 0 3 0 C4.125 3.75 4.125 3.75 3 6 C2.34 6 1.68 6 1 6 C0.67 4.02 0.34 2.04 0 0 Z " fill="#0583D3" transform="translate(344,225)"/>
<path d="M0 0 C-0.33 0.99 -0.66 1.98 -1 3 C-4.3 2.67 -7.6 2.34 -11 2 C-11 1.67 -11 1.34 -11 1 C-9.54182203 0.83197949 -8.0834516 0.66562857 -6.625 0.5 C-5.81289062 0.4071875 -5.00078125 0.314375 -4.1640625 0.21875 C-2 0 -2 0 0 0 Z " fill="#0587D2" transform="translate(256,169)"/>
<path d="M0 0 C0.66 0.33 1.32 0.66 2 1 C1.67 2.32 1.34 3.64 1 5 C-0.32 5.33 -1.64 5.66 -3 6 C-2.67 4.68 -2.34 3.36 -2 2 C-1.34 2 -0.68 2 0 2 C0 1.34 0 0.68 0 0 Z " fill="#0C7DCD" transform="translate(97,92)"/>
<path d="M0 0 C1.32 0.66 2.64 1.32 4 2 C3.01 2 2.02 2 1 2 C1 2.66 1 3.32 1 4 C0.34 4 -0.32 4 -1 4 C-1.33 4.66 -1.66 5.32 -2 6 C-2.33 5.01 -2.66 4.02 -3 3 C-2.01 2.01 -1.02 1.02 0 0 Z " fill="#FAF9EF" transform="translate(91,88)"/>
<path d="M0 0 C0.33 0.66 0.66 1.32 1 2 C-0.375 4.625 -0.375 4.625 -2 7 C-2.33 7 -2.66 7 -3 7 C-3 5.02 -3 3.04 -3 1 C-2.01 0.67 -1.02 0.34 0 0 Z " fill="#FEFAEE" transform="translate(294,260)"/>
<path d="M0 0 C2.475 0.495 2.475 0.495 5 1 C4.67 1.99 4.34 2.98 4 4 C2.68 3.67 1.36 3.34 0 3 C0 2.01 0 1.02 0 0 Z " fill="#1776C3" transform="translate(259,259)"/>
<path d="M0 0 C1.98 0.66 3.96 1.32 6 2 C6 2.66 6 3.32 6 4 C6.99 4.33 7.98 4.66 9 5 C8.34 5.66 7.68 6.32 7 7 C5.83040013 6.02433888 4.66438823 5.044375 3.5 4.0625 C2.8503125 3.51722656 2.200625 2.97195312 1.53125 2.41015625 C1.0259375 1.94480469 0.520625 1.47945312 0 1 C0 0.67 0 0.34 0 0 Z " fill="#3188B6" transform="translate(362,203)"/>
<path d="M0 0 C1.98 0 3.96 0 6 0 C1.375 4 1.375 4 -2 4 C-1.34 2.68 -0.68 1.36 0 0 Z " fill="#3689BA" transform="translate(196,183)"/>
</svg>
