<?xml version="1.0" encoding="UTF-8"?>
<svg version="1.1" xmlns="http://www.w3.org/2000/svg" width="474" height="473">
<path d="M0 0 C156.42 0 312.84 0 474 0 C474 156.09 474 312.18 474 473 C317.58 473 161.16 473 0 473 C0 316.91 0 160.82 0 0 Z " fill="#020202" transform="translate(0,0)"/>
<path d="M0 0 C68.64 0 137.28 0 208 0 C208 0.66 208 1.32 208 2 C206.82050781 2.12375 205.64101562 2.2475 204.42578125 2.375 C180.96120592 5.12801257 158.23703006 11.65122037 137 22 C136.11876465 22.42684082 135.2375293 22.85368164 134.32958984 23.29345703 C116.0704257 32.24466943 100.20484718 43.17228567 84.9375 56.5625 C82 59 82 59 80 59 C79.67 59.99 79.34 60.98 79 62 C77.33784732 63.33895632 75.67036393 64.67130142 74 66 C72.31267723 67.98260426 70.64633943 69.9832342 69 72 C68.22140625 72.77472656 67.4428125 73.54945312 66.640625 74.34765625 C58.3351922 82.68994748 51.45603645 92.19053246 45 102 C44.5978125 102.60295898 44.195625 103.20591797 43.78125 103.82714844 C32.2003368 121.27994654 24.66441007 139.77955073 17.91040039 159.55249023 C17 162 17 162 15.97875977 163.89355469 C1.37325743 195.32689819 5.90650466 247.80229059 15 280 C15.58516686 282.56208192 16.16845688 285.12459313 16.75 287.6875 C20.53018628 303.00779677 26.84360327 317.20524464 34.0625 331.1875 C34.63983887 332.30938721 35.21717773 333.43127441 35.81201172 334.5871582 C39.4245056 341.43902213 43.43871438 347.74739661 48 354 C48.82092586 355.19090754 49.63783549 356.38460182 50.44921875 357.58203125 C57.69342823 368.03746099 66.00623297 377.01996392 75 386 C76.05589434 387.08867455 77.11049744 388.17860239 78.1640625 389.26953125 C85.00407152 396.30173072 91.82123165 402.51848504 100 408 C101.62553607 409.16591964 103.2505395 410.33258225 104.875 411.5 C116.31400962 419.4583601 128.37125273 427.04434963 141.43359375 432.01171875 C144.1573087 433.06057702 146.82200822 434.21465968 149.5 435.375 C161.29096844 440.25918769 173.22011795 444.01358427 185.6875 446.75 C186.58831299 446.94851563 187.48912598 447.14703125 188.41723633 447.3515625 C202.09649115 450.22028853 215.35279876 451.3292956 229.28759766 451.26074219 C231.86514963 451.2500409 234.44200049 451.26069443 237.01953125 451.2734375 C250.95023891 451.28573915 264.67586584 450.25226801 278.3125 447.25 C279.09117432 447.08081055 279.86984863 446.91162109 280.67211914 446.73730469 C317.04581049 438.55821803 353.30301798 422.37361487 381 397 C382.2287432 395.95783385 383.45792908 394.91618946 384.6875 393.875 C424.60557949 358.8288121 452.20776915 306.95631208 457.35424805 253.95141602 C457.66129162 250.80638777 457.99675329 248.00974013 459 245 C459.12146236 242.30776835 459.18770575 239.64232335 459.203125 236.94921875 C459.21013931 236.147155 459.21715363 235.34509125 459.22438049 234.51872253 C459.24197807 231.90825868 459.24824318 229.29802119 459.25 226.6875 C459.25067474 225.80008118 459.25134949 224.91266235 459.25204468 223.99835205 C459.23563182 210.45175912 458.73273178 197.30907028 456 184 C455.82839355 183.13890625 455.65678711 182.2778125 455.47998047 181.390625 C449.9929654 152.21264212 449.9929654 152.21264212 436 127 C435.27286283 125.32550697 434.54928553 123.64927879 433.85253906 121.96191406 C422.36255783 95.52047959 399.95108419 67.33028468 376 51 C376 50.34 376 49.68 376 49 C375.33742188 48.78472656 374.67484375 48.56945313 373.9921875 48.34765625 C369.97653208 46.5390386 366.6682911 44.03122924 363.125 41.4375 C350.29190211 32.24915073 337.44801992 25.00062816 322.91064453 18.84326172 C321.22921035 18.10116184 319.5885856 17.26802129 317.95703125 16.421875 C314.48393073 14.75185044 310.9473685 13.6616937 307.25 12.625 C306.13854614 12.30909912 306.13854614 12.30909912 305.00463867 11.98681641 C303.44620489 11.54454709 301.88719372 11.10430771 300.32763672 10.66601562 C298.0962359 10.02753635 295.87815473 9.35526649 293.66015625 8.671875 C281.92434723 5.13051069 270.16692865 3.37567498 258 2 C258 1.34 258 0.68 258 0 C329.28 0 400.56 0 474 0 C474 156.09 474 312.18 474 473 C317.58 473 161.16 473 0 473 C0 316.91 0 160.82 0 0 Z " fill="#FCFCFC" transform="translate(0,0)"/>
<path d="M0 0 C1.7644043 -0.04833984 1.7644043 -0.04833984 3.56445312 -0.09765625 C14.89019579 -0.1101778 24.19613453 4.00764377 32.37890625 11.8671875 C37.52125311 17.66682681 37.53504833 23.73372821 37.34375 31.2421875 C36.64240277 37.08225194 34.44514219 40.26793217 30.24609375 44.21484375 C25.37588128 47.88529616 20.70807819 48.31529979 14.71484375 48.05078125 C9.9001587 47.31266498 7.25703777 45.12654298 4.125 41.5625 C0.89916688 36.2992986 1.46792864 30.6374487 2.8125 24.875 C3.9375 21.625 3.9375 21.625 5 19.5625 C6.24756122 16.9842068 6.5527211 14.44671193 6.9375 11.625 C-0.4553017 9.35592225 -10.18491204 9.33089765 -17.26953125 12.59375 C-34.67769919 22.60629104 -41.5822787 41.80050491 -46.69140625 60.265625 C-51.21170579 77.47912981 -54.14463515 95.0831628 -57.0625 112.625 C-53.29085932 112.54284006 -49.52068803 112.43012594 -45.75 112.3125 C-44.69748047 112.28994141 -43.64496094 112.26738281 -42.56054688 112.24414062 C-32.91608454 111.91771267 -21.34273612 110.74390125 -14.0625 103.625 C-13.06173003 100.7132504 -13.06173003 100.7132504 -14.0625 97.625 C-15.08676437 95.92856214 -16.11222042 94.23269962 -17.16015625 92.55078125 C-18.82619481 88.99512319 -18.64514317 85.4445497 -18.0625 81.625 C-16.22409481 77.02898702 -13.49291256 74.76109177 -9.0625 72.625 C-3.74092873 71.84101852 0.53223058 71.97255349 5.4375 74.25 C9.888492 78.4784424 11.11377361 82.0179057 11.3125 88.0625 C11.04391481 96.3438766 7.49141741 102.64657935 1.9375 108.625 C-5.0977276 114.88285438 -13.13258902 117.95801317 -22.0625 120.625 C-23.20460938 120.99753906 -24.34671875 121.37007813 -25.5234375 121.75390625 C-32.04517825 123.3430994 -38.89385951 122.83300562 -45.5625 122.75 C-46.97134781 122.73995069 -48.38020255 122.73082829 -49.7890625 122.72265625 C-53.2137205 122.69919969 -56.63801939 122.66637384 -60.0625 122.625 C-60.10858398 123.32810303 -60.15466797 124.03120605 -60.20214844 124.75561523 C-60.79498581 132.82413189 -61.92324042 140.72025045 -63.3125 148.6875 C-63.53212402 149.9552124 -63.75174805 151.2229248 -63.97802734 152.52905273 C-65.68434417 162.09474985 -67.86726099 171.4199254 -70.54101562 180.75585938 C-71.25052405 183.29892891 -71.84177176 185.86569761 -72.4375 188.4375 C-81.33612315 223.88368221 -97.51633555 259.70391098 -126.0625 283.625 C-126.86429687 284.33785156 -127.66609375 285.05070312 -128.4921875 285.78515625 C-140.2915598 295.99143823 -153.13738293 301.58603104 -168.0625 305.625 C-168.73023438 305.82609375 -169.39796875 306.0271875 -170.0859375 306.234375 C-180.92549437 308.37657991 -192.90765442 306.75324154 -202.47265625 301.234375 C-209.15750596 296.48625745 -214.18589409 290.75214715 -216.0625 282.625 C-217.02499414 275.35934305 -215.51819727 270.01186906 -212.0625 263.625 C-211.4025 263.625 -210.7425 263.625 -210.0625 263.625 C-209.8253125 263.02171875 -209.588125 262.4184375 -209.34375 261.796875 C-206.90610138 257.66476332 -202.44508694 256.16963204 -198.0625 254.625 C-190.13449344 253.35651895 -184.39366512 255.42517398 -177.75 259.8125 C-174.3924433 263.32622213 -173.62204763 265.89507393 -173.0625 270.625 C-172.98 271.31207031 -172.8975 271.99914062 -172.8125 272.70703125 C-172.49504122 277.89549814 -173.70910098 280.74211692 -177.0625 284.625 C-178.135 285.285 -179.2075 285.945 -180.3125 286.625 C-181.22 287.285 -182.1275 287.945 -183.0625 288.625 C-183.56419415 291.79426564 -183.56419415 291.79426564 -183.0625 294.625 C-174.33755259 296.3413831 -168.18144751 294.67237344 -160.5625 290.13671875 C-128.00608523 266.60636128 -122.31308303 212.08413441 -116.375 175.625 C-116.25697021 174.88983154 -116.13894043 174.15466309 -116.01733398 173.3972168 C-115.33667415 169.17102303 -114.52795217 165.0167003 -113.53125 160.85546875 C-112.6557305 156.68945514 -112.11754908 152.46435875 -111.52734375 148.25 C-111.0625 145.625 -111.0625 145.625 -110.0625 144.625 C-109.61071772 142.33556279 -109.20146317 140.05027587 -108.8125 137.75 C-107.52083327 130.368684 -105.70926603 123.19972491 -103.60058594 116.01025391 C-101.92179675 110.31535972 -101.92179675 110.31535972 -103.0625 104.625 C-105.06176558 102.3214012 -105.06176558 102.3214012 -107.625 100.25 C-108.53378906 99.47140625 -109.44257813 98.6928125 -110.37890625 97.890625 C-111.26449219 97.14296875 -112.15007812 96.3953125 -113.0625 95.625 C-114.39687998 94.4178226 -115.73031104 93.20959489 -117.0625 92 C-120.76742293 88.76756724 -124.69664521 85.94721529 -128.765625 83.19140625 C-130.53570022 81.98426311 -132.2502605 80.6954483 -133.9375 79.375 C-142.65907597 74.49091746 -153.60764766 73.11896922 -163.3828125 75.09375 C-168.33666158 76.67596796 -172.02909086 79.39419252 -175.0625 83.625 C-177.58049392 89.57662198 -178.34827038 96.63563676 -176.33984375 102.8671875 C-174.26644913 107.31617192 -171.58459499 110.18905697 -168.0625 113.625 C-153.78286246 128.31788274 -140.6125119 142.62667495 -140.62646484 164.1328125 C-140.79632999 170.84611535 -142.5575458 175.87947826 -146.0625 181.625 C-146.49691406 182.40101563 -146.93132812 183.17703125 -147.37890625 183.9765625 C-154.80090383 196.28312259 -166.55107091 203.81051286 -180.25 207.5 C-199.23444422 211.35621523 -219.45777907 207.76503065 -235.81640625 197.2890625 C-243.5758582 191.54032071 -250.49712825 184.08341409 -253.0625 174.625 C-253.99923415 167.42893247 -254.80834489 158.8586706 -250.375 152.75 C-246.61763046 148.84373703 -243.80738258 146.82856963 -238.3125 146.1875 C-232.62218397 146.45641853 -227.51486077 148.25248353 -223.3828125 152.25 C-219.90703857 156.96291381 -219.27952067 161.62543899 -219.484375 167.390625 C-220.36097102 172.29482436 -222.47228641 176.36807854 -224.84765625 180.71484375 C-226.22272889 184.00882805 -226.3481121 185.32470572 -225.0625 188.625 C-219.59483837 194.67848252 -212.00584318 197.18685076 -204.125 198.0625 C-197.28042598 197.77502789 -189.75402539 194.58461255 -185.0625 189.625 C-181.3753494 184.54492584 -179.49877459 180.16727386 -179.59375 173.86328125 C-180.72242455 168.47386027 -183.67913932 164.62592148 -187.375 160.6875 C-188.55835938 159.40552734 -188.55835938 159.40552734 -189.765625 158.09765625 C-190.52359375 157.28167969 -191.2815625 156.46570313 -192.0625 155.625 C-198.0625 148.97865854 -198.0625 148.97865854 -198.0625 146.625 C-198.93068359 146.29435547 -198.93068359 146.29435547 -199.81640625 145.95703125 C-208.16665996 141.00496775 -212.30901178 128.42907178 -215.0625 119.625 C-218.07645057 107.14141119 -215.75777377 95.40546392 -209.16015625 84.47265625 C-201.29834906 73.23072466 -188.867353 64.09876851 -175.296875 61.02734375 C-154.24694618 58.40881396 -135.5766962 63.73555527 -118.0625 75.625 C-118.0625 76.285 -118.0625 76.945 -118.0625 77.625 C-117.51207031 77.84414062 -116.96164063 78.06328125 -116.39453125 78.2890625 C-113.33075093 80.04419293 -111.14731058 82.4559068 -108.75 85 C-104.83198214 89.05463944 -101.19482018 92.22991725 -96.0625 94.625 C-95.876875 93.47 -95.69125 92.315 -95.5 91.125 C-94.4246862 86.21937135 -92.56706872 81.77054469 -90.5625 77.1875 C-90.09928345 76.12208984 -90.09928345 76.12208984 -89.62670898 75.03515625 C-88.34414093 72.16584563 -87.30370523 69.86620523 -85.0625 67.625 C-84.37911505 66.01904537 -83.69790592 64.41213213 -83.02734375 62.80078125 C-72.20847086 38.40356587 -51.95681843 15.10188024 -27.0625 4.625 C-17.96001359 1.20344247 -9.69739888 -0.0533117 0 0 Z " fill="#F9F9F9" transform="translate(336.0625,83.375)"/>
<path d="M0 0 C5.94 0 11.88 0 18 0 C18 0.66 18 1.32 18 2 C15.60468244 2.33745354 13.20885732 2.6700829 10.8125 3 C10.13896484 3.09539062 9.46542969 3.19078125 8.77148438 3.2890625 C5.15335423 3.78324613 1.65203599 4.11346131 -2 4 C-2.33 3.34 -2.66 2.68 -3 2 C-2.01 2 -1.02 2 0 2 C0 1.34 0 0.68 0 0 Z " fill="#E2E2E2" transform="translate(190,0)"/>
<path d="M0 0 C0.66 0.33 1.32 0.66 2 1 C-3.33338902 7.7161195 -8.78169713 14.08668201 -15 20 C-15.66 19.67 -16.32 19.34 -17 19 C-16.27554687 18.21496094 -15.55109375 17.42992187 -14.8046875 16.62109375 C-9.77371983 11.15805576 -4.78086039 5.68534749 0 0 Z " fill="#D9D9D9" transform="translate(413,364)"/>
<path d="M0 0 C0.66 0 1.32 0 2 0 C1.67 1.32 1.34 2.64 1 4 C0.34 4 -0.32 4 -1 4 C-1.66 5.32 -2.32 6.64 -3 8 C-3.66 7.34 -4.32 6.68 -5 6 C-3.38405168 3.95880212 -1.7143618 1.95927063 0 0 Z M-7 7 C-5.68 7.66 -4.36 8.32 -3 9 C-5.39509338 11.89932357 -7.31245243 12.50168276 -11 13 C-10.67 12.01 -10.34 11.02 -10 10 C-9.34 10 -8.68 10 -8 10 C-7.67 9.01 -7.34 8.02 -7 7 Z " fill="#212121" transform="translate(77,62)"/>
<path d="M0 0 C0.66 0.33 1.32 0.66 2 1 C-0.20155648 6.60396195 -5.03841281 9.04986707 -10 12 C-10.66 12.66 -11.32 13.32 -12 14 C-12.33 13.34 -12.66 12.68 -13 12 C-8.87675353 7.74790208 -4.48717034 3.86364295 0 0 Z " fill="#151515" transform="translate(92,49)"/>
<path d="M0 0 C0.33 0.66 0.66 1.32 1 2 C-1.03811273 7.60481 -4.50752442 10.40601953 -9 14 C-9.66 14.66 -10.32 15.32 -11 16 C-13.125 15.625 -13.125 15.625 -15 15 C-14.41992188 14.5875 -13.83984375 14.175 -13.2421875 13.75 C-7.79730328 9.72473906 -3.738736 5.64475828 0 0 Z " fill="#CDCDCD" transform="translate(189,359)"/>
<path d="M0 0 C0.66 0.99 1.32 1.98 2 3 C-0.78999451 6.48749314 -3.25235831 9.50157221 -7 12 C-7.99 11.34 -8.98 10.68 -10 10 C-9.2575 9.4225 -8.515 8.845 -7.75 8.25 C-3.24910177 4.65227823 -3.24910177 4.65227823 0 0 Z " fill="#2B2B2B" transform="translate(162,362)"/>
<path d="M0 0 C2.125 0.9375 2.125 0.9375 4 2 C2.35 3.65 0.7 5.3 -1 7 C-1.66 6.34 -2.32 5.68 -3 5 C-2.75 2.9375 -2.75 2.9375 -2 1 C-1.34 0.67 -0.68 0.34 0 0 Z " fill="#151515" transform="translate(380,393)"/>
<path d="M0 0 C1.32 0.66 2.64 1.32 4 2 C4 2.66 4 3.32 4 4 C4.33 4.99 4.66 5.98 5 7 C1.20411134 6.45773019 -0.47211993 4.79872437 -3 2 C-2.01 1.34 -1.02 0.68 0 0 Z " fill="#181818" transform="translate(235,171)"/>
<path d="M0 0 C0.66 0.99 1.32 1.98 2 3 C2.66 3 3.32 3 4 3 C4 6 4 6 2.5 7.6875 C2.005 8.120625 1.51 8.55375 1 9 C-0.32 8.34 -1.64 7.68 -3 7 C-2.34 6.34 -1.68 5.68 -1 5 C-0.35232207 2.42938689 -0.35232207 2.42938689 0 0 Z " fill="#E7E7E7" transform="translate(323,182)"/>
<path d="M0 0 C0.33 0 0.66 0 1 0 C0.91253716 1.43861294 0.80434652 2.87597508 0.6875 4.3125 C0.62949219 5.11300781 0.57148438 5.91351563 0.51171875 6.73828125 C-0.08206694 9.36272334 -0.95780294 10.30820672 -3 12 C-2.979375 11.21625 -2.95875 10.4325 -2.9375 9.625 C-2.81315937 7.01885039 -2.81315937 7.01885039 -4 5 C-3.525625 4.54625 -3.05125 4.0925 -2.5625 3.625 C-0.90972192 2.06741796 -0.90972192 2.06741796 0 0 Z " fill="#1A1A1A" transform="translate(342,95)"/>
<path d="M0 0 C2.475 0.99 2.475 0.99 5 2 C4.34 3.65 3.68 5.3 3 7 C2.01 6.67 1.02 6.34 0 6 C0 4.02 0 2.04 0 0 Z " fill="#090909" transform="translate(337,93)"/>
<path d="M0 0 C-1.98 1.32 -3.96 2.64 -6 4 C-5.34 4.66 -4.68 5.32 -4 6 C-5.32 6 -6.64 6 -8 6 C-9.75 4 -9.75 4 -11 2 C-9.54494642 1.47007308 -8.08581873 0.9513211 -6.625 0.4375 C-5.81289063 0.14746094 -5.00078125 -0.14257812 -4.1640625 -0.44140625 C-2 -1 -2 -1 0 0 Z " fill="#D1D1D1" transform="translate(310,440)"/>
<path d="M0 0 C0.33 0 0.66 0 1 0 C1.6875 2.8125 1.6875 2.8125 2 6 C0.625 7.5625 0.625 7.5625 -1 9 C-1.72197162 11.60611077 -1.72197162 11.60611077 -2 14 C-2.33 14 -2.66 14 -3 14 C-3.34615998 8.34605369 -2.43425238 4.96993194 0 0 Z " fill="#5B5B5B" transform="translate(17,159)"/>
<path d="M0 0 C0.33 0.99 0.66 1.98 1 3 C-0.21484375 4.82421875 -0.21484375 4.82421875 -1.9375 6.6875 C-2.50339844 7.31011719 -3.06929688 7.93273437 -3.65234375 8.57421875 C-4.09707031 9.04472656 -4.54179687 9.51523438 -5 10 C-6.65 9.67 -8.3 9.34 -10 9 C-9.443125 8.5875 -8.88625 8.175 -8.3125 7.75 C-3.49637995 4.46020559 -3.49637995 4.46020559 0 0 Z " fill="#2C2C2C" transform="translate(370,122)"/>
<path d="M0 0 C0.33 1.32 0.66 2.64 1 4 C-1.64 5.98 -4.28 7.96 -7 10 C-7.66 9.67 -8.32 9.34 -9 9 C-4.375 4.125 -4.375 4.125 -1 3 C-0.67 2.01 -0.34 1.02 0 0 Z " fill="#393939" transform="translate(219,357)"/>
<path d="M0 0 C3.465 1.98 3.465 1.98 7 4 C6.34 5.32 5.68 6.64 5 8 C4.34 8 3.68 8 3 8 C0 2.25 0 2.25 0 0 Z " fill="#0F0F0F" transform="translate(207,166)"/>
<path d="M0 0 C2.55803184 3.83704776 4.34505724 7.75712791 3.625 12.4375 C3.41875 12.953125 3.2125 13.46875 3 14 C1.51171875 12.85546875 1.51171875 12.85546875 0 11 C-0.29296875 8.30078125 -0.29296875 8.30078125 -0.1875 5.3125 C-0.16042969 4.31863281 -0.13335937 3.32476562 -0.10546875 2.30078125 C-0.07066406 1.54152344 -0.03585937 0.78226563 0 0 Z " fill="#424242" transform="translate(450,160)"/>
<path d="M0 0 C0.33 0 0.66 0 1 0 C1.2757817 2.43707088 1.52131492 4.87095049 1.75 7.3125 C1.83121094 8.00279297 1.91242188 8.69308594 1.99609375 9.40429688 C2.171875 11.42578125 2.171875 11.42578125 2 15 C0.015625 16.98046875 0.015625 16.98046875 -2 18 C-1.84660156 17.48953125 -1.69320313 16.9790625 -1.53515625 16.453125 C-0.83094597 13.2250662 -0.65111796 10.04581999 -0.4375 6.75 C-0.35371094 5.48671875 -0.26992188 4.2234375 -0.18359375 2.921875 C-0.12300781 1.95765625 -0.06242187 0.9934375 0 0 Z " fill="#4B4B4B" transform="translate(373,104)"/>
<path d="M0 0 C1.9375 0.3125 1.9375 0.3125 4 1 C4.33 1.99 4.66 2.98 5 4 C4.01 4.66 3.02 5.32 2 6 C2 5.01 2 4.02 2 3 C1.34 3 0.68 3 0 3 C-0.33 3.99 -0.66 4.98 -1 6 C-1.33 5.01 -1.66 4.02 -2 3 C-1.34 2.01 -0.68 1.02 0 0 Z " fill="#E8E8E8" transform="translate(162,193)"/>
<path d="M0 0 C0.66 0.33 1.32 0.66 2 1 C1.67 2.65 1.34 4.3 1 6 C-0.98 5.34 -2.96 4.68 -5 4 C-3.35 2.68 -1.7 1.36 0 0 Z " fill="#E7E7E7" transform="translate(354,417)"/>
<path d="M0 0 C-2.62198774 2.15377564 -4.64404172 3.40072174 -8 4 C-8 3.01 -8 2.02 -8 1 C-3.375 -1.125 -3.375 -1.125 0 0 Z " fill="#E9E9E9" transform="translate(139,20)"/>
<path d="M0 0 C0.99 0.66 1.98 1.32 3 2 C2.34 3.32 1.68 4.64 1 6 C0.01 6 -0.98 6 -2 6 C-2.33 5.01 -2.66 4.02 -3 3 C-2.01 2.01 -1.02 1.02 0 0 Z " fill="#0A0A0A" transform="translate(165,162)"/>
<path d="M0 0 C1.98 1.65 3.96 3.3 6 5 C5.01 5.66 4.02 6.32 3 7 C2.34 6.67 1.68 6.34 1 6 C0.375 2.9375 0.375 2.9375 0 0 Z " fill="#DBDBDB" transform="translate(221,163)"/>
<path d="M0 0 C0.66 0.33 1.32 0.66 2 1 C-0.31 3.31 -2.62 5.62 -5 8 C-5.33 7.34 -5.66 6.68 -6 6 C-4 4 -2 2 0 0 Z " fill="#C4C4C4" transform="translate(325,157)"/>
<path d="M0 0 C0.99 0.33 1.98 0.66 3 1 C2.34 3.31 1.68 5.62 1 8 C-1 5 -1 5 -0.625 2.3125 C-0.41875 1.549375 -0.2125 0.78625 0 0 Z " fill="#1C1C1C" transform="translate(372,96)"/>
</svg>
