<?xml version="1.0" encoding="UTF-8"?>
<svg version="1.1" xmlns="http://www.w3.org/2000/svg" width="256" height="256">
<path d="M0 0 C1.258125 0.33902344 2.51625 0.67804687 3.8125 1.02734375 C23.38158596 6.85246362 40.26773304 18.08485715 55 32 C55.73863281 32.67417969 56.47726563 33.34835938 57.23828125 34.04296875 C78.22144442 53.90802376 92.15641625 83.91414372 93.50561523 112.84889221 C93.60825124 116.67195476 93.60588458 120.4885728 93.5625 124.3125 C93.55857239 125.11471985 93.55464478 125.9169397 93.55059814 126.74346924 C93.46156779 139.68822533 92.31225514 151.70366851 88 164 C87.77006348 164.680625 87.54012695 165.36125 87.30322266 166.0625 C82.0723094 181.22585506 74.34204375 194.79600605 64 207 C63.56284668 207.51691406 63.12569336 208.03382813 62.67529297 208.56640625 C43.01765639 231.50870094 14.31371894 248.35566688 -16 252 C-22.11722822 252.41863977 -28.2459307 252.43914388 -34.375 252.4375 C-35.64006882 252.43910126 -35.64006882 252.43910126 -36.93069458 252.44073486 C-50.19364237 252.41649535 -62.39724016 251.43659568 -75 247 C-75.67385742 246.77538086 -76.34771484 246.55076172 -77.04199219 246.31933594 C-92.64344721 241.03683244 -106.34814698 232.4034278 -119 222 C-119.69738281 221.44441406 -120.39476562 220.88882813 -121.11328125 220.31640625 C-125.59986765 216.64556283 -129.33306607 212.47852897 -133 208 C-133.77472656 207.06285156 -134.54945313 206.12570313 -135.34765625 205.16015625 C-157.99075661 177.15933909 -165.28452885 144.47512583 -163 109 C-162.27413024 102.16929668 -160.85028925 95.60641223 -159 89 C-158.82871582 88.34757324 -158.65743164 87.69514648 -158.48095703 87.02294922 C-150.10958306 55.70066142 -126.70930755 28.16266054 -99 12 C-88.49732255 6.24253789 -77.5675014 2.03911951 -66 -1 C-64.28296875 -1.47953125 -64.28296875 -1.47953125 -62.53125 -1.96875 C-42.65414163 -6.63554936 -19.52018759 -5.73644728 0 0 Z " fill="#F9D52A" transform="translate(163,4)"/>
<path d="M0 0 C5.75002615 3.34281181 10.67404391 7.59473481 15.3046875 12.33984375 C18.69970966 11.31104916 20.88560889 9.9120343 23.4296875 7.52734375 C32.06104675 -0.14706046 43.85728679 -3.22752429 55.21484375 -2.97265625 C65.55626186 -1.92674797 74.88879526 1.21639747 83.3046875 7.33984375 C83.93761719 7.79101562 84.57054687 8.2421875 85.22265625 8.70703125 C93.88344813 15.47506729 100.69536216 26.40857729 102.3046875 37.33984375 C103.20297973 51.88689384 102.53506614 65.7218955 92.61328125 77.31640625 C91.54767807 78.47843292 90.45998168 79.62089265 89.34375 80.734375 C88.11789076 82.29205074 88.11789076 82.29205074 88.375 84.2734375 C89.61452198 87.02850945 91.3356408 88.54714513 93.5546875 90.58984375 C100.06417554 96.8712924 104.39223646 102.78067196 104.6171875 112.02734375 C104.4936572 120.59211112 101.82287829 124.97060341 95.9921875 131.08984375 C94.45304638 132.53185461 92.89229347 133.95137049 91.3046875 135.33984375 C90.76070312 135.82066406 90.21671875 136.30148438 89.65625 136.796875 C84.07410778 140.80638325 76.81842565 140.15777891 70.3046875 139.33984375 C61.84553654 136.8127389 55.46653026 129.35926347 49.3046875 123.33984375 C48.57958984 122.63520996 47.85449219 121.93057617 47.10742188 121.20458984 C44.74774025 118.90424352 42.39899666 116.59334943 40.0546875 114.27734375 C38.9090332 113.15150879 38.9090332 113.15150879 37.74023438 112.00292969 C37.03447266 111.29813477 36.32871094 110.59333984 35.6015625 109.8671875 C34.96573242 109.23546631 34.32990234 108.60374512 33.67480469 107.95288086 C32.3046875 106.33984375 32.3046875 106.33984375 32.3046875 104.33984375 C35.85091305 101.47998443 39.36220765 100.76497452 43.73046875 100.0625 C51.62357438 100.9128953 56.81822402 106.37669995 61.9921875 111.90234375 C68.48683967 119.1809193 68.48683967 119.1809193 77.2421875 122.83984375 C81.55480462 122.135743 83.19325721 120.3789152 86.3046875 117.33984375 C87.87891693 114.1913849 88.23936535 111.69627623 87.3046875 108.33984375 C81.31511041 100.23439894 73.32974897 93.20958127 66.19995117 86.10473633 C64.34239158 84.2526205 62.4903452 82.39510821 60.63867188 80.53710938 C59.45605035 79.3551473 58.27311939 78.17349473 57.08984375 76.9921875 C56.53780777 76.43812729 55.98577179 75.88406708 55.41700745 75.31321716 C51.49808523 71.41845223 49.25337267 69.78388896 43.546875 69.7734375 C39.02455958 70.91583425 36.20662817 74.88221231 33.3046875 78.33984375 C30.08944445 76.93139657 27.98284882 75.23639589 25.5546875 72.71484375 C24.63429688 71.76738281 24.63429688 71.76738281 23.6953125 70.80078125 C23.23640625 70.31867188 22.7775 69.8365625 22.3046875 69.33984375 C23.68125958 66.31138518 25.33353084 64.04492195 27.4921875 61.52734375 C29.6837383 58.60707532 30.28226731 57.59094984 30.6171875 53.83984375 C27.26847809 44.909952 17.98612319 37.83500892 11.31518555 31.16503906 C9.60500884 29.45264933 7.90302814 27.73237331 6.20117188 26.01171875 C5.10725984 24.91487666 4.01287572 23.81850515 2.91796875 22.72265625 C2.41372879 22.21123077 1.90948883 21.6998053 1.38996887 21.17288208 C-2.13562289 17.67000058 -4.68183538 15.59688338 -9.6328125 14.96484375 C-13.45671605 15.43307684 -14.96220607 16.68265694 -17.6953125 19.33984375 C-20.12140488 22.97898232 -20.41175659 24.04117919 -19.6953125 28.33984375 C-15.72008485 35.09246555 -9.70291332 40.42922449 -4.05078125 45.76171875 C-1.17256335 48.912007 0.23249099 51.33209308 0.38671875 55.62109375 C-0.17019979 60.20558259 -0.86819565 63.5293819 -3.6953125 67.33984375 C-9.36011179 64.99915431 -13.29898921 60.06967893 -17.54907227 55.80175781 C-19.11551332 54.2321776 -20.69473348 52.67633999 -22.27539062 51.12109375 C-30.09933642 43.34631706 -36.96155874 35.92196594 -38.0703125 24.46484375 C-37.8060588 16.28852345 -32.42010698 9.75217381 -26.6953125 4.33984375 C-17.93584701 -2.37914725 -10.31641566 -5.01542007 0 0 Z " fill="#2E2225" transform="translate(94.6953125,59.66015625)"/>
<path d="M0 0 C8.32772727 5.69486642 12.84942211 12.54826633 16 22 C17.08500547 33.52595976 14.44809158 42.64951065 7.171875 51.63671875 C6.78515625 52.08660156 6.3984375 52.53648437 6 53 C1.057555 52.51271669 -1.6007064 48.54965746 -4.7578125 45.125 C-8.4606675 41.234922 -12.01521953 38.3998749 -17.44921875 37.671875 C-18.18785156 37.69765625 -18.92648438 37.7234375 -19.6875 37.75 C-20.80705078 37.77320312 -20.80705078 37.77320312 -21.94921875 37.796875 C-24.19863621 37.94333393 -24.19863621 37.94333393 -27 39 C-26.89558594 37.74896484 -26.89558594 37.74896484 -26.7890625 36.47265625 C-26.38431056 28.05959809 -27.34557453 23.27127188 -33 17 C-35.9153549 13.90450935 -38.90185839 10.91225311 -42 8 C-32.37095218 -5.8016352 -14.29257098 -7.07005844 0 0 Z " fill="#F7D329" transform="translate(165,78)"/>
<path d="M0 0 C9.26482213 1.15810277 9.26482213 1.15810277 13 5 C16.07240123 9.15045301 16.3561009 12.15582707 16.29296875 17.26953125 C16.28872391 17.95053391 16.28447906 18.63153656 16.28010559 19.33317566 C16.2634061 21.49336459 16.22577312 23.65259642 16.1875 25.8125 C16.17244174 27.28318958 16.15875534 28.75389389 16.14648438 30.22460938 C16.11353214 33.81671357 16.06181173 37.40826326 16 41 C16.9379541 40.97905273 17.8759082 40.95810547 18.84228516 40.93652344 C22.34238625 40.86810627 25.84177066 40.81808414 29.34228516 40.78027344 C30.85346736 40.76023209 32.36457272 40.73299095 33.87548828 40.69824219 C36.05520643 40.64938891 38.23389431 40.62695776 40.4140625 40.609375 C41.7232666 40.58842773 43.0324707 40.56748047 44.38134766 40.54589844 C49.65067235 41.20714145 52.6306695 43.6306695 56.3125 47.3125 C58 50 58 50 59 57 C39.53 57 20.06 57 0 57 C0 38.19 0 19.38 0 0 Z " fill="#2C2025" transform="translate(60,136)"/>
<path d="M0 0 C-0.58265625 0.26554687 -1.1653125 0.53109375 -1.765625 0.8046875 C-4.06174228 2.03302996 -5.80356018 3.40314939 -7.75 5.125 C-8.36359375 5.66382812 -8.9771875 6.20265625 -9.609375 6.7578125 C-10.06828125 7.16773437 -10.5271875 7.57765625 -11 8 C-11.66 7.67 -12.32 7.34 -13 7 C-8.96482162 1.71252488 -6.78502238 -0.30155655 0 0 Z " fill="#E7C72C" transform="translate(88,74)"/>
</svg>
