<?xml version="1.0" encoding="UTF-8"?>
<svg version="1.1" xmlns="http://www.w3.org/2000/svg" width="660" height="330">
<path d="M0 0 C1.76456509 0.14793684 3.52883355 0.29941469 5.29296875 0.45239258 C6.27547607 0.53636795 7.2579834 0.62034332 8.27026367 0.7068634 C24.17110683 2.41439794 39.35494425 12.87863496 49.3125 24.9375 C62.44688777 42.37868294 68.42311517 62.51691803 71 84 C71.16822266 85.37671875 71.16822266 85.37671875 71.33984375 86.78125 C72.08384057 94.36390249 72.10172579 101.9490617 72.125 109.5625 C72.12967285 110.5836792 72.1343457 111.6048584 72.13916016 112.65698242 C72.12809 118.1669403 71.97748716 123.64255088 71.64250183 129.14277649 C70.71876423 144.67139232 70.81266771 160.22091262 70.81469727 175.77099609 C70.8147786 179.17013866 70.8078094 182.56914667 70.79418945 185.96826172 C68.6873166 215.27017771 68.6873166 215.27017771 74 243 C83.96516435 226.73851798 93.34878944 210.22650135 101.9609375 193.20703125 C102.65784432 191.83567644 103.35478457 190.46433863 104.05175781 189.09301758 C105.39575155 186.44720122 106.72359874 183.79414498 108.04199219 181.13549805 C116.67465725 163.95209466 126.69848891 149.65432229 145 142 C152.2633793 139.78176126 158.89856047 140.68503934 165.7734375 143.75 C172.33468198 147.43350567 174.94942594 154.11120512 177 161 C181.07545561 177.96955245 179.1332244 196.35649831 178.58618164 213.64477539 C177.98260602 230.41538642 177.98260602 230.41538642 178.25 247.1875 C178.27634521 247.87956543 178.30269043 248.57163086 178.32983398 249.28466797 C179.15235827 262.26589287 186.56583488 273.05437993 195.6875 281.875 C201.53805777 286.81708607 208.00414778 290.0429903 215 293 C215.84691406 293.36222656 216.69382813 293.72445313 217.56640625 294.09765625 C230.36983155 298.51617381 246.72516535 296.5683349 260 295 C260 295.66 260 296.32 260 297 C219.99945673 318.70128431 219.99945673 318.70128431 198 320 C196.90365234 320.07927734 196.90365234 320.07927734 195.78515625 320.16015625 C179.91944938 320.76732972 164.66006051 316.11898569 152.625 305.625 C151.06432607 304.10257788 149.52158669 302.56148844 148 301 C146.95585937 300.00419922 146.95585937 300.00419922 145.890625 298.98828125 C132.14589059 285.0038131 128.53422948 265.67652302 126 247 C125.57702637 247.88147705 125.15405273 248.7629541 124.71826172 249.67114258 C123.12206094 252.99563109 121.52201284 256.3182564 119.92089844 259.64038086 C119.23335253 261.0682744 118.5467994 262.49664647 117.86132812 263.92553711 C107.37605915 285.77751214 97.40624591 304.74987677 73.62890625 314.08984375 C60.33500794 318.69233752 45.63015414 316.29418483 33.0390625 310.6796875 C17.31468694 302.61929331 6.09941297 290.58581829 0 274 C-8.53688367 244.82847906 -5.15694502 213.00690407 -3.24316406 183.13671875 C-0.54050328 140.20677535 0.3008791 97.30310109 0.1373291 54.29608154 C0.11626766 48.13164755 0.10761142 41.96719453 0.09765625 35.80273438 C0.07668242 23.86844338 0.04290527 11.93423103 0 0 Z " fill="#52B1D8" transform="translate(34,5)"/>
<path d="M0 0 C8.3147524 7.59173045 10.34333309 19.20853842 11 30 C11.48182056 42.87797893 10.99353392 55.7711581 10.58618164 68.64477539 C9.98260602 85.41538642 9.98260602 85.41538642 10.25 102.1875 C10.27634521 102.87956543 10.30269043 103.57163086 10.32983398 104.28466797 C11.15235827 117.26589287 18.56583488 128.05437993 27.6875 136.875 C33.53805777 141.81708607 40.00414778 145.0429903 47 148 C47.84691406 148.36222656 48.69382813 148.72445312 49.56640625 149.09765625 C62.36983155 153.51617381 78.72516535 151.5683349 92 150 C92 150.66 92 151.32 92 152 C51.99945673 173.70128431 51.99945673 173.70128431 30 175 C28.90365234 175.07927734 28.90365234 175.07927734 27.78515625 175.16015625 C11.91944938 175.76732972 -3.33993949 171.11898569 -15.375 160.625 C-16.93567393 159.10257788 -18.47841331 157.56148844 -20 156 C-20.69609375 155.33613281 -21.3921875 154.67226563 -22.109375 153.98828125 C-35.85410941 140.0038131 -39.46577052 120.67652302 -42 102 C-42.41773682 102.8971875 -42.83547363 103.794375 -43.26586914 104.71875 C-44.83860602 108.08727505 -46.42885512 111.4472924 -48.02416992 114.80517578 C-48.70856493 116.25185134 -49.38836871 117.70070914 -50.06323242 119.15185547 C-59.76217359 139.98555441 -59.76217359 139.98555441 -70 145 C-74.09769017 145.65042701 -76.39638386 145.9615308 -79.9609375 143.82421875 C-89.86206157 135.7403896 -92.83768544 121.91716453 -94.73828125 109.78125 C-94.82464844 108.8634375 -94.91101563 107.945625 -95 107 C-95.13277344 105.93910156 -95.26554687 104.87820312 -95.40234375 103.78515625 C-94.81668251 98.27539178 -92.17630165 94.55886281 -89.25 89.9375 C-88.03999796 87.95754163 -86.83303927 85.97572065 -85.62890625 83.9921875 C-85.0167627 82.98897461 -84.40461914 81.98576172 -83.77392578 80.95214844 C-81.12919771 76.55082007 -78.63942869 72.07345797 -76.1875 67.5625 C-75.70909668 66.6852124 -75.23069336 65.8079248 -74.73779297 64.90405273 C-71.754484 59.38284254 -68.8761922 53.81394797 -66.04296875 48.21484375 C-65.34549136 46.84235008 -64.64798144 45.46987294 -63.95043945 44.09741211 C-62.60564103 41.44996374 -61.27696517 38.79528689 -59.95776367 36.13500977 C-51.32518069 18.95177896 -41.30129991 4.65423397 -23 -3 C-14.89467968 -5.47536785 -7.3249603 -4.11225841 0 0 Z " fill="#D52973" transform="translate(202,150)"/>
<path d="M0 0 C0.78181641 -0.02900391 1.56363281 -0.05800781 2.36914062 -0.08789062 C8.15874582 -0.15076854 11.41489643 1.01873134 16.1875 4.3125 C17.1775 5.3025 17.1775 5.3025 18.1875 6.3125 C18.5175 4.6625 18.8475 3.0125 19.1875 1.3125 C29.4175 1.3125 39.6475 1.3125 50.1875 1.3125 C50.20937378 4.8707959 50.20937378 4.8707959 50.23168945 8.50097656 C50.28201245 16.33618733 50.3486034 24.17119888 50.42321491 32.00621414 C50.46795438 36.75689246 50.50720257 41.50748431 50.53393555 46.25830078 C50.55993291 50.84258383 50.60030987 55.42653477 50.65068626 60.01061249 C50.66737916 61.76006695 50.67887834 63.50957888 50.68511391 65.25910187 C50.6947288 67.70857104 50.7227557 70.15718591 50.75512695 72.60644531 C50.75369186 73.33077255 50.75225677 74.05509979 50.7507782 74.80137634 C50.80874973 77.9001992 51.02908534 80.03036105 52.55949402 82.75604248 C54.77738006 84.8764557 56.34820877 84.90526409 59.375 85.0625 C60.72658203 85.14757812 60.72658203 85.14757812 62.10546875 85.234375 C62.79253906 85.26015625 63.47960937 85.2859375 64.1875 85.3125 C63.77691399 91.77922961 62.91925009 97.8465837 59.1875 103.3125 C55.17237148 106.54063419 51.36000744 106.82514208 46.375 106.75 C45.66230957 106.74025146 44.94961914 106.73050293 44.21533203 106.72045898 C38.73843757 106.53555582 34.31604133 106.08203774 30.1875 102.3125 C24.1875 95.11769481 24.1875 95.11769481 24.1875 90.3125 C23.5275 90.3125 22.8675 90.3125 22.1875 90.3125 C21.81625 91.3953125 21.81625 91.3953125 21.4375 92.5 C18.60581934 98.87128149 14.18119755 102.11257934 8.1875 105.3125 C-0.05864247 108.06121416 -11.75576438 107.46717335 -19.59375 103.72265625 C-24.80239126 100.4122346 -29.38480826 96.4540376 -32.8125 91.3125 C-33.28558594 91.90417969 -33.75867188 92.49585938 -34.24609375 93.10546875 C-39.72810279 99.65609554 -45.31367339 104.46641932 -53.8125 106.3125 C-74.36220954 107.54386766 -74.36220954 107.54386766 -81.8125 102.3125 C-88.9315383 95.4221246 -91.61944172 86.28571977 -91.93275452 76.59182739 C-91.93562275 75.18768424 -91.93306481 73.78352296 -91.92602539 72.37939453 C-91.92617142 71.6079863 -91.92631744 70.83657806 -91.9264679 70.04179382 C-91.92577508 67.50960409 -91.91801241 64.97748928 -91.91015625 62.4453125 C-91.90828983 60.6826888 -91.90686698 58.92006459 -91.90586853 57.15744019 C-91.90206103 52.53131666 -91.89224589 47.90522482 -91.88116455 43.27911377 C-91.87091238 38.55326771 -91.86636277 33.82741649 -91.86132812 29.1015625 C-91.85062197 19.83852555 -91.83303955 10.57552037 -91.8125 1.3125 C-81.5825 1.3125 -71.3525 1.3125 -60.8125 1.3125 C-60.79268066 3.61887451 -60.77286133 5.92524902 -60.75244141 8.30151367 C-60.68550915 15.92514008 -60.60786993 23.54863042 -60.52497292 31.17209911 C-60.47504519 35.79382009 -60.4287148 40.41551861 -60.390625 45.03735352 C-60.35372773 49.49838605 -60.30735564 53.95922902 -60.25443649 58.42009926 C-60.23591616 60.12128687 -60.22079948 61.82251508 -60.20915604 63.52376366 C-60.19225311 65.90821076 -60.16320864 68.29222597 -60.13134766 70.67651367 C-60.12918747 71.37854416 -60.12702728 72.08057465 -60.12480164 72.80387878 C-60.05809049 76.7166367 -59.65664879 79.83262468 -57.8125 83.3125 C-54.10053409 85.16848295 -49.85367386 84.90342637 -45.8125 84.3125 C-42.72451326 82.06192433 -42.72451326 82.06192433 -40.8125 79.3125 C-40.4825 78.9825 -40.1525 78.6525 -39.8125 78.3125 C-39.77350452 76.15785733 -39.80130166 74.0019709 -39.85546875 71.84765625 C-39.88151567 70.48472782 -39.90603233 69.12176949 -39.92919922 67.75878906 C-39.94174744 67.04243286 -39.95429565 66.32607666 -39.96722412 65.5880127 C-40.28397137 44.20137971 -38.65598405 24.73991919 -23.12109375 8.4453125 C-15.84137877 1.71989054 -9.65688606 0.11767124 0 0 Z M-1.5078125 20.765625 C-9.4385685 36.28043728 -11.84286097 56.78572762 -7.5 73.8125 C-5.82226315 78.78269697 -4.26648822 82.34317452 0.1875 85.3125 C4.76985332 85.98043625 8.86131041 85.94676459 13.0625 83.9375 C18.93497186 76.68327005 19.78254427 68.61481882 19.68359375 59.57421875 C19.68504898 58.49042435 19.68650421 57.40662994 19.68800354 56.28999329 C19.6863541 54.01678761 19.67490103 51.74356965 19.65405273 49.47045898 C19.62493467 45.99219564 19.63349729 42.51544397 19.64648438 39.03710938 C19.64025085 36.82030511 19.63186294 34.60350562 19.62109375 32.38671875 C19.62402939 31.35020676 19.62696503 30.31369476 19.62998962 29.24577332 C19.59873923 22.25939208 19.59873923 22.25939208 16.1875 16.3125 C12.99531862 14.18437908 11.08330568 14.0138877 7.3203125 13.8515625 C3.22924627 14.73571234 0.807453 17.41542515 -1.5078125 20.765625 Z " fill="#ED217C" transform="translate(564.8125,183.6875)"/>
<path d="M0 0 C3.98660315 14.38799898 7.96152486 28.77941889 11.875 43.1875 C12.30341187 44.75056885 12.30341187 44.75056885 12.74047852 46.34521484 C22.15697874 81.15944207 22.15697874 81.15944207 15 96 C9.04071344 104.71288794 2.08803863 108.58498469 -8 111 C-11.27512662 111.32143525 -14.52298195 111.38119612 -17.8125 111.375 C-18.6988916 111.37338867 -19.5852832 111.37177734 -20.49853516 111.37011719 C-27.02590869 111.24761634 -32.31113109 110.37813247 -38 107 C-39.051875 106.4225 -40.10375 105.845 -41.1875 105.25 C-44.92982969 102.25613624 -48.16669256 98.87274567 -51 95 C-51 94.34 -51 93.68 -51 93 C-51.66 93 -52.32 93 -53 93 C-53.2578125 93.58910156 -53.515625 94.17820312 -53.78125 94.78515625 C-58.23624426 102.88125159 -67.8067778 107.15682649 -76.13671875 110.11328125 C-86.56260655 112.50628077 -100.81814383 112.94387507 -110.6796875 108.45703125 C-121.64067502 101.57412158 -127.75946254 93.17874432 -130.81811523 80.75952148 C-134.79509207 62.01335347 -132.90707922 38.78679486 -122.3671875 22.47265625 C-116.13862063 14.07945292 -108.44861659 7.2455567 -98 5 C-94.73216689 4.75834511 -91.46341298 4.76900457 -88.1875 4.75 C-87.31029297 4.729375 -86.43308594 4.70875 -85.52929688 4.6875 C-77.26359727 4.63804181 -71.63996693 6.75719422 -65.5078125 12.421875 C-60.02804069 18.15718021 -60 25.42849823 -60 33 C-60.93517712 43.41845756 -65.32787096 51.91464947 -73 59 C-81.48413064 65.31675609 -90.42460881 68.58752173 -101 68 C-100.60046917 70.3790245 -100.18111095 72.75166756 -99.75 75.125 C-99.64042969 75.79015625 -99.53085937 76.4553125 -99.41796875 77.140625 C-98.53757514 81.86694857 -97.16002588 85.24065886 -94 89 C-87.5036902 93.29755879 -80.50531693 92.69816902 -73 92 C-66.37242567 90.38632973 -60.25442006 86.32815465 -56 81 C-55.03381688 78.53702499 -54.41498401 76.22934227 -53.9609375 73.625 C-52.97520443 70.93226575 -52.10173306 69.92017675 -50.16796875 67.8828125 C-46.18249772 63.44254297 -44.68269134 58.50014985 -42.9375 52.875 C-42.43162354 51.29851685 -42.43162354 51.29851685 -41.91552734 49.69018555 C-37.67321734 36.19128091 -34.13712914 22.46694953 -32.45703125 8.3984375 C-32 6 -32 6 -30 3 C-27.98803711 2.3840332 -27.98803711 2.3840332 -25.52734375 2.05078125 C-24.17672852 1.86225586 -24.17672852 1.86225586 -22.79882812 1.66992188 C-21.85458984 1.55197266 -20.91035156 1.43402344 -19.9375 1.3125 C-19.02033203 1.18294922 -18.10316406 1.05339844 -17.15820312 0.91992188 C-11.38952979 0.14722219 -5.81810482 -0.1250565 0 0 Z M-94 24 C-98.74236033 34.30610986 -100.27858397 44.78008226 -101 56 C-94.41541338 55.71980482 -89.95905224 53.30986722 -85 49 C-79.18166281 42.29034307 -76.61540373 35.64550203 -77.125 26.8125 C-77.69782664 22.53934495 -78.53316088 19.81095064 -82 17 C-88.2174428 15.3780584 -90.98909018 19.0923871 -94 24 Z M-25 31 C-25.16081055 31.56807373 -25.32162109 32.13614746 -25.48730469 32.72143555 C-31.18455154 52.82231396 -31.18455154 52.82231396 -34.3359375 62.69921875 C-35.09243515 64.92114445 -35.09243515 64.92114445 -35 67 C-34.34 67.515625 -33.68 68.03125 -33 68.5625 C-30.37445564 71.76238219 -30.59631106 73.86124586 -30.6640625 77.87890625 C-31 80 -31 80 -33 83 C-35.1640625 83.51171875 -35.1640625 83.51171875 -37.625 83.6875 C-38.44226563 83.75324219 -39.25953125 83.81898438 -40.1015625 83.88671875 C-40.72804688 83.92410156 -41.35453125 83.96148437 -42 84 C-39.71378224 89.03043376 -39.71378224 89.03043376 -36 93 C-30.10637599 94.96454134 -24.02011802 94.99233868 -18.4375 92.25 C-15.11907841 89.18684161 -14.16036447 87.27520589 -13.59375 82.76953125 C-13.17383254 65.04551527 -18.36005249 47.68760941 -24 31 C-24.33 31 -24.66 31 -25 31 Z " fill="#25AAE1" transform="translate(361,179)"/>
<path d="M0 0 C9.0315057 4.27231918 12.96772889 14.10385944 16.30029297 23.02734375 C21.62869099 38.04948473 25.0555741 53.56490182 26.671875 69.41796875 C26.79842468 70.65773972 26.92497437 71.89751068 27.05535889 73.17485046 C28.27751911 86.23890026 28.38578405 99.25917621 28.28125 112.37084961 C28.25492893 115.69080011 28.24206053 119.01016208 28.23744583 122.33016968 C28.20335443 144.48916003 28.20335443 144.48916003 27.5 153.98828125 C26.66680411 165.25233219 26.77538449 176.5515663 26.75976562 187.84082031 C26.75325291 191.83154432 26.71901513 195.82189609 26.6875 199.8125 C26.5522718 232.76510135 27.49757612 275.11888516 51.5390625 300.7578125 C56.29954913 305.09514476 61.62756886 308.22303248 68.1875 308.375 C71.82343875 308.01736668 75.3972328 307.6004612 79 307 C74.52034676 312.02904467 68.54050209 312.78871072 62.0546875 313.328125 C42.18282683 314.08486521 26.60567477 306.46442026 12.1015625 293.2734375 C-6.3224968 274.34917749 -6.41030917 244.6231786 -6.23046875 219.98828125 C-5.96393206 202.49622619 -4.62944745 185.00843292 -3.55429077 167.55197144 C-3.04979499 159.23115643 -2.65910473 150.90811107 -2.36390686 142.57719421 C-2.10782057 136.10782057 -2.10782057 136.10782057 -1 135 C-0.6022623 131.48246734 -0.56502059 127.92679658 -0.44140625 124.390625 C-0.39915421 123.18488831 -0.35690216 121.97915161 -0.31336975 120.73687744 C0.36832048 98.99605823 0.10852872 77.22449668 0.06866455 55.47625732 C0.0582927 49.20683126 0.05383771 42.93740099 0.04882812 36.66796875 C0.03821807 24.44530166 0.02123225 12.22265295 0 0 Z " fill="#0290C7" transform="translate(35,8)"/>
<path d="M0 0 C0 14.52 0 29.04 0 44 C5.61 44 11.22 44 17 44 C17 47.96 17 51.92 17 56 C11.39 56 5.78 56 0 56 C0.0612273 68.28298502 0.13834555 80.56575784 0.23571491 92.84851265 C0.28042965 98.55198884 0.31968353 104.2553934 0.34643555 109.95898438 C0.37245723 115.46395352 0.41285206 120.96864724 0.46318626 126.47344589 C0.47986257 128.57293139 0.49137208 130.67246454 0.49761391 132.77200699 C0.50724649 135.71434609 0.53529635 138.65597933 0.56762695 141.59814453 C0.56619186 142.46489304 0.56475677 143.33164154 0.5632782 144.22465515 C0.64055713 149.20225621 1.193899 152.71198081 4 157 C7.47792817 159.31861878 8.90299252 159.24272927 13 159.1875 C14.051875 159.18105469 15.10375 159.17460937 16.1875 159.16796875 C19.08062122 159.11707549 19.08062122 159.11707549 22 158 C23 159 23 159 23.25 162.9375 C23.1521464 169.76550666 21.51369416 175.59589751 17.875 181.375 C11.49032844 187.20448273 4.58160719 188.68687282 -3.875 188.5 C-4.75051514 188.48864014 -5.62603027 188.47728027 -6.52807617 188.46557617 C-13.26810244 188.26364421 -19.00839913 187.24188404 -25 184 C-25.99 183.49146484 -25.99 183.49146484 -27 182.97265625 C-34.89705578 178.19017204 -38.86791336 168.65105657 -41 160 C-42.09438372 154.73857762 -42.1350068 149.66909666 -42.11352539 144.32275391 C-42.11367142 143.36602783 -42.11381744 142.40930176 -42.1139679 141.42358398 C-42.11327357 138.27455342 -42.10550369 135.12558268 -42.09765625 131.9765625 C-42.09579036 129.78795402 -42.09436727 127.59934513 -42.09336853 125.41073608 C-42.08955679 119.6601241 -42.07973798 113.90953752 -42.06866455 108.15893555 C-42.05842154 102.28695011 -42.05386472 96.41496055 -42.04882812 90.54296875 C-42.0381145 79.0286347 -42.02105422 67.51431946 -42 56 C-44.97 56 -47.94 56 -51 56 C-51 52.04 -51 48.08 -51 44 C-48.03 44 -45.06 44 -42 44 C-42 31.13 -42 18.26 -42 5 C-35.7815625 4.0409375 -35.7815625 4.0409375 -29.4375 3.0625 C-28.14384521 2.86277588 -26.85019043 2.66305176 -25.51733398 2.45727539 C-23.33857602 2.1216787 -21.15943004 1.78859502 -18.97998047 1.45751953 C-16.72503442 1.1113153 -14.47304646 0.74577092 -12.22265625 0.37109375 C-8.17331857 -0.09519362 -4.07609612 0 0 0 Z " fill="#662D91" transform="translate(440,103)"/>
<path d="M0 0 C3.4375 0.1875 3.4375 0.1875 4.4375 1.1875 C5.12042074 11.702297 3.85255664 21.67317123 2 32 C-0.83532264 48.12835591 -0.83532264 48.12835591 -1.31640625 64.44140625 C-0.74948258 81.12740413 -2.5684375 94.29110049 -10.1875 109.3125 C-10.53861847 110.00828156 -10.88973694 110.70406311 -11.25149536 111.42092896 C-16.10257193 120.86175267 -21.66034505 131.33746492 -31.5625 136.1875 C-35.66019017 136.83792701 -37.95888386 137.1490308 -41.5234375 135.01171875 C-51.42456157 126.9278896 -54.40018544 113.10466453 -56.30078125 100.96875 C-56.38714844 100.0509375 -56.47351563 99.133125 -56.5625 98.1875 C-56.69527344 97.12660156 -56.82804687 96.06570312 -56.96484375 94.97265625 C-56.37918251 89.46289178 -53.73880165 85.74636281 -50.8125 81.125 C-49.60249796 79.14504163 -48.39553927 77.16322065 -47.19140625 75.1796875 C-46.5792627 74.17647461 -45.96711914 73.17326172 -45.33642578 72.13964844 C-42.69169771 67.73832007 -40.20192869 63.26095797 -37.75 58.75 C-37.27159668 57.8727124 -36.79319336 56.9954248 -36.30029297 56.09155273 C-33.316984 50.57034254 -30.4386922 45.00144797 -27.60546875 39.40234375 C-26.90799136 38.02985008 -26.21048144 36.65737294 -25.51293945 35.28491211 C-24.16814103 32.63746374 -22.83946517 29.98278689 -21.52026367 27.32250977 C-8.00155392 0.42113442 -8.00155392 0.42113442 0 0 Z " fill="#5E2D82" transform="translate(163.5625,158.8125)"/>
<path d="M0 0 C0.33 0 0.66 0 1 0 C0.88410522 1.34795654 0.88410522 1.34795654 0.76586914 2.72314453 C0.24466234 9.4506615 -0.0426662 15.98846062 0.24609375 22.7421875 C0.76246096 39.3003626 -1.07770177 52.21025692 -8.625 67.125 C-8.97611847 67.82123474 -9.32723694 68.51746948 -9.68899536 69.23480225 C-14.54007725 78.67493494 -20.09858713 89.15032839 -30 94 C-33.64025718 94.76906842 -36.60988275 94.8511523 -39.84375 92.87109375 C-41.5 91.5 -41.5 91.5 -44 89 C-42.67510299 86.27983738 -41.24518957 83.67447843 -39.6796875 81.0859375 C-34.0831475 71.71215994 -29.1800199 62.33443018 -24.87890625 52.3046875 C-23.14406305 48.27196154 -21.24080571 44.34913404 -19.25 40.4375 C-15.63324761 33.31638539 -12.14544701 26.13704561 -8.6875 18.9375 C-8.17155273 17.8662085 -7.65560547 16.79491699 -7.12402344 15.69116211 C-4.63601363 10.50317974 -2.20828387 5.31344754 0 0 Z " fill="#732F84" transform="translate(162,201)"/>
<path d="M0 0 C1.74003025 2.25276644 3.35006294 4.53475872 4.91015625 6.91796875 C13.08429271 19.33494192 22.26589148 27.19486135 36 33 C37.27037109 33.54333984 37.27037109 33.54333984 38.56640625 34.09765625 C51.36983155 38.51617381 67.72516535 36.5683349 81 35 C81 35.66 81 36.32 81 37 C77.27290256 38.96229016 73.54297112 40.91913212 69.8125 42.875 C68.22985352 43.70837891 68.22985352 43.70837891 66.61523438 44.55859375 C65.08286133 45.36103516 65.08286133 45.36103516 63.51953125 46.1796875 C62.58214111 46.67194824 61.64475098 47.16420898 60.67895508 47.67138672 C50.40932 52.76455669 40.65928524 50.79416421 30.0078125 47.2265625 C18.71001854 42.61941016 10.17112474 33.96733049 5 23 C3.9428608 20.3002718 3.01104991 17.57273947 2.125 14.8125 C1.80184814 13.81488647 1.80184814 13.81488647 1.47216797 12.79711914 C0.16220238 8.429301 -0.20041553 4.54471698 0 0 Z " fill="#841F51" transform="translate(213,265)"/>
<path d="M0 0 C4.71703812 4.48118621 7.32186973 8.65851336 7.75 15.1875 C7.64756845 20.78026263 5.72661857 24.08997102 1.875 28.125 C-1.88600656 30.98522227 -5.79241951 32.1966238 -10.5 32.375 C-16.48950515 31.43031382 -20.7068362 29.20266302 -24.5 24.375 C-27.05202129 20.00010636 -27.05873128 15.30754957 -26.5 10.375 C-24.77985775 5.66724227 -22.2585987 2.66377386 -18.5 -0.625 C-12.47662369 -2.6327921 -5.76053591 -2.67453453 0 0 Z " fill="#ED217C" transform="translate(497.5,142.625)"/>
<path d="M0 0 C0 3.79659043 -1.21597865 5.32077335 -3.25 8.5 C-3.85328125 9.4590625 -4.4565625 10.418125 -5.078125 11.40625 C-6.88289242 13.84195237 -8.48253793 15.35139652 -11 17 C-9.4022331 13.62871185 -7.5015324 10.52147678 -5.5 7.375 C-4.8915625 6.41335938 -4.283125 5.45171875 -3.65625 4.4609375 C-2 2 -2 2 0 0 Z " fill="#3C72AC" transform="translate(143,284)"/>
</svg>
